<svg width="1440" height="459" fill="none" xmlns="http://www.w3.org/2000/svg"><path d="M5.006 311.823c11.65 10.723 30.326 12.752 42.65 1.932 9.145-8.017 12.226-20.672 9.338-32.264-3.851-15.262-19.64-23.28-29.267-34.389-9.146-10.626-15.212-23.281-19.929-36.418 2.407 2.994 5.392 5.602 9.05 7.921 18.484 11.592 44.382 3.381 58.438-11.495 7.605-8.018 12.034-18.548 11.649-29.753-.578-15.166-9.339-29.27-23.78-34.679-2.118-.773-4.428-1.256-6.643-1.353-1.925-.096-3.754 0-5.68.29-.289.097-.578.193-.77.29a21.04 21.04 0 0 1 5.776 3.188c8.569 6.568 12.42 19.32 12.323 30.042-.096 14.007-12.804 24.247-25.608 27.145-6.162 1.352-12.9.289-17.33-4.444-5.968-6.376-5.68-16.519-4.14-24.536 1.83-9.467 5.777-18.451 10.013-26.952 4.236-8.5 8.954-16.905 14.441-24.632 20.603-28.69 47.944-52.744 78.174-71.001 13.767-4.734 28.015-8.018 42.553-9.66 16.366-1.836 38.509-1.932 50.351 11.688-3.081 2.995-5.873 6.28-8.473 9.757-6.546 9.08-10.59 19.416-12.515 30.332-10.012-9.563-20.121-18.933-29.749-28.786-1.251-1.256-3.177-.87-3.85.772-6.836 17.388-16.559 33.81-18.581 52.744-.481 4.636-.482 9.37-.193 14.103-2.407-.579-4.91-1.062-7.316-1.545a222.593 222.593 0 0 0-25.416-3.188c-7.51-.483-15.212-.29-22.72-1.159-1.156-.097-2.793.483-2.89 1.932-1.154 13.91 3.178 27.917 9.917 40.088 6.45 11.689 15.115 22.798 26.475 29.946-13.286 2.222-25.416 9.177-35.91 17.582-10.782 8.693-20.12 19.996-24.357 33.23-.481 1.352.77 2.511 1.926 2.898 7.22 2.028 14.248 5.216 21.468 7.631 8.087 2.705 16.367 5.023 24.646 6.762 2.407.483 4.91.966 7.413 1.352a81.074 81.074 0 0 0-5.198 13.138c-5.392 18.354-2.503 37.191-2.792 55.931 0 1.739 1.636 2.898 3.177 2.222 12.612-5.506 25.608-10.24 38.413-15.263-2.311 10.723-2.503 21.928.096 32.844 6.739 28.014 29.267 50.039 56.897 55.352.193 9.949.867 19.899 1.83 29.752.288 2.319.481 4.734.77 7.052.962-.773 2.022-1.545 2.984-2.415 2.311-1.835 4.718-3.671 7.317-5.313a180.526 180.526 0 0 1 18.677-10.819c10.205-5.023 21.084-8.501 32.155-11.206 30.711-7.341 64.503-10.625 89.053-32.843 13.382-12.172 22.913-28.594 29.748-45.209 6.45-15.553 12.227-33.52 10.205-50.618 2.503-2.898 4.332-6.376 5.199-10.24.289-1.159.481-2.318.577-3.574 1.252.676 2.504 1.256 3.755 1.835 8.183 3.864 17.041 7.342 25.705 10.53a571.945 571.945 0 0 0 28.208 9.66c-29.363 1.642-57.475 23.28-70.279 48.783-7.51 14.876-10.109 32.843-5.584 49.072 4.043 14.297 15.115 25.502 28.112 31.878 11.264 5.603 24.068 7.342 36.006 4.444 2.31-.58 4.621-1.353 6.931-2.222a42.573 42.573 0 0 1-4.91-.58c-6.257-.966-12.034-2.898-17.618-6.472-7.22-4.637-12.708-11.592-16.655-19.127-8.087-15.069-9.049-34.486-4.043-50.618 5.006-16.229 16.848-29.559 31.096-38.253 8.472-5.12 17.618-8.501 27.534-8.887 5.969-.29 11.938.289 17.811.096a262.791 262.791 0 0 0 24.549 4.927c25.994 4.057 54.587 5.699 80.773 3.381 2.504-.193 5.007-.483 7.51-.773-.482.386-1.059.676-1.541 1.063-15.692 11.495-28.689 27.434-35.717 45.691-6.739 17.485-8.472 36.805-7.22 55.448.77 11.592 2.888 23.184 6.835 34.197.193.483.289.869.481 1.352.674-.193 1.444-.386 2.118-.483 15.693-3.961 31.77-7.438 45.249-16.712 15.211-10.529 27.438-26.275 34.465-43.373 6.932-17.001 9.339-35.452 9.435-53.709.097-9.853-.674-19.61-.481-29.463v-.483c.096-2.125.192-4.251.385-6.376 12.323-4.443 24.357-9.853 36.006-16.035-1.155 1.352-2.31 2.704-3.466 4.153-9.049 11.303-16.366 24.344-20.795 38.64-9.146 29.56-6.065 62.114 9.05 91.19 8.568 16.422 21.661 29.85 39.087 35.452 15.403 4.927 32.155 2.222 40.338-12.075 8.087-14.103 8.472-38.736-10.012-47.237-7.702-3.574-17.137-3.284-24.357 0-3.466 1.546-7.124 3.574-9.242 6.859-.771 1.062-1.252 2.222-1.541 3.284-.578 1.836-.674 3.864-.866 6.086a93.5 93.5 0 0 1 3.08-1.449c9.146-3.767 21.084-5.506 27.246 5.699 7.702 14.104-6.836 23.377-19.062 21.156-17.811-3.188-30.134-23.571-35.814-39.993-5.776-16.905-6.547-34.969-3.947-51.874 4.236-27.917 16.463-54.965 35.236-74.864 5.295-3.478 10.397-7.149 15.403-10.916 38.702-29.27 73.649-65.688 119.09-84.621 23.78-9.853 50.062-13.621 75.575-11.109 24.742 2.511 48.04 12.075 69.413 24.439 22.24 12.848 42.55 28.98 62.48 45.113.48.386 1.06.869 1.54 1.255-.29-.193-.58-.289-.87-.483-14.44-7.341-30.23-12.364-45.82-16.615-32.06-8.694-66.526-9.95-95.6 8.598-28.401 18.064-42.842 51.97-38.702 85.104 1.925 15.359 8.472 30.429 19.543 41.248 10.494 10.239 24.55 16.229 38.991 18.547 12.997 2.029 27.245.483 38.702-6.279 12.226-7.245 19.062-19.803 21.086-33.713 2.31-16.132-3.18-33.037-15.214-44.146a39.509 39.509 0 0 0-.289-.29c.963-2.801 1.059-5.699 1.83-8.501.866-3.091 2.599-6.086 4.332-8.79 3.177-4.83 7.317-8.791 11.941-12.172 9.53-6.762 20.98-10.143 32.54-11.206 13.28-1.255 26.57.966 39.37 4.251-4.23.773-8.47 2.028-12.32 3.671-33.5 14.2-52.37 49.169-58.25 83.751-2.98 17.388-5.29 38.351-3.08 58.057 2.41 20.382 9.73 39.219 26.67 51.294 8.28 5.893 20.6 11.302 30.81 12.365 31.38 3.284 72.49-17.098 72.78-51.971.19-19.416-12.8-38.253-31.77-43.856-9.82-2.898-19.35-1.062-28.3 3.478-7.22 3.574-14.44 10.336-12.23 18.643.19.58.39 1.256.67 1.836 0 .096.1.193.1.193.67-1.159 1.44-2.125 2.21-2.995 7.23-7.534 20.51-6.665 29.66-2.608 5.87 2.512 11.07 6.666 14.44 12.172 3.56 5.892 3.37 13.427 1.44 19.899-3.95 13.428-17.71 20.962-30.71 22.894-14.34 2.126-28.88-2.511-38.6-13.33-9.54-10.53-13.29-25.309-14.64-39.22-1.35-14.779-.09-29.946 3.56-44.242 4.62-18.064 13.39-34.969 24.46-49.846 4.52-6.085 9.53-11.881 15.02-17.194-7.32 10.432-10.98 23.763-10.88 36.321.09 15.359 8.66 31.588 20.7 40.862 12.22 9.466 29.74 10.143 42.26.676 8.57-6.472 10.88-17.195 6.16-26.758-4.04-8.018-13.57-11.206-21.37-13.911-7.99-2.801-16.85-5.409-19.26-14.49-3.37-12.364 5.78-28.4 16.08-34.969.39.29.77.483 1.06.773.29.193.58.29.87.387 8.66 5.119 17.52 9.756 26.76 13.91 24.65 11.012 51.31 17.678 78.17 19.223.1.097.29.097.39.097 18 3.477 35.33 11.592 47.46 25.792 11.07 13.041 11.75 30.622 15.12 46.561 1.44 6.859 4.91 14.393 12.13 16.712 8.18 2.705 15.21-3.091 18.58-10.24 7.51-15.746-3.95-35.355-14.06-47.623 3.28 2.704 6.45 5.506 9.53 8.404 11.75 11.398 21.47 25.212 26.38 40.958 4.82 15.263 6.26 36.901-6.54 48.686-8.77 8.018-26 8.694-27.73-5.892-.39-3.092.1-5.7 1.25-7.825 2.98-6.182 10.78-9.274 17.81-10.723 1.16-.193 2.22-.386 3.37-.579-1.35-1.642-2.6-2.995-4.14-4.154a9.841 9.841 0 0 0-3.18-1.642c-3.65-1.353-7.79-.966-11.55-.29-7.8 1.352-15.69 6.086-20.02 12.848-10.3 16.035 4.14 34.293 18.77 40.668 14.83 6.376 30.13-.386 39.95-12.171 11.07-13.331 14.16-30.236 11.84-46.948-.86-6.279-2.31-12.364-4.23-18.354 3.56 6.279 6.83 12.752 10.11 19.224 8.08 16.325 15.02 34.582 26.95 48.493 8.19 8.404 19.16 19.223 31.1 20.672 13.38 1.546 14.34-11.978 12.71-22.121-.29-1.546-.58-2.995-.87-4.347-2.6-10.433-7.7-20.479-13.09-29.753-6.64-11.302-14.73-21.831-23.78-31.298-18-18.644-41.3-32.361-65.47-41.345-.29-.096-.48-.096-.77-.096-5-5.313-10.49-10.143-16.56-14.394a119.32 119.32 0 0 0-21.18-11.785c10.59 1.642 21.28 2.801 32.06 2.512 10.11-.29 20.22-2.029 29.85-4.734 8.47-2.415 17.52-5.699 24.64-11.012 9.82-7.438 23.4-24.923 9.44-35.259-10.69-7.921-27.82-.58-38.32 4.057-.58.29-1.15.483-1.73.773 14.15-9.467 27.44-20.189 40.05-31.395 11.74-10.433 22.72-21.638 33.21-33.423-5.77 11.205-10.49 22.99-13.96 34.969-8.85 30.525-7.41 63.659-3.08 94.861 5.39 38.639 20.12 94.281 54.01 119.493v-6.858c-4.33-3.671-8.28-7.921-11.94-12.365-19.64-24.536-28.97-57.09-34.65-87.519-5.69-30.333-8.28-63.176-2.41-93.702 6.74-34.776 24.74-67.137 49-92.832v-8.211l-1.44 1.739a231.615 231.615 0 0 1-4.34 5.023c-1.82 2.415-3.65 4.83-5.48 7.245-4.53 5.216-8.76 10.626-12.71 16.422-.39.483-.77.869-1.06 1.352-8.38 10.047-17.23 19.707-26.47 28.98-19.16 19.32-39.77 36.998-62.49 51.971-20.6 13.524-42.93 24.15-66.91 29.849-.67.193-1.34.29-1.92.483-26.96 6.086-55.07 5.989-82.03.483-26.28-5.41-51.21-16.132-74.22-29.946-1.06-.676-2.12-1.256-3.18-1.932-21.66-13.427-40.63-30.429-60.94-45.788-39.38-29.946-83.854-54.096-134.59-51.681-24.935 1.159-48.714 8.501-70.665 20.093-21.372 11.302-40.627 26.371-59.304 41.538-19.062 15.455-37.546 31.684-57.571 45.691-1.155.773-2.311 1.546-3.466 2.415-20.121 13.621-42.264 23.957-65.273 31.588-4.429 1.449-8.857 2.705-13.382 3.864-2.311.483-4.525.966-6.739 1.546-29.652 6.472-61.037 6.955-90.978 4.926a226.441 226.441 0 0 1-19.833-2.318c-5.487-.869-10.975-1.932-16.366-3.091-7.991-1.739-15.789-3.768-23.683-6.086-13.093-3.767-25.994-8.211-38.798-12.848-5.969-2.222-11.938-4.443-17.907-6.762-5.488-2.125-10.494-5.602-16.078-7.438-1.348-6.279-5.102-11.785-10.59-15.263 5.873-1.062 10.975-4.25 14.634-8.79 1.059.579 2.214 1.062 3.369 1.642 2.696 1.256 5.199 2.801 7.991 3.864 5.873 2.318 11.745 4.637 17.714 6.859 13.093 4.926 26.283 9.563 39.761 13.62 13.575 4.057 27.245 7.535 41.205 9.853 24.935 4.154 52.758 5.7 77.981 3.478 6.162-.58 12.323-1.353 18.485-2.415 25.801-4.347 50.832-13.041 74.226-24.923a304.56 304.56 0 0 0 45.249-28.4c7.99-6.086 15.788-12.365 23.586-18.837 29.941-24.73 59.497-50.811 95.503-65.784a141.31 141.31 0 0 1 16.271-5.7c19.158-5.506 39.471-7.341 59.304-5.313 24.742 2.512 48.04 12.075 69.413 24.44 5.581 3.284 11.071 6.665 16.461 10.24 1.16 1.062 2.31 2.028 3.56 3.091 6.45 5.409 13.58 10.626 21.09 14.78 7.22 5.602 14.34 11.302 21.37 17.001 6.35 5.216 12.9 10.143 19.64 14.876 15.11 10.723 31 20.093 48.04 27.724 47.56 21.252 102.24 26.276 151.92 9.371 9.34-3.188 18.29-7.052 27.05-11.592 23.59-12.075 45.15-28.497 64.7-45.982 13.96-12.461 26.95-25.985 39.08-40.089 9.15-10.625 17.33-22.024 25.23-33.52 0 0 0-.096.09-.096 1.93-2.415 3.85-4.83 5.78-7.245v-4.347c-2.6 3.477-5.1 6.955-7.51 10.433l-.1.096c-5.58 7.245-11.55 14.104-17.52 21.156-4.91 5.892-10.01 11.591-15.21 17.291-3.66 3.96-7.41 7.824-11.26 11.688-15.02 15.167-31 29.367-48.24 42.021-4.62 3.478-9.43 6.762-14.24 9.95a453.527 453.527 0 0 1-6.84 4.347c-.77-.966-1.64-2.029-2.41-2.995-.09-.096-.19-.289-.28-.386-4.24-5.699-8.09-11.689-12.14-17.581l-4.62-6.666c-4.62-6.375-9.62-12.557-15.11-18.353.87.096 1.73.193 2.69.193 10.31 0 19.45-6.569 22.82-16.422 2.12-6.086 1.64-12.655-1.15-18.451-1.45-2.898-3.37-5.506-5.78-7.534a23.574 23.574 0 0 0 15.88-7.149c2.51-2.511 4.43-5.699 5.68-9.177 3.76-10.916-.86-22.797-10.3-28.497 1.64.387 3.28.58 5.01.58 3.56 0 6.93-.773 10.01-2.222-.19.386-.29.87-.48 1.256-4.33 12.654 2.41 26.468 15.02 30.719.67.193 1.25.386 1.92.579 1.93.483 3.86.773 5.88.773 10.3 0 19.54-6.569 22.81-16.422 2.12-6.086 1.64-12.654-1.15-18.45-.58-1.16-1.25-2.319-2.02-3.381 2.5.869 5.1 1.255 7.8 1.255 3.17 0 6.25-.58 9.05-1.738-1.26 1.835-2.32 3.864-2.99 5.989-3.95 11.688 1.44 24.343 12.23 29.559.86.387 1.83.773 2.79 1.159 2.5.87 5.1 1.353 7.8 1.353 10.3 0 19.54-6.569 22.81-16.422 4.34-12.655-2.4-26.372-15.01-30.719-2.51-.87-5.2-1.352-7.8-1.352-3.18 0-6.16.58-9.05 1.739 1.25-1.836 2.31-3.768 3.08-5.99 3.95-13.04-2.79-26.854-15.41-31.201-2.5-.87-5.19-1.353-7.79-1.353-2.22 0-4.34.29-6.36.87-2.02.58-4.04 1.449-5.77 2.511 1.15-1.739 2.02-3.574 2.69-5.506 4.33-12.654-2.4-26.372-15.02-30.719-2.5-.869-5.1-1.352-7.79-1.352-5.2 0-10.02 1.642-14.06 4.54a23.751 23.751 0 0 0-8.76 11.882c-.48 1.256-.77 2.608-.96 3.864-1.54 9.274 2.5 18.547 10.01 23.764a25.694 25.694 0 0 0 6.06 3.09c2.51.87 5.2 1.256 7.8 1.256 4.43 0 8.57-1.255 12.23-3.38-1.16 1.738-2.02 3.574-2.7 5.506-2.6 7.631-1.15 15.745 3.18 21.831-2.5-.87-5.1-1.352-7.8-1.352-3.56 0-6.93.773-10.01 2.222.19-.387.29-.773.48-1.256 2.12-6.086 1.64-12.655-1.15-18.45a23.186 23.186 0 0 0-8.09-9.37c-1.73-1.16-3.66-2.126-5.78-2.899-2.5-.87-5.1-1.352-7.8-1.352-4.33 0-8.37 1.159-11.93 3.188-3.57 2.028-6.55 5.023-8.77 8.597-.09-.193-.19-.483-.28-.676a24.302 24.302 0 0 0-13.67-12.172c-.1 0-.1 0-.2-.096-2.5-.87-5.1-1.256-7.8-1.256-5.19 0-10.01 1.642-14.05 4.54-3.95 2.898-7.13 6.955-8.76 11.882-2.12 6.085-1.64 12.654 1.15 18.45 1.93 3.96 4.82 7.245 8.48 9.564-2.03-.58-4.05-.773-6.17-.773-5.2 0-10.01 1.642-14.05 4.54-3.95 2.898-7.13 6.955-8.76 11.882-4.34 12.654 2.4 26.371 15.02 30.718 2.5.87 5.1 1.353 7.79 1.353 9.25 0 17.62-5.313 21.67-13.524a24.207 24.207 0 0 0 7.02 10.722c-9.82.483-18.39 6.956-21.56 16.326-1.64 4.733-1.64 9.563-.48 14.103-1.06-.676-2.03-1.352-3.08-2.028-15.6-9.854-34.66-15.456-53.15-15.167-15.98.29-30.71 6.473-45.34 12.365-.39.193-.77.29-1.16.483-.67.29-1.34.483-2.02.773.1.483.29.966.39 1.352 3.17 11.206 8.18 21.929 14.34 31.782 9.82 15.842 22.43 30.525 38.03 40.861 15.6 10.24 34.37 15.649 52.95 16.229-3.18.386-6.35.58-9.34.773-8.47.579-17.14.193-25.61-.773-16.85-2.029-32.06-8.694-45.73-18.74-16.46-12.075-29.75-28.884-37.64-47.72-7.32-17.775-10.3-41.055 4.62-55.932 3.08-3.091 7.03-5.409 11.36-6.858 4.91-1.739 10.3-2.415 15.21-2.222 2.31.097 4.53.58 6.55 1.256 1.06.386 2.02.773 2.98 1.256-.09-.87-.19-1.739-.29-2.609-1.73-16.035-7.79-32.167-19.92-43.083-12.04-10.916-29.08-12.075-44-7.245-15.69 5.12-28.59 16.712-35.14 31.781-7.7 17.775-7.41 37.867-3.08 56.414 8.28 35.259 33.79 64.915 64.02 83.656 5.3 3.284 10.88 6.279 16.56 8.887-24.94-6.955-46.98-22.025-64.79-41.441-10.98-11.979-20.41-24.923-27.06-39.799-4.14-9.274-7.12-19.707-6.83-29.753.29-7.438 2.31-14.683 7.12-21.155.29-.29.2-.966-.19-1.16-11.55-9.949-28.21.194-34.66 11.496-6.64 11.785-4.71 26.082-.29 38.253 1.54 4.251 3.47 8.308 5.59 12.268-11.36-11.688-19.64-27.241-24.26-42.214-3.08-10.046-4.72-20.865-4.34-31.395.1-4.733.77-9.466 2.03-14.103l.57-1.739c5.78 1.063 11.17-3.284 11.36-9.177.1-2.994-1.63-5.989-4.14-8.114 3.47.483 6.74-.966 8.86-3.574.77 3.67 2.99 6.955 6.26 7.92 2.89.87 5.68.29 7.89-1.062 1.16 4.057 3.28 7.728 7.51 9.274 4.43 1.642 9.25-.483 13-2.898 11.36-7.149 16.17-21.639 13.67-34.486-2.6-13.331-12.9-25.986-25.03-31.878-11.55-5.603-24.94-5.796-37.16-2.512-12.81 3.478-24.648 10.916-33.505 20.77-10.397 11.688-14.73 26.274-15.981 41.73-2.214 27.338 8.279 53.516 24.935 74.672-27.246-15.166-56.705-25.116-88.668-24.73-10.494-3.284-20.987-6.375-31.096-10.722-12.131-5.313-22.432-13.041-31.096-22.991-8.665-9.853-15.404-21.445-19.736-33.81-4.814-13.33-5.584-27.048-5.006-41.055.096-1.739-2.311-2.222-3.177-.87-14.441 22.702-24.454 50.33-18.966 77.474 2.888 14.586 11.841 27.337 23.587 35.742-6.162-3.478-12.131-7.342-18.485-10.433-4.813-2.319-10.975-4.83-16.27-2.415-5.391 2.415-7.894 9.08-8.376 14.586-2.214 21.735 25.416 23.667 46.693 18.064-17.618 10.047-33.888 22.508-49.677 35.259.289-.386.577-.773.866-1.255-1.829 1.255-3.754 2.414-5.68 3.574-25.994 15.552-56.705 23.377-86.838 20.962-18.581-1.449-36.488-6.955-52.758-16.036-6.45-3.574-12.708-8.018-17.522-13.717 17.715-18.45 16.271-53.999-7.22-67.137-12.516-7.051-28.208-2.511-38.606 6.183-12.034 9.95-17.906 25.309-19.736 40.475-3.273 28.11 10.976 56.221 33.311 72.933 20.025 15.069 45.633 19.416 70.087 17.967 23.394-1.352 46.596-8.404 67.68-18.74-1.541 1.159-3.081 2.222-4.621 3.381-20.218 14.2-42.649 25.019-65.947 33.037-.674 0-1.445.097-2.118.097-14.538.386-29.171-1.449-43.42-4.154-32.251-6.086-62.288-27.241-77.114-56.801-13.96-27.917-14.056-63.949 0-91.866 6.643-13.33 17.136-24.15 30.807-30.236 15.019-6.665 33.503-6.085 48.04 1.353a41.593 41.593 0 0 1 8.472 5.603c1.926 1.642 3.659 3.477 5.103 5.506-.482-1.932-1.059-3.768-1.541-5.7-3.08-11.592-6.354-22.99-14.248-32.457-11.745-13.91-30.326-21.059-47.944-22.894-33.888-3.478-66.043 13.234-84.913 41.054-32.925 48.397-23.972 123.358 19.64 162.288 14.826 13.234 33.118 23.377 51.313 31.395 8.376 3.671 16.944 6.858 25.705 9.273-27.052-3.284-52.95-11.785-76.055-26.468-24.55-15.649-46.5-39.896-48.811-70.228-.192-2.125-.192-4.25-.096-6.279.096-2.318.289-4.637.578-6.858-1.541.772-2.889 1.738-4.237 2.801-6.931 5.699-11.167 14.683-12.9 23.667-3.562 18.45 3.947 35.065 15.789 48.976 4.524 5.313 9.627 10.046 15.115 14.297-5.584-1.932-11.072-3.961-16.559-5.99-5.969-2.221-11.938-4.54-17.811-6.858-4.043-1.642-7.894-3.961-11.842-5.796.482-1.159.867-2.415 1.252-3.671 1.155-4.927.77-9.95-1.059-14.49 9.242-15.359 10.783-34.872 10.783-52.453-.097-18.065-2.6-36.805-10.398-53.227-14.248-29.85-44.286-45.788-69.894-64.335-9.242-6.666-18.003-14.007-25.513-22.605-4.717-5.41-9.242-11.108-13.189-17.098-1.733-2.511-3.273-5.12-4.717-7.631-.674-1.063-1.252-2.222-1.926-3.381a129.947 129.947 0 0 0-3.369 6.279c-4.621 8.79-9.05 17.678-12.997 26.758-14.537-2.898-29.556-1.063-42.938 4.733-5.873-8.597-15.789-14.876-25.127-18.74-12.034-4.927-24.742-7.052-37.739-7.438-12.708-.386-25.416 1.16-37.836 3.864-15.307 3.284-30.326 8.694-44.67 15.65C92.71 24.245 84.143 19.222 77.98 17c-11.552-4.057-25.223-3.09-37.257-2.125-5.873.483-11.65 1.16-17.426 1.932-4.332.58-8.664 1.74-13.093 2.222-3.273.386-6.643.386-10.012.193v5.7c.385 0 .673.096 1.059.096 10.878.966 21.468-.676 32.251-1.932 11.938-1.352 24.164-2.221 36.102-.483 4.91.677 9.917 1.836 14.153 4.444 2.695 1.642 4.043 4.057 5.295 6.569-7.606 3.864-14.923 8.21-22.047 12.944-3.562-2.898-11.938-2.608-15.307-2.608-8.184 0-16.27 1.739-24.357 2.705s-15.982.869-23.972-.58c-1.06-.193-2.119-.386-3.081-.676v3.284C6.065 50.908 12.13 52.26 18.58 52.26c7.701 0 15.307-1.255 22.913-1.932 6.161-.483 13.19-1.062 19.447.29-4.814 3.381-9.435 6.955-13.96 10.626-2.214 1.16-4.525 2.125-7.124 2.802-4.813 1.255-9.916 1.738-14.922 2.125-7.99.58-16.56 1.159-24.646.29v4.443c8.472 1.353 17.136.773 25.609.097 3.85-.29 7.701-.677 11.456-1.45-.481.387-.866.773-1.348 1.257-8.664 8.017-16.655 16.518-24.26 25.502A348.867 348.867 0 0 0 .192 110.896v4.347c5.295-6.472 10.878-12.751 16.559-18.933 10.398-11.302 21.758-21.832 33.889-31.3 5.68-4.54 11.649-8.79 17.714-12.75 7.99-5.217 16.27-10.047 24.838-14.297 12.034-5.99 24.646-10.916 37.643-14.49 14.249-3.96 29.075-5.99 43.901-6.086 12.034-.097 24.26 1.352 35.717 4.926 5.584 1.74 10.975 4.348 15.885 7.535 3.947 2.512 7.317 5.7 10.398 9.08-6.066 2.899-11.746 6.763-16.848 11.206-7.028-9.756-18.581-13.62-30.423-15.07-15.018-1.835-30.518.484-45.248 3.575-6.354 1.352-12.515 2.994-18.677 4.83a195.333 195.333 0 0 0-25.801 10.046c-18.1 8.694-34.466 20.576-49.485 33.713-6.161 5.41-12.034 11.11-17.714 17.099-5.584 5.892-11.071 11.978-16.366 17.967C10.686 128.574 5.295 134.95 0 141.229v8.307c1.733-1.835 3.466-3.671 5.295-5.409-1.83 2.898-3.562 5.892-5.295 8.887v10.626a12.904 12.904 0 0 1 1.925-2.029c-.288 1.353-.673 2.608-.962 3.961-.385 1.545-.77 3.091-.963 4.733v22.121c.289 1.836.77 3.671 1.348 5.41.866 4.54 1.925 8.984 3.37 13.234 2.888 9.08 6.835 17.678 11.745 25.792 5.295 8.887 11.938 15.843 19.543 22.701 7.317 6.472 15.981 13.717 18.003 23.764 1.733 8.114-1.348 16.808-6.45 23.087-5.391 6.569-14.056 9.563-22.335 8.404-7.895-1.062-14.538-6.472-19.544-12.365a55.894 55.894 0 0 1-5.584-7.921v11.496c1.156 2.028 2.985 3.96 4.91 5.795zm441.316-4.54c-15.019 8.018-27.438 20.576-33.888 36.418-12.227 29.753-1.54 71.871 29.459 85.201 1.348.58 2.696 1.063 4.14 1.546-24.742 1.739-51.025-15.166-55.646-40.282-6.835-37.384 22.047-72.643 55.935-84.138 2.022-.677 4.043-1.256 6.162-1.836-2.119 1.063-4.14 2.029-6.162 3.091zm824.968 8.405a80.384 80.384 0 0 1 16.07 17.774c5.49 8.211 10.4 17.774 10.98 27.821.48 8.211-6.36 20.962-15.98 15.359-6.84-3.961-8.28-13.234-9.63-20.383-3.08-15.939-7.61-30.815-19.35-42.6-6.84-6.859-14.73-12.365-23.4-16.229 11.85 2.705 23.4 7.052 34.28 12.848 2.5 1.739 4.81 3.574 7.03 5.41zm70.56 28.207c7.99 4.83 15.79 10.143 23.01 16.035 14.73 11.979 27.44 26.662 38.03 42.407 4.43 6.473 8.09 13.718 10.88 21.059 1.35 3.478 2.89 7.728 3.47 11.979.67 4.25.48 8.5-1.45 12.074-6.83 12.462-22.81-1.932-29.17-7.824-14.05-13.138-22.14-31.105-30.52-48.01-9.05-18.257-18.87-35.935-31.38-51.777-1.54-2.222-3.18-4.347-4.91-6.473 7.51 3.092 15.02 6.279 22.04 10.53zm-34.65-17.678c5.19 4.927 9.91 10.336 13.96 16.325 5.19 7.535 9.43 15.843 12.41 24.633 5.68 16.519 8.38 35.356 1.16 51.778-4.04 9.37-10.98 17.581-20.22 22.121-10.49 5.12-21.85 2.028-30.61-5.023-4.91-3.961-8.47-8.887-9.82-15.07-1.54-6.665 1.35-12.558 5.49-17.678 3.46-4.25 9.91-6.472 15.01-7.438 2.6-.483 5.01-.386 7.13.097-6.16 2.415-11.55 7.535-14.25 13.524-1.64 3.767-2.41 7.824-1.64 11.978 1.25 7.245 7.71 11.496 14.54 12.268 7.8.87 16.27-3.767 21.37-9.37 10.69-11.882 9.73-31.202 6.16-45.691-3.65-15.167-12.13-28.98-22.33-40.572-10.98-12.462-24.55-22.798-39.18-30.526-2.89-1.835-5.88-3.671-8.86-5.216-3.27-1.739-6.74-3.574-10.4-5.217 6.07 1.063 12.13 2.609 18 4.541 15.7 4.926 30.14 13.33 42.08 24.536zm29.07-61.437c6.93-2.898 14.06-5.603 21.47-6.956 5.01-.869 12.71-1.062 14.83 4.83 2.4 6.569-4.82 14.49-8.96 18.644-6.26 6.376-14.73 10.047-23.1 12.848-15.5 5.313-31.68 7.245-47.95 5.989-11.84-.869-23.39-3.091-35.14-4.83-1.06-.29-2.21-.58-3.27-.773.67-.193 1.44-.386 2.12-.579 12.22-3.961 24.84-6.376 36.97-10.336 15.01-4.927 28.49-12.848 43.03-18.837zm-266.77-20.866c-10.98-2.898-22.82-4.54-34.28-4.25-12.99.386-26.18 4.057-36.868 11.495-8.953 6.182-18.677 18.064-19.447 29.849-11.746-6.665-26.764-6.568-37.547 2.319-7.99 6.665-13.093 18.257-9.049 28.4.577 1.352 2.695.676 2.406-.676-1.54-9.274 3.177-17.581 9.917-23.474 7.027-6.182 16.077-7.245 24.838-4.733 16.752 4.83 26.379 22.797 26.475 39.412.096 14.587-6.258 29.173-19.062 36.805-11.745 6.955-26.283 7.341-39.376 4.637-14.826-3.092-28.496-11.109-37.45-23.474-9.435-12.944-12.804-29.656-12.034-45.402 1.637-34.776 25.031-63.949 57.86-74.382 26.571-8.404 54.106-3.864 80.387 3.381 13.38 3.671 26.38 8.308 38.99 14.201 5.97 2.801 12.04 6.278 17.52 10.432h-.29c-4.14-2.028-8.76-3.477-12.99-4.54zm-20.8 40.475c-12.61 16.519-22.14 35.452-27.15 55.738-3.94 15.939-4.62 32.941-2.4 49.169 2.11 15.36 7.89 31.106 20.02 41.249 19.74 16.518 56.03 13.523 69.9-9.467 6.54-10.916 5.96-25.213-2.7-34.68-7.99-8.79-21.28-13.234-32.93-11.205-3.85.676-7.22 2.318-9.91 4.733 1.83-4.54 6.74-7.631 11.36-9.563 6.35-2.608 13.48-3.284 20.22-2.029 14.05 2.609 24.45 14.297 28.3 27.435 1.93 6.568 1.93 13.62.19 20.286-2.02 7.728-7.22 14.007-12.9 19.513-13.19 12.944-32.15 18.547-50.44 17.194-32.54-2.318-51.7-32.843-54.5-62.983-2.21-24.053-.38-49.169 7.51-72.063 5.2-15.166 14.93-32.747 26.96-43.663 8.76-7.921 19.35-14.2 30.62-17.678 3.27-.966 6.45-1.642 9.62-1.835-4.04 2.125-7.89 4.83-11.45 7.825-7.61 6.472-14.35 14.103-20.32 22.024zm30.62 13.717c2.98 12.558 17.81 15.553 28.21 19.127 5.48 1.836 10.68 4.444 13.38 9.853 3.46 6.762.77 14.104-4.72 18.741-5.58 4.733-13.96 6.568-21.18 6.085-9.24-.579-16.85-6.762-22.53-13.524-12.13-14.683-14.25-33.906-8.18-51.584 2.79-8.114 7.32-15.745 13.86-21.252 4.72-3.96 10.3-5.892 16.18-6.279-10.69 8.888-18.2 25.599-15.02 38.833zm-383.169-1.062c-8.761 16.905-14.634 36.128-15.982 55.931-1.059 16.325.674 33.52 7.125 49.266 6.161 15.069 17.425 33.037 33.599 37.577 7.702 2.125 17.522 1.449 23.394-3.864 5.199-4.637 7.798-12.075 4.333-19.32-5.199-10.722-18.292-15.939-28.979-13.717 1.444-1.739 3.274-3.188 5.777-4.25 4.813-2.126 11.456-3.864 16.944-1.932 6.546 2.221 12.612 5.796 15.5 12.751 2.695 6.279 2.888 12.848 1.348 19.223-2.792 11.302-10.205 20.672-21.951 22.025-10.397 1.256-21.18-2.222-30.422-8.211-16.174-10.626-25.801-29.077-31.385-47.237-5.295-17.002-6.739-34.969-3.851-51.874 2.792-16.905 9.435-32.748 18.966-46.272 5.006-6.955 10.59-13.524 16.848-19.223.096-.096.288-.193.385-.29.577-.289 1.059-.676 1.636-.966-5.102 6.183-9.531 13.138-13.285 20.383zm-51.314 89.065c-6.546 17.388-18.003 32.65-32.636 44.146-12.42 9.756-27.535 14.779-42.553 19.03h-.096c-11.072-31.878-7.991-68.683 10.012-97.373 10.205-16.228 24.935-31.298 42.745-38.929 3.37-1.449 6.836-2.512 10.398-3.381a74.578 74.578 0 0 1 12.9-2.029c-6.835 10.24-14.537 19.803-21.95 29.656-5.487 3.864-15.596 1.353-19.928-2.608-.771-.676-1.637.386-.963 1.159 4.043 4.251 11.071 7.052 17.329 6.472-2.407 3.188-4.621 6.473-6.835 9.854-.193.193-.482.386-.578.676-4.429 6.955-17.137 4.347-22.239-.29-.77-.676-1.637.483-.963 1.159 4.525 4.734 12.901 7.728 19.447 6.086-2.695 5.603-5.487 12.075-10.205 15.069-5.391 3.381-12.034 2.898-17.04-.869-.674-.483-1.444.483-.77 1.063 4.428 3.96 12.323 5.989 18.099 3.767-2.214 4.927-3.466 12.944-7.702 16.519-3.369 2.898-9.242 2.898-12.997.676-.577-.29-.962.483-.481.869 3.658 2.512 9.724 3.285 13.863 1.063-2.118 6.182-3.85 12.461-5.487 18.74-.289.966 1.251 1.159 1.54.29a197.083 197.083 0 0 1 6.065-18.451c1.733 3.961 6.258 7.149 10.302 7.825.577.097.866-.773.288-.966-4.332-1.063-10.493-7.052-8.375-11.978.096-.194.096-.483.096-.677a202.433 202.433 0 0 1 5.969-13.137c1.637 5.699 7.124 10.819 12.612 12.461.77.29 1.348-.966.481-1.256-15.981-6.182-9.242-19.899-2.407-30.235 1.252 6.569 7.028 12.944 12.997 15.262.867.387 1.54-.965.674-1.352-6.162-2.994-13.478-13.717-8.857-20.479.192-.193.289-.483.289-.676 2.599-3.574 5.391-7.052 8.183-10.53 1.252 6.666 7.028 12.945 12.997 15.263.866.387 1.54-.966.674-1.352-5.584-2.705-12.131-11.785-9.82-18.547 7.894-9.371 15.981-18.741 22.239-29.173 0 8.307.481 16.518.481 24.729-.096 17.678-1.54 35.839-7.798 52.454zm639.153-281.298c-1.73-5.12-5.1-9.66-9.72-12.752 2.02.58 4.04.87 6.16.87 8.57 0 16.37-4.54 20.7-11.785.1.193.19.483.29.676 2.02 4.25 5.2 7.631 9.15 10.046-1.64-.386-3.28-.58-5.01-.58-4.62 0-9.05 1.353-12.8 3.671-3.76 2.416-6.84 5.796-8.77 9.854zm127.66-22.991c2.12 0 4.24.386 6.36 1.063 10.2 3.477 15.69 14.683 12.22 24.922-2.69 7.921-10.2 13.331-18.58 13.331-2.12 0-4.23-.386-6.35-1.063-10.21-3.477-15.69-14.683-12.23-24.922 2.79-7.921 10.21-13.331 18.58-13.331zm-28.78-36.225c2.11 0 4.23.386 6.35 1.063 10.21 3.477 15.69 14.683 12.13 24.922-2.69 8.018-10.11 13.331-18.58 13.331-2.12 0-4.24-.386-6.35-1.062-10.21-3.478-15.7-14.684-12.23-24.923 2.79-8.018 10.3-13.33 18.68-13.33zm-32.35 5.12c-2.12 0-4.24-.387-6.36-1.063-10.2-3.477-15.69-14.683-12.22-24.922 2.69-8.018 10.11-13.331 18.58-13.331 2.12 0 4.23.386 6.35 1.062 10.21 3.478 15.7 14.684 12.23 24.923-2.7 7.921-10.21 13.33-18.58 13.33zm4.91 31.878c2.12 0 4.23.386 6.35 1.062 4.91 1.74 8.96 5.217 11.27 9.95 2.31 4.733 2.69 10.046.96 14.973-2.7 8.018-10.11 13.331-18.58 13.331-2.12 0-4.24-.387-6.36-1.063-10.2-3.477-15.69-14.683-12.22-24.922 2.69-8.018 10.2-13.331 18.58-13.331zm-50.93-17.775c2.7-8.017 10.21-13.33 18.58-13.33 2.12 0 4.24.386 6.36 1.062 5 1.74 8.95 5.217 11.26 9.95 2.31 4.733 2.69 10.046.96 14.973-.96 2.705-2.41 5.216-4.33 7.148-3.66 3.864-8.76 6.183-14.25 6.183-2.12 0-4.23-.387-6.35-1.063-5.01-1.739-8.96-5.216-11.27-9.95a24.975 24.975 0 0 1-1.73-5.12c.77-3.09.96-6.182.58-9.273 0-.193.09-.386.19-.58zm-41.69 12.558c-2.31-4.733-2.69-10.046-.96-15.07 2.7-7.92 10.21-13.33 18.58-13.33 2.12 0 4.24.386 6.36 1.063 5 1.739 8.95 5.216 11.26 9.95.77 1.642 1.35 3.38 1.73 5.12-.77 3.09-.96 6.182-.57 9.273-.1.193-.1.386-.2.58-2.69 7.92-10.2 13.33-18.58 13.33-2.12 0-4.23-.386-6.35-1.063-5.01-1.642-8.96-5.12-11.27-9.853zm16.76 41.345c-2.7 7.921-10.11 13.331-18.59 13.331-2.11 0-4.23-.387-6.35-1.063-10.2-3.477-15.69-14.683-12.23-24.923 2.7-8.017 10.21-13.33 18.58-13.33 2.12 0 4.24.386 6.36 1.062 10.2 3.478 15.69 14.683 12.23 24.923zm6.45-4.347c.09-1.739.38-3.478 1.05-5.216 2.7-8.018 10.21-13.331 18.59-13.331 2.11 0 4.23.386 6.35 1.063 10.2 3.477 15.69 14.683 12.23 24.922-2.7 7.921-10.11 13.331-18.58 13.331-2.12 0-4.24-.386-6.36-1.063-.09 0-.09 0-.19-.096-8.47-2.898-13.58-11.013-13.09-19.61zm-13.58 37.191c2.7-8.018 10.21-13.331 18.58-13.331 2.12 0 4.24.387 6.36 1.063 4.91 1.739 8.95 5.216 11.26 9.95 2.31 4.733 2.7 10.046.96 14.972-2.69 7.922-10.2 13.331-18.58 13.331-2.12 0-4.33-.386-6.35-1.062-1.16-.387-2.31-.966-3.37-1.546-1.83-1.739-3.76-3.284-5.68-4.927-4.05-5.023-5.49-11.881-3.18-18.45zm-42.55 82.979c-31.29-12.751-55.17-40.958-64.6-73.319.48-.193.87-.29 1.25-.483 14.35-5.12 29.17-9.564 44.48-8.887 18.58.772 36.68 6.472 52.08 16.808 3.76 2.512 7.32 5.313 10.69 8.211 9.92 8.694 18.39 19.223 26.09 29.849 4.81 6.666 9.15 13.717 13.96 20.383-11.17-4.734-23.11-7.632-35.04-10.723-5.78-4.057-5.78-15.263-2.8-20.769.48-.869-.77-1.545-1.34-.773-3.47 5.41-4.63 13.911-1.74 19.997-4.33-1.16-8.57-2.415-12.8-3.768-.19-.193-.39-.29-.68-.386-7.7-2.802-7.99-15.746-4.71-21.832.48-.869-.77-1.545-1.35-.772-3.47 5.409-4.62 13.91-1.73 19.996-11.65-4.347-25.03-11.592-15.6-25.889.48-.773-.58-1.449-1.16-.773-3.46 4.444-5 11.882-2.98 17.485-4.24-2.222-8.47-4.734-12.52-7.245-.09-.193-.28-.29-.48-.483-4.62-2.802-3.08-11.206-.09-14.587.38-.483-.29-1.062-.77-.676-2.89 2.898-4.72 8.114-3.76 12.365a205.171 205.171 0 0 1-15.69-11.496c-.77-.579-1.83.483-1.06 1.063 4.91 4.25 10.11 8.211 15.4 12.075-4.62.483-9.14 4.733-10.68 8.887-.19.58.67.966.86.386 1.83-3.96 6.55-7.438 10.98-7.051 5.49.483 11.26 6.182 15.88 8.983-5.96 1.546-11.16 7.825-12.51 13.718-.19.869 1.06 1.255 1.25.386a15.204 15.204 0 0 1 13.38-10.723c5.59-.386 11.65 3.381 17.04 6.279-6.35 2.512-11.36 9.757-12.32 16.326-.1.966 1.25 1.256 1.44.29 1.54-6.666 10.31-16.229 17.91-13.138.29.097.58.193.87.193 3.75 1.449 7.51 2.802 11.26 4.057-5.39 3.092-9.53 9.564-10.3 15.36-.19.966 1.25 1.256 1.44.29 1.35-5.796 8.09-13.718 14.73-13.814 11.75 3.671 23.59 6.955 35.05 11.302-6.84 4.057-14.44 7.438-22.15 9.177-18.67 4.637-39.37.966-57.18-6.279zm-82.99-1.449c-32.35-22.218-56.7-58.829-56.7-99.015 0-14.779 3.75-30.622 13.38-42.214 8.09-9.756 19.93-16.325 32.25-18.643 12.9-2.415 25.61 1.062 35.04 10.142 9.34 8.984 13.87 22.025 16.47 34.776-2.41-.676-4.91-1.062-7.61-1.159-4.91-.193-9.82.773-14.44 2.415-1.06.387-2.02.773-3.08 1.256-6.36 2.801-10.59 7.342-14.92 12.655-12.04 14.489-6.74 37.48-.39 53.129 7.32 17.968 19.74 33.907 34.27 46.561 7.9 6.955 16.37 12.945 25.9 17.292 7.41 3.381 15.31 5.023 23.4 5.989 3.08.386 6.16.773 9.43.966-4.52.483-9.05.773-13.57.966-9.82-.29-19.55-1.353-29.27-3.574-17.91-3.864-34.95-11.206-50.16-21.542zm-101.66-96.406c3.08-12.462 16.94-26.372 30.03-19.32-4.71 6.568-6.64 13.813-6.83 21.252-.29 9.273 2.02 18.933 5 28.013 2.51 7.728 6.74 15.07 10.79 22.025 4.43 7.535 9.34 14.683 15.11 21.155 11.36 12.848 24.94 24.15 40.05 32.361a264.537 264.537 0 0 1-34.95-17.774c-11.16-6.665-21.66-14.393-31.86-22.315-8.86-8.887-16.08-19.416-21.66-30.718-5.11-10.53-8.57-22.991-5.68-34.679zm-13.96-57.574c.38 5.023-3.95 8.115-8.47 7.825-.39 0-.87-.097-1.26-.194-1.25-.29-2.31-.869-3.08-1.738-2.6-2.705-3.08-7.632-1.15-10.82 1.35-2.221 3.17-3.187 5.1-3.38 4.04-.29 8.47 3.38 8.86 8.307zm-2.99-9.756c-5.2-1.063-6.83-8.308-4.23-12.462 1.34-2.221 3.17-3.188 5.1-3.38 4.14-.29 8.57 3.38 8.95 8.21v.387c-.19.772-.29 1.642-.29 2.415-1.25 3.767-5.39 5.699-9.53 4.83zm16.56 4.636c-3.66-.772-5.49-4.54-5.49-8.21.49-1.063.77-2.222.77-3.575.1-.29.29-.483.39-.773 1.35-2.221 3.18-3.187 5.1-3.38 4.14-.29 8.57 3.38 8.96 8.21.19 2.319-.58 4.25-2.03 5.603-.38 0-.86.29-.86.773-1.83 1.352-4.34 1.932-6.84 1.352zm-33.6 78.246c-12.417-13.524-21.948-29.849-26.569-47.624-4.332-16.615-4.621-36.321 2.214-52.357 5.199-12.268 15.215-22.024 26.765-28.4 20.79-11.495 48.23-10.143 62.29 11.013 8.08 12.171 8.76 25.888.67 38.156-2.89 4.444-7.6 8.598-12.99 9.274-5.4.676-8.57-3.864-10.02-8.5 1.83-1.643 3.08-4.058 3.08-6.86.2-7.438-10.59-14.682-16.56-8.79-.19.193-.48.483-.67.773-2.41-5.99-10.88-10.433-15.88-5.41-3.66 3.671-2.99 11.399.57 15.456-2.6-.58-5.29-.193-7.41 1.932-3.75 3.768-2.98 11.882.96 15.843-.09.193-.19.483-.19.676-1.64 4.83-2.5 10.046-2.79 15.166-.77 11.399 1.64 22.604 5.2 33.327 5.2 15.456 13.19 31.395 25.03 43.083-2.7-1.545-5.3-3.091-7.9-4.733-3.46-2.608-7.12-5.217-10.68-7.728a176.35 176.35 0 0 1-15.12-14.297zm-203.615-62.79c-4.429-22.024 3.081-46.27 13.093-66.267 0 4.926 0 9.95.674 14.876a103.728 103.728 0 0 0 4.91 20.093c4.429 12.461 11.264 23.957 19.832 34.003 8.665 10.336 19.255 18.257 31.482 23.764 8.857 3.96 18.195 6.665 27.534 9.177-13.767.676-27.246 3.284-40.243 7.438-27.149 4.54-51.987-16.519-57.282-43.084zm-17.811 35.259c4.91-10.626 22.817 3.285 28.69 6.666 6.258 3.67 14.537 8.79 22.528 9.273-20.218 8.791-63.252 10.046-51.218-15.939zm-69.605 100.56c-23.779 11.013-50.351 17.485-76.633 16.615-24.357-.772-48.426-9.08-64.985-27.627-19.736-22.121-26.186-54.869-11.649-81.53 5.103-9.274 13.286-16.905 23.491-19.996 10.012-2.898 19.832-.676 26.764 7.148 6.546 7.438 9.242 17.678 9.049 27.434-.192 10.53-4.332 19.61-11.36 26.855-1.444 1.449-2.984 2.898-4.621 4.251.77 1.062 1.541 2.028 2.311 2.994 3.754 4.347 8.472 8.114 13.189 11.109 15.693 9.95 33.696 16.325 52.084 18.644 30.422 3.767 62.866-2.802 89.823-18.064-.289.289-.674.579-.963.869-5.584 4.637-11.168 9.274-16.848 13.91-9.242 6.762-19.351 12.558-29.652 17.388zm-152.4 47.141c-20.218-5.506-39.569-14.973-56.994-26.565-13.863-9.274-25.609-20.286-34.466-34.583-7.894-12.847-12.997-27.241-15.885-42.02-5.776-29.56-1.733-61.728 13.767-87.81 16.656-28.11 46.789-45.112 79.522-44.339 18.195.483 36.584 7.535 49.195 21.059 6.836 7.342 9.724 16.518 12.323 25.792-17.521-14.393-47.173-14.393-66.139-3.188-26.379 15.553-36.969 48.783-37.162 77.956-.096 33.907 15.404 65.978 42.36 86.553 13.094 9.95 29.171 18.451 45.345 22.025 9.82 2.125 19.736 3.671 29.748 4.54-10.108 2.319-20.409 4.057-30.903 5.12-10.205-.483-20.603-1.739-30.711-4.54zm-115.624-29.27c-11.457-11.688-20.218-26.661-19.062-43.566.481-6.569 2.406-13.331 6.065-18.837.577-.87 1.155-1.546 1.733-2.319 1.059 51.102 58.052 88.003 103.878 98.725.289.097.578.097.867.193-8.28-.676-16.367-1.738-24.453-3.091-13.19-2.221-26.09-5.409-38.895-9.273-11.071-5.603-21.276-12.848-30.133-21.832zM207.469 404.173a68.493 68.493 0 0 1-5.584-1.449c-32.059-10.336-52.277-45.016-44.671-78.149.385-1.546.77-3.092 1.251-4.637.482-1.739 1.059-3.381 1.637-5.023 8.183-23.184 25.801-41.925 48.907-51.101 25.512-10.24 54.779-10.337 81.543-6.086 3.851.579 7.606 1.352 11.36 2.125-.77 0-1.444-.097-2.214-.097a152.315 152.315 0 0 0-18.773 0 130.682 130.682 0 0 0-35.91 7.439c-23.491 8.5-42.745 25.502-51.987 49.072-.386.966 1.059 1.642 1.444.773 10.108-22.991 28.978-39.22 52.372-47.431 11.36-3.96 23.395-5.795 35.332-6.472 4.91-.289 9.82-.289 14.73 0-5.391.483-10.686 1.256-15.692 2.319-14.056 2.898-27.342 8.983-38.991 17.291-24.453 17.388-39.953 44.726-45.537 73.995-.193.966 1.252 1.256 1.54.29 5.969-28.304 21.18-54.482 44.575-71.773 11.167-8.211 23.875-13.911 37.354-17.098 7.22-1.739 14.73-2.512 22.143-2.609 2.984-.096 5.872.097 8.857.387-7.799 1.159-15.597 2.801-23.106 5.119-34.851 10.433-60.459 39.22-71.531 73.32-6.546 19.126-8.953 39.412-9.049 59.795zm194.086-132.342c.193 2.125.096 4.251-.481 6.472-2.118 8.888-9.917 15.07-19.063 15.07-1.54 0-3.08-.193-4.62-.58-5.103-1.255-9.435-4.347-12.131-8.79-1.733-2.802-2.696-5.893-2.888-8.984-.096-1.932.096-3.864.481-5.796 1.733-7.341 7.413-12.848 14.538-14.586a17.581 17.581 0 0 1 4.524-.58c1.541 0 3.081.193 4.622.58 8.471 2.028 14.248 9.08 15.018 17.194zm-40.049 14.587c.385.579.77 1.256 1.251 1.835-19.351 25.213-42.938 49.652-74.13 59.023-.578-3.961-3.659-7.342-7.991-8.115-6.643-1.159-13.574 8.018-11.456 14.2 2.791 7.922 15.596 6.086 18.677-.676.577-1.256.77-2.511.866-3.767 8.087-2.029 15.789-4.734 23.202-8.694 7.317-3.961 14.056-8.598 20.602-13.621 12.805-9.949 23.587-22.024 33.599-34.679 2.6 2.318 5.681 4.057 9.146 5.12-3.369 7.438-5.295 15.649-8.279 23.28-3.466 8.501-8.472 15.843-13.96 23.088-10.493 13.91-23.009 24.343-38.99 31.394-7.606 3.285-15.596 5.796-23.491 8.018-8.087 2.319-16.078 4.83-24.261 6.666-10.301 2.318-20.698 4.057-30.133 8.404l-2.888 1.449c.962-3.864 2.022-7.728 2.984-11.496 2.118-8.017 4.717-15.842 7.991-23.473 6.065-14.297 14.344-27.531 24.549-39.123 10.494-11.978 23.395-21.638 37.451-29.077 15.981-8.404 34.658-15.166 52.854-15.649.385 2.029 1.251 4.057 2.407 5.893zm-75.864 65.784c-2.503 4.251-8.087 5.603-11.649 3.478-1.636-.966-2.888-2.705-3.177-5.217-.481-4.83 4.14-10.722 9.242-9.37 5.103 1.256 8.376 6.376 5.584 11.109zm105.13-102.975c-1.54 0-3.08-.193-4.621-.58-2.792-.676-5.295-1.932-7.509-3.574-5.873-4.637-8.857-12.365-7.028-20.093 1.348-5.506 4.91-10.046 9.531-12.654 2.792-1.546 6.065-2.415 9.531-2.415a18.9 18.9 0 0 1 4.621.58c5.103 1.255 9.435 4.347 12.131 8.79a20.095 20.095 0 0 1 2.406 14.876c-.288 1.16-.577 2.222-1.058 3.188-3.081 7.149-10.013 11.882-18.004 11.882zm2.696-43.663c-.866-.097-1.829-.193-2.696-.193-3.177 0-6.161.579-8.953 1.739-3.466-15.167-7.894-30.14-14.826-44.05-3.658-7.438-7.798-14.586-12.612-21.348-4.91-6.859-10.686-12.558-17.04-17.968.481-1.159.866-2.415.866-3.671.193-7.438-10.59-14.683-16.559-8.79-4.621 4.637-2.31 15.842 4.14 17.774 4.236 1.256 8.472-.483 10.687-3.767 23.779 21.735 34.369 53.419 40.916 84.138-1.637 1.159-3.178 2.415-4.525 3.961-16.944-7.342-31.867-20.866-43.708-34.97-10.205-12.171-18.485-26.081-23.587-41.151-5.006-14.683-7.702-30.042-7.895-45.595-.096-8.21.385-16.519 1.541-24.73.481-3.863.963-7.824 1.54-11.785.385.483.867.966 1.252 1.45 7.22 8.017 16.655 13.813 25.608 20.189 6.836 4.83 13.382 10.24 19.929 15.456 6.45 5.12 12.9 10.432 18.677 16.422 12.13 12.558 19.736 27.047 24.164 43.856 2.311 8.79 4.236 17.581 4.14 26.758 0 8.694-1.54 17.581-1.059 26.275zm-67.198-78.439c-5.199-1.063-6.836-8.307-4.237-12.461 1.348-2.222 3.177-3.188 5.103-3.381 4.14-.387 8.568 3.381 8.953 8.211.385 5.506-4.717 8.597-9.819 7.631zm-43.323-86.843c.866-2.125 1.732-4.25 2.695-6.375 3.466-8.115 7.317-16.133 11.264-24.054 1.926 3.381 4.044 6.665 6.162 9.757 5.006 7.438 10.782 14.586 17.233 20.769 11.552 11.302 25.127 20.286 38.509 29.173 13.285 8.887 26.475 18.064 37.065 30.139 11.745 13.427 17.907 29.269 20.795 46.754 3.947 23.474 3.755 48.976-4.814 71.484-.192-.29-.385-.676-.577-.966-3.37-5.506-8.665-9.37-14.923-10.916-.192-.097-.481-.097-.674-.097 2.407-17.581 2.792-36.031-1.829-53.226-4.236-15.842-10.782-30.332-21.95-42.504-11.842-12.848-26.186-24.053-40.531-34.1-9.339-6.568-19.929-12.364-27.823-20.672a32.172 32.172 0 0 1-2.407-2.705l-2.021-2.608c-.193.676-.482 1.353-.674 2.029-.482 1.352-.867 2.705-1.252 4.057-1.059 3.96-1.829 8.018-2.503 12.172-1.348 8.21-2.214 16.518-2.311 24.826-.288 16.035 1.83 32.167 7.125 47.333 5.583 15.939 14.152 30.912 25.223 43.663 12.323 14.104 26.764 27.821 44.093 35.453-.674 1.352-1.155 2.898-1.54 4.443-1.733 7.148 0 14.393 4.043 19.996-4.525-1.545-9.531-2.222-13.959-2.994-7.702-1.353-15.5-2.415-23.202-3.864-.867-.194-1.733-.387-2.599-.483-10.879-2.126-21.758-4.347-32.541-6.956-26.956-6.375-54.587-14.489-78.27-29.366-10.782-6.762-20.795-15.359-27.726-26.275-3.37-5.313-6.066-11.109-7.702-17.291-1.83-6.762-2.118-13.524-2.6-20.479 6.162-1.353 11.938-8.694 8.087-14.49-3.562-5.41-15.018-5.41-18.195.676-2.985 5.699.192 12.558 6.354 13.91.577.097 1.251.193 1.829.193-4.332 27.338 13.574 52.164 34.754 67.137a151.117 151.117 0 0 0 22.336 12.945c-.674-.194-1.348-.29-2.118-.483-12.708-3.092-25.127-6.859-37.547-11.109-24.261-8.308-47.173-21.929-64.888-40.669 3.081-2.994 4.718-7.438 2.215-11.302-3.563-5.41-15.019-5.41-18.196.676-2.985 5.7.192 12.558 6.354 13.91 2.792.677 5.969-.386 8.472-2.318 17.714 19.803 40.338 34.776 65.081 44.339 9.242 3.575 18.773 6.762 28.496 9.564-10.012-1.063-20.024-1.836-29.941-2.029-26.282-.579-52.661 4.54-76.344 15.939-4.044-4.733-14.634-4.444-17.618 1.256-2.984 5.699.193 12.558 6.354 13.91 7.028 1.546 15.885-7.052 12.227-13.91 23.298-10.24 49.292-14.007 74.611-12.461 13.093.772 25.994 2.028 38.895 4.057.577.096 1.059.193 1.636.289a154.642 154.642 0 0 0-25.031 3.478c-25.223 5.699-51.217 21.928-57.571 48.783-4.429-.676-9.435.773-11.264 4.443-2.984 5.7.193 12.558 6.354 13.911 7.22 1.642 16.463-7.632 11.842-14.587-1.059-1.642-2.888-2.801-5.007-3.381 2.889-6.086 5.777-11.978 9.82-17.388 3.851-5.023 8.569-9.37 13.671-13.041 10.494-7.438 23.009-11.592 35.621-13.717 27.534-4.733 56.127-1.642 83.565 2.705 10.975 1.739 21.854 3.864 32.733 5.989.866.193 1.733.387 2.696.58 7.701 1.545 15.307 3.574 22.913 5.216 4.909 1.159 10.493 2.512 15.788 2.608-6.354 3.092-11.167 8.888-12.9 16.133-.385 1.642-.578 3.381-.674 5.023-18.773.483-37.258 7.534-53.913 15.939-15.115 7.534-28.689 18.16-39.857 30.815-10.686 11.978-18.677 26.178-24.55 41.055-2.984 7.728-5.391 15.745-7.22 23.86-.867 4.057-1.733 8.114-2.215 12.171-.192 1.353-.288 2.802-.385 4.154 0 .676-.096 1.449-.096 2.125.963-.579 1.829-1.159 2.792-1.642 1.348-.773 2.792-1.352 4.236-2.028 10.205-4.251 21.758-5.603 32.54-8.115 17.041-3.767 34.562-8.694 50.351-16.132 14.922-6.955 26.475-17.871 36.391-30.912 10.494-13.717 17.041-30.332 21.469-47.044 1.541.29 2.985.387 4.525.387 5.873 0 11.36-2.126 15.5-5.7-1.155 23.184-10.494 45.788-22.528 65.398-9.338 15.07-20.987 27.434-36.969 35.259-14.344 7.148-30.133 10.529-45.729 13.717-15.789 3.188-31.674 6.279-46.693 12.268-8.376 3.381-16.366 7.728-23.876 12.655-3.08 2.125-6.257 4.25-9.434 6.665-.674-8.79-1.156-17.678-1.348-26.565 0-2.318-.096-4.636 0-6.955.096-17.678 1.733-35.259 6.546-52.357 4.814-17.484 12.708-34.389 24.839-48.106 12.419-14.007 28.978-25.213 47.077-30.333 13.094-3.67 27.053-6.279 41.109-6.858 3.562-.193 7.124-.193 10.686-.097-1.54-.579-3.177-1.062-4.813-1.642-1.637-.58-3.37-1.063-5.006-1.642-25.224-7.921-51.795-13.041-78.271-12.945-26.09 0-53.046 6.183-73.36 23.474-13.285 11.302-23.49 26.855-28.208 43.856-12.804 5.023-25.705 9.66-38.316 14.78.288-15.553-.482-31.685 3.369-46.851 1.541-6.279 4.14-12.268 7.51-17.967.673-1.16 1.347-2.319 2.118-3.381-2.6-.29-5.103-.58-7.702-1.063-2.792-.483-5.68-.966-8.472-1.642-7.991-1.739-15.79-4.057-23.49-6.569-6.547-2.222-13.383-4.443-19.64-7.631 5.583-11.109 13.189-20.576 23.009-28.304 10.108-8.018 21.95-13.234 33.791-18.354 1.156-.483 1.541-2.028 1.059-2.994.771-.677 1.06-2.222.193-3.092-8.953-9.273-17.907-18.547-24.261-29.849-6.161-10.916-9.627-22.604-10.59-34.969 6.932-.58 14.056 0 20.988.483 8.087.58 16.27 1.449 24.261 2.898 2.791.483 5.68 1.063 8.472 1.739 2.503.579 5.006 1.256 7.509 2.028-.289-1.352-.481-2.608-.674-3.96-.963-6.569-1.059-13.138-.096-19.513 2.214-15.456 9.049-30.043 14.633-44.533 9.724 9.564 19.929 18.74 29.845 28.207-2.022 17.485 1.444 35.839 9.531 51.295 12.227 23.667 34.851 39.702 58.919 49.652 24.453 10.143 50.928 15.553 77.307 17.871 1.733.193 3.562.29 5.295.386 1.733.097 3.37.194 5.007.29-3.274-1.256-6.547-2.608-9.82-4.154-1.444-.676-2.985-1.449-4.429-2.125-11.071-5.603-21.469-12.461-31-19.899-14.73-11.689-25.897-28.304-32.059-45.982-6.065-17.195-6.835-35.935-4.717-53.902 2.022-17.292 7.124-34.197 13.671-50.522zm-103.013 93.991c-5.487-.676-7.605-6.375-5.583-11.108 2.021-4.927 9.434-5.12 13.093-1.739 1.829 1.739 2.503 3.767 2.31 5.699-.577 4.057-5.006 7.728-9.82 7.148zm-55.26 31.299c-5.488-.676-7.606-6.376-5.584-11.109 2.021-4.927 9.531-5.12 13.093-1.739 1.829 1.739 2.503 3.767 2.31 5.699-.481 4.058-4.909 7.728-9.819 7.149zm-5.777 73.705c-.481 4.154-4.91 7.825-9.82 7.245-5.487-.676-7.605-6.375-5.583-11.109 2.021-4.926 9.434-5.12 13.093-1.739 1.829 1.643 2.503 3.671 2.31 5.603zm37.451 42.794c1.829 1.739 2.503 3.767 2.31 5.699-.481 4.154-4.91 7.825-9.724 7.245-5.487-.676-7.605-6.375-5.583-11.109 2.021-4.926 9.434-5.12 12.997-1.835zM328.58 211.65c.192 0 .289.096.481.096-.192 0-.385 0-.481-.096zM241.357 44.436c9.916-4.444 20.987-6.569 32.251-5.7 1.926.194 3.755.387 5.68.773-7.605 18.934-13.093 38.543-14.633 59.023-2.696 35.741 10.012 72.16 38.316 95.15a172.92 172.92 0 0 0 18.292 12.848 89.586 89.586 0 0 1-7.124-2.608c-6.835-2.898-13.382-6.472-19.447-10.819-11.264-8.018-20.891-18.258-28.016-30.043-15.114-24.923-19.254-54.868-14.055-83.365.192-.966-1.348-1.256-1.541-.29-5.969 29.173-1.925 60.375 14.056 85.78 7.606 12.172 17.618 22.798 29.46 30.912 4.236 2.898 8.857 5.603 13.67 8.115-4.621-1.643-9.145-3.575-13.574-5.7-10.783-5.216-21.18-11.495-30.23-19.513-18.581-16.518-29.844-38.736-30.518-63.852 0-1.063-1.541-.87-1.637.096-.385 25.213 10.975 48.397 29.46 65.205 9.049 8.211 19.35 15.166 30.422 20.576 5.68 2.705 11.456 5.12 17.425 7.148 1.252.483 2.6.87 3.947 1.353-4.428-.773-8.76-1.739-13.189-2.802-26.379-6.279-53.335-17.581-73.071-36.708-17.811-17.291-27.053-41.344-25.801-65.977.096-1.739.192-3.478.385-5.217.192-1.545.385-3.187.674-4.733 2.503-14.973 10.108-28.11 20.891-37.77 5.295-4.927 11.36-8.984 17.907-11.882zM107.826 57.09c-17.33 12.172-33.407 26.18-48.618 42.311-13.575 14.393-24.26 30.332-32.925 48.107-6.932 14.393-14.73 33.906-6.355 49.265 10.976 20.093 40.339 5.217 48.522-9.66 4.91-8.79 3.273-20.672-.096-29.752-1.444-3.961-3.659-8.115-6.547-11.496 12.708 3.961 20.892 18.934 21.47 31.975.48 11.592-5.296 22.218-13.768 29.753-14.922 13.234-45.633 19.706-58.438-.29-2.214-3.478-3.85-7.342-4.91-11.302-2.214-8.211-2.021-17.002-.866-25.31 3.177-21.348 13.575-40.571 26.764-57.863C44.67 99.981 58.149 87.809 72.59 77.28c11.168-7.825 22.913-14.684 35.236-20.19z" fill="#F5F5F5"/></svg>