<svg width="1440" height="574" fill="none" xmlns="http://www.w3.org/2000/svg"><path d="M1617.75 184.051c-14.55-13.409-37.87-15.946-53.25-2.416-11.42 10.026-15.27 25.851-11.66 40.348 4.81 19.086 24.52 29.113 36.54 43.005 11.42 13.288 18.99 29.113 24.88 45.543-3-3.745-6.73-7.007-11.3-9.906-23.08-14.496-55.41-4.228-72.96 14.375-9.5 10.027-15.03 23.194-14.55 37.207.72 18.966 11.66 36.603 29.69 43.368 2.65.967 5.53 1.571 8.3 1.691 2.4.121 4.69 0 7.09-.362.36-.121.72-.242.96-.362a26.293 26.293 0 0 1-7.21-3.987c-10.7-8.214-15.51-24.16-15.39-37.569.12-17.517 15.99-30.322 31.98-33.946 7.69-1.691 16.11-.362 21.64 5.557 7.45 7.973 7.09 20.657 5.16 30.684-2.28 11.839-7.21 23.073-12.5 33.704-5.29 10.63-11.18 21.14-18.03 30.804-25.72 35.879-59.86 65.958-97.61 88.79-17.19 5.919-34.98 10.026-53.13 12.08-20.43 2.295-48.08 2.416-62.87-14.617 3.85-3.745 7.33-7.852 10.58-12.201 8.17-11.355 13.22-24.281 15.63-37.932 12.5 11.96 25.12 23.677 37.14 35.999 1.56 1.571 3.97 1.087 4.81-.966 8.53-21.745 20.68-42.281 23.2-65.958.6-5.799.6-11.718.24-17.637 3.01.725 6.13 1.329 9.14 1.933a277.66 277.66 0 0 0 31.73 3.986c9.38.604 18.99.362 28.37 1.45 1.44.12 3.49-.604 3.61-2.416 1.44-17.396-3.97-34.912-12.38-50.133-8.06-14.617-18.88-28.51-33.06-37.449 16.59-2.778 31.73-11.476 44.84-21.986 13.46-10.872 25.12-25.006 30.41-41.556.6-1.691-.96-3.141-2.41-3.624-9.01-2.537-17.79-6.523-26.8-9.543-10.1-3.383-20.44-6.282-30.78-8.456-3-.604-6.13-1.209-9.25-1.692 2.64-5.315 4.81-10.751 6.49-16.429 6.73-22.952 3.13-46.509 3.49-69.944 0-2.175-2.05-3.624-3.97-2.779-15.75 6.886-31.98 12.805-47.96 19.087 2.88-13.409 3.12-27.422-.12-41.073-8.42-35.032-36.55-62.575-71.05-69.22-.24-12.442-1.08-24.885-2.28-37.206-.36-2.9-.6-5.92-.96-8.819-1.21.966-2.53 1.933-3.73 3.02-2.88 2.295-5.89 4.59-9.14 6.644a224.175 224.175 0 0 1-23.32 13.53c-12.74 6.282-26.32 10.63-40.15 14.013-38.34 9.181-80.53 13.288-111.19 41.073-16.71 15.221-28.61 35.757-37.14 56.535-8.06 19.449-15.27 41.919-12.74 63.301-3.13 3.624-5.41 7.972-6.5 12.805-.36 1.449-.6 2.899-.72 4.469-1.56-.845-3.12-1.57-4.68-2.295-10.22-4.832-21.28-9.181-32.1-13.167a711.978 711.978 0 0 0-35.22-12.081c36.66-2.053 71.76-29.113 87.75-61.005 9.38-18.603 12.62-41.072 6.97-61.367-5.05-17.879-18.87-31.892-35.1-39.865-14.06-7.006-30.05-9.18-44.96-5.557-2.88.725-5.77 1.691-8.65 2.779 2.04.12 4.09.362 6.13.724 7.81 1.209 15.03 3.624 22 8.094 9.01 5.799 15.87 14.496 20.79 23.919 10.1 18.845 11.3 43.126 5.05 63.3-6.25 20.295-21.03 36.966-38.82 47.838-10.58 6.403-22 10.631-34.38 11.114-7.46.362-14.91-.363-22.24-.121a328.128 328.128 0 0 0-30.655-6.161c-32.456-5.074-68.158-7.127-100.855-4.228-3.125.242-6.251.604-9.376.966.601-.483 1.322-.845 1.923-1.328 19.594-14.376 35.822-34.308 44.597-57.14 8.415-21.865 10.579-46.025 9.016-69.34-.962-14.497-3.606-28.993-8.535-42.764-.24-.604-.36-1.087-.601-1.691-.841.241-1.803.483-2.644.604-19.594 4.953-39.669 9.301-56.498 20.898-18.993 13.168-34.259 32.858-43.035 54.24-8.655 21.262-11.66 44.335-11.78 67.167-.12 12.321.841 24.522.601 36.844v.604c-.12 2.658-.24 5.315-.481 7.973-15.386 5.557-30.412 12.322-44.958 20.053 1.443-1.691 2.885-3.382 4.328-5.194 11.299-14.134 20.435-30.442 25.965-48.321 11.42-36.966 7.573-77.676-11.3-114.037-10.698-20.537-27.047-37.328-48.804-44.335-19.233-6.16-40.15-2.778-50.367 15.1-10.098 17.638-10.579 48.442 12.501 59.073 9.617 4.47 21.397 4.107 30.413 0 4.327-1.933 8.895-4.47 11.54-8.577.962-1.329 1.563-2.779 1.923-4.107.721-2.296.842-4.833 1.082-7.61-1.202.603-2.524 1.207-3.847 1.811-11.419 4.711-26.325 6.886-34.019-7.127-9.616-17.637 8.535-29.234 23.802-26.456 22.238 3.987 37.625 29.476 44.717 50.012 7.213 21.14 8.174 43.731 4.929 64.871-5.289 34.912-20.556 68.736-43.997 93.622-6.611 4.348-12.982 8.939-19.233 13.65-48.323 36.603-91.959 82.146-148.697 105.823-29.692 12.322-62.508 17.033-94.363 13.892-30.894-3.141-59.984-15.1-86.67-30.563-27.768-16.066-53.132-36.24-78.015-56.414-.601-.484-1.323-1.088-1.924-1.571.361.242.722.363 1.082.604 18.031 9.181 37.745 15.463 57.219 20.778 40.029 10.872 83.064 12.443 119.367-10.751 35.461-22.59 53.492-64.992 48.323-106.427-2.404-19.207-10.578-38.053-24.402-51.582-13.103-12.805-30.653-20.295-48.684-23.194-16.228-2.537-34.019-.604-48.324 7.852-15.266 9.06-23.801 24.764-26.325 42.16-2.885 20.174 3.967 41.314 18.993 55.206l.36.363c-1.202 3.503-1.322 7.127-2.284 10.63-1.082 3.866-3.245 7.611-5.409 10.993-3.967 6.04-9.136 10.993-14.906 15.221-11.9 8.456-26.205 12.685-40.63 14.013-16.589 1.571-33.178-1.208-49.165-5.315 5.289-.966 10.578-2.537 15.386-4.59 41.833-17.758 65.394-61.489 72.726-104.736 3.727-21.744 6.612-47.958 3.847-72.602-3.005-25.49-12.141-49.046-33.298-64.146C330.321 8.525 314.935 1.76 302.193.431c-39.188-4.107-90.517 21.382-90.878 64.992-.24 24.281 15.988 47.838 39.669 54.844 12.261 3.624 24.162 1.329 35.341-4.349 9.016-4.469 18.031-12.926 15.267-23.315-.241-.724-.481-1.57-.842-2.295 0-.12-.12-.241-.12-.241-.841 1.45-1.803 2.657-2.765 3.745-9.015 9.422-25.604 8.335-37.024 3.261-7.333-3.14-13.824-8.335-18.031-15.22-4.448-7.37-4.207-16.792-1.803-24.886 4.928-16.792 22.118-26.214 38.346-28.63 17.911-2.658 36.063 3.14 48.204 16.67 11.9 13.168 16.588 31.65 18.271 49.046 1.683 18.483.12 37.449-4.448 55.327-5.77 22.59-16.708 43.731-30.532 62.334-5.65 7.611-11.901 14.859-18.753 21.503 9.136-13.046 13.704-29.717 13.584-45.421-.121-19.208-10.819-39.503-25.845-51.1-15.266-11.838-37.144-12.684-52.771-.845-10.699 8.093-13.584 21.502-7.694 33.462 5.049 10.026 16.95 14.013 26.687 17.395 9.977 3.504 21.036 6.765 24.041 18.121 4.207 15.462-7.212 35.515-20.075 43.73-.48-.362-.961-.604-1.322-.966-.361-.242-.721-.363-1.082-.484-10.819-6.402-21.878-12.201-33.418-17.395-30.773-13.772-64.07-22.107-97.608-24.04-.121-.121-.361-.121-.481-.121-22.48-4.348-44.117-14.496-59.263-32.254-13.824-16.308-14.665-38.294-18.873-58.226-1.803-8.577-6.13-18-15.146-20.9C12.612 90.792 3.836 98.04-.37 106.98c-9.376 19.691 4.929 44.213 17.55 59.555a246.791 246.791 0 0 1-11.9-10.509c-14.665-14.255-26.806-31.53-32.937-51.221-6.01-19.086-7.814-46.146 8.174-60.884 10.939-10.026 32.456-10.872 34.62 7.37.48 3.865-.12 7.126-1.563 9.784C9.847 68.805.11 72.671-8.665 74.484c-1.443.24-2.765.482-4.208.724 1.683 2.054 3.246 3.745 5.17 5.194a12.33 12.33 0 0 0 3.966 2.054c4.568 1.691 9.737 1.208 14.425.362 9.737-1.69 19.594-7.61 25.003-16.066 12.863-20.053-5.168-42.885-23.44-50.858-18.512-7.973-37.625.483-49.886 15.221-13.824 16.67-17.671 37.811-14.786 58.71 1.082 7.852 2.885 15.463 5.29 22.952-4.449-7.852-8.536-15.945-12.623-24.04-10.097-20.415-18.752-43.246-33.658-60.642-10.218-10.51-23.921-24.04-38.827-25.852-16.709-1.932-17.911 14.98-15.868 27.664.361 1.933.722 3.745 1.082 5.436 3.246 13.047 9.617 25.61 16.349 37.207 8.294 14.134 18.391 27.302 29.691 39.14 22.479 23.315 51.57 40.469 81.742 51.703.36.121.6.121.961.121 6.25 6.644 13.103 12.685 20.676 18a149.416 149.416 0 0 0 26.446 14.738c-13.223-2.054-26.566-3.504-40.03-3.141-12.621.362-25.243 2.537-37.264 5.919-10.578 3.02-21.878 7.127-30.773 13.772-12.262 9.301-29.211 31.167-11.78 44.092 13.342 9.906 34.74.725 47.842-5.073.721-.363 1.443-.604 2.164-.967-17.67 11.839-34.26 25.248-50.007 39.261-14.665 13.047-28.369 27.06-41.471 41.798 7.212-14.014 13.102-28.751 17.43-43.731 11.059-38.173 9.256-79.608 3.846-118.628-6.731-48.32-25.123-117.903-67.436-149.432V28.7c5.409 4.59 10.338 9.906 14.905 15.463 24.523 30.684 36.183 71.394 43.275 109.447 7.093 37.931 10.338 79.004 3.006 117.178-8.415 43.488-30.894 83.957-61.186 116.09v10.269l1.803-2.175c1.803-2.174 3.606-4.228 5.409-6.281l6.852-9.061c5.65-6.523 10.939-13.288 15.867-20.536.481-.604.962-1.087 1.323-1.691 10.458-12.564 21.517-24.644 33.057-36.241 23.921-24.16 49.646-46.267 78.015-64.991 25.724-16.913 53.613-30.201 83.544-37.328.842-.242 1.683-.363 2.405-.604 33.658-7.611 68.759-7.49 102.417-.604 32.817 6.765 63.951 20.174 92.68 37.448 1.323.846 2.645 1.571 3.967 2.416 27.047 16.792 50.728 38.053 76.092 57.261 49.165 37.448 104.701 67.649 168.051 64.629 31.133-1.45 60.825-10.631 88.232-25.127 26.686-14.134 50.728-32.979 74.048-51.945 23.802-19.328 46.882-39.623 71.885-57.139 1.442-.967 2.885-1.933 4.327-3.02 25.124-17.034 52.772-29.959 81.501-39.503 5.53-1.812 11.059-3.382 16.709-4.832 2.885-.604 5.65-1.208 8.415-1.933 37.024-8.093 76.212-8.697 113.596-6.161a282.375 282.375 0 0 1 24.763 2.9c6.852 1.087 13.704 2.416 20.436 3.865 9.975 2.175 19.715 4.712 29.575 7.611 16.34 4.711 32.45 10.268 48.44 16.067 7.45 2.778 14.91 5.556 22.36 8.456 6.85 2.657 13.1 7.006 20.07 9.301 1.69 7.853 6.37 14.738 13.23 19.087-7.34 1.329-13.71 5.315-18.28 10.993-1.32-.725-2.76-1.329-4.2-2.053-3.37-1.571-6.49-3.504-9.98-4.833-7.33-2.899-14.67-5.798-22.12-8.577-16.35-6.16-32.82-11.959-49.64-17.033-16.95-5.073-34.023-9.422-51.454-12.321-31.133-5.195-65.874-7.128-97.368-4.349-7.693.725-15.387 1.691-23.08 3.02-32.216 5.436-63.47 16.308-92.68 31.167a379.986 379.986 0 0 0-56.498 35.516c-9.977 7.61-19.714 15.462-29.451 23.556-37.385 30.925-74.289 63.542-119.246 82.266a176.201 176.201 0 0 1-20.316 7.128c-23.921 6.885-49.285 9.181-74.048 6.644-30.893-3.141-59.983-15.101-86.67-30.563-6.972-4.108-13.824-8.336-20.555-12.805-1.443-1.329-2.885-2.537-4.448-3.866-8.054-6.765-16.949-13.288-26.325-18.483-9.016-7.006-17.911-14.134-26.687-21.261-7.933-6.523-16.108-12.684-24.522-18.603-18.873-13.409-38.707-25.127-59.984-34.671-59.383-26.576-127.66-32.858-189.688-11.717-11.66 3.986-22.84 8.818-33.779 14.496-29.45 15.1-56.377 35.636-80.78 57.502-17.43 15.583-33.658 32.495-48.804 50.133-11.42 13.288-21.637 27.542-31.494 41.918 0 0 0 .121-.121.121L-179 429.4v5.436a439.679 439.679 0 0 0 9.376-13.047l.12-.12c6.972-9.061 14.425-17.638 21.878-26.456 6.131-7.369 12.502-14.496 18.993-21.624 4.568-4.953 9.256-9.785 14.064-14.617 18.753-18.966 38.707-36.724 60.225-52.549 5.77-4.349 11.78-8.456 17.79-12.442 2.765-1.812 5.65-3.624 8.535-5.436.962 1.208 2.044 2.536 3.005 3.744.12.121.24.363.361.484 5.29 7.127 10.098 14.617 15.146 21.986l5.77 8.335c5.77 7.973 12.021 15.704 18.873 22.952-1.082-.12-2.164-.241-3.366-.241-12.862 0-24.282 8.214-28.49 20.536-2.644 7.611-2.043 15.825 1.443 23.073 1.803 3.624 4.208 6.886 7.213 9.423-7.694.362-14.666 3.624-19.834 8.939-3.126 3.141-5.53 7.128-7.093 11.476-4.688 13.651 1.082 28.51 12.863 35.637a26.83 26.83 0 0 0-6.251-.725c-4.448 0-8.655.967-12.502 2.779.24-.483.36-1.087.601-1.571 5.41-15.825-3.005-33.1-18.752-38.415-.842-.241-1.563-.483-2.405-.725-2.404-.604-4.808-.966-7.332-.966-12.862 0-24.402 8.215-28.49 20.536-2.644 7.611-2.043 15.825 1.443 23.074.721 1.449 1.563 2.899 2.524 4.228-3.125-1.088-6.37-1.571-9.737-1.571-3.966 0-7.813.725-11.299 2.175 1.563-2.296 2.885-4.832 3.726-7.49 4.929-14.617-1.803-30.442-15.266-36.966a103.1 103.1 0 0 0-3.486-1.449c-3.125-1.087-6.371-1.691-9.737-1.691-12.862 0-24.402 8.214-28.489 20.536-5.41 15.825 3.005 32.979 18.752 38.415 3.126 1.087 6.491 1.691 9.737 1.691 3.967 0 7.693-.725 11.3-2.174-1.563 2.295-2.885 4.711-3.847 7.49-4.929 16.308 3.486 33.583 19.233 39.019 3.126 1.087 6.491 1.691 9.737 1.691 2.765 0 5.41-.363 7.934-1.087 2.524-.725 5.049-1.812 7.212-3.141-1.442 2.174-2.524 4.47-3.365 6.886-5.41 15.825 3.005 32.979 18.752 38.415 3.125 1.087 6.37 1.691 9.737 1.691 6.491 0 12.501-2.054 17.55-5.678 5.049-3.624 8.895-8.698 10.94-14.858.6-1.571.96-3.262 1.201-4.833 1.924-11.597-3.125-23.194-12.502-29.717a32.025 32.025 0 0 0-7.573-3.866c-3.125-1.087-6.49-1.57-9.736-1.57-5.53 0-10.699 1.57-15.267 4.228 1.443-2.174 2.525-4.47 3.366-6.886a30.339 30.339 0 0 0-3.967-27.301c3.126 1.087 6.371 1.691 9.737 1.691 4.448 0 8.655-.966 12.502-2.778-.24.483-.361.966-.601 1.57-2.645 7.611-2.044 15.825 1.442 23.073a28.904 28.904 0 0 0 10.097 11.718c2.164 1.45 4.568 2.658 7.213 3.624 3.125 1.088 6.371 1.692 9.737 1.692 5.41 0 10.458-1.45 14.906-3.987 4.447-2.537 8.174-6.282 10.939-10.751.12.241.24.604.36.845 3.486 7.128 9.617 12.564 17.07 15.221.12 0 .12 0 .24.121 3.126 1.087 6.371 1.571 9.737 1.571 6.491 0 12.502-2.054 17.55-5.678 4.929-3.624 8.896-8.698 10.94-14.859 2.644-7.61 2.043-15.825-1.443-23.073-2.404-4.953-6.01-9.06-10.578-11.959 2.524.724 5.048.966 7.693.966 6.491 0 12.501-2.054 17.55-5.678 4.929-3.624 8.896-8.697 10.94-14.858 5.409-15.825-3.006-32.979-18.753-38.415-3.126-1.088-6.371-1.692-9.737-1.692-11.54 0-21.998 6.645-27.047 16.913a30.344 30.344 0 0 0-8.775-13.409c12.261-.604 22.96-8.698 26.926-20.416 2.044-5.919 2.044-11.959.602-17.637 1.322.846 2.524 1.691 3.846 2.537 19.474 12.322 43.275 19.328 66.355 18.966 19.954-.363 38.346-8.094 56.618-15.463.481-.242.962-.362 1.442-.604.842-.362 1.683-.604 2.525-.966-.12-.604-.361-1.208-.481-1.692-3.967-14.013-10.218-27.422-17.911-39.743-12.261-19.812-28.009-38.174-47.482-51.1-19.474-12.805-42.914-19.57-66.115-20.295 3.967-.483 7.934-.724 11.66-.966 10.579-.725 21.398-.242 31.976.966 21.036 2.537 40.029 10.873 57.099 23.436 20.555 15.1 37.144 36.12 47.001 59.676 9.136 22.228 12.862 51.341-5.77 69.945-3.847 3.865-8.775 6.765-14.185 8.577-6.13 2.174-12.862 3.02-18.992 2.778-2.885-.121-5.65-.725-8.175-1.57-1.322-.483-2.524-.967-3.726-1.571l.361 3.262c2.163 20.053 9.736 40.227 24.883 53.878 15.026 13.65 36.303 15.1 54.935 9.06 19.594-6.403 35.702-20.899 43.876-39.744 9.616-22.228 9.256-47.354 3.846-70.548-10.338-44.093-42.193-81.18-79.938-104.615a189.05 189.05 0 0 0-20.676-11.114c31.134 8.698 58.662 27.543 80.9 51.824 13.704 14.98 25.484 31.167 33.779 49.771 5.169 11.597 8.895 24.643 8.534 37.207-.36 9.302-2.885 18.362-8.895 26.455-.361.363-.24 1.208.24 1.45 14.425 12.443 35.221-.242 43.275-14.375 8.295-14.738 5.891-32.617.361-47.838-1.923-5.315-4.327-10.389-6.972-15.342 14.184 14.617 24.522 34.066 30.292 52.791 3.847 12.563 5.891 26.093 5.41 39.26a73.51 73.51 0 0 1-2.525 17.637l-.721 2.175c-7.212-1.329-13.944 4.107-14.184 11.476-.121 3.745 2.043 7.49 5.168 10.147-4.327-.604-8.414 1.208-11.059 4.47-.961-4.59-3.726-8.698-7.813-9.906-3.606-1.087-7.092-.362-9.857 1.329-1.443-5.074-4.087-9.664-9.376-11.597-5.53-2.053-11.54.604-16.229 3.624-14.184 8.94-20.195 27.06-17.069 43.127 3.246 16.67 16.108 32.495 31.254 39.864 14.425 7.007 31.134 7.248 46.4 3.141 15.988-4.349 30.774-13.65 41.833-25.972 12.982-14.617 18.392-32.859 19.954-52.187 2.765-34.187-10.338-66.924-31.134-93.38 34.019 18.966 70.803 31.409 110.712 30.925 13.103 4.108 26.205 7.973 38.827 13.409 15.146 6.645 28.009 16.309 38.827 28.751 10.819 12.322 19.234 26.818 24.643 42.281 6.01 16.671 6.972 33.825 6.251 51.341-.12 2.174 2.885 2.778 3.967 1.087 18.031-28.388 30.532-62.938 23.681-96.883-3.607-18.241-14.786-34.187-29.451-44.697 7.693 4.349 15.146 9.181 23.08 13.047 6.01 2.899 13.703 6.04 20.315 3.02 6.731-3.02 9.857-11.356 10.458-18.241 2.765-27.181-31.735-29.597-58.301-22.59 21.998-12.564 42.313-28.147 62.027-44.093-.36.483-.721.966-1.082 1.57 2.284-1.57 4.689-3.02 7.093-4.469 32.456-19.449 70.802-29.234 108.427-26.214 23.2 1.812 45.559 8.697 65.874 20.053 8.054 4.469 15.868 10.026 21.878 17.154-22.118 23.073-20.315 67.528 9.016 83.957 15.627 8.819 35.221 3.141 48.203-7.731 15.026-12.443 22.359-31.65 24.643-50.616 4.087-35.154-13.704-70.307-41.592-91.206-25.003-18.845-56.979-24.281-87.512-22.469-29.21 1.691-58.18 10.51-84.506 23.436 1.923-1.45 3.847-2.779 5.77-4.229 25.244-17.757 53.252-31.287 82.343-41.314.841 0 1.803-.121 2.644-.121 18.152-.483 36.423 1.812 54.214 5.195 40.27 7.61 77.775 34.066 96.287 71.031 17.43 34.912 17.55 79.971 0 114.883-8.295 16.671-21.397 30.201-38.467 37.811-18.752 8.336-41.832 7.611-59.984-1.691-3.846-1.933-7.332-4.228-10.578-7.006-2.404-2.054-4.568-4.349-6.371-6.886.601 2.416 1.322 4.711 1.923 7.127 3.847 14.497 7.934 28.751 17.791 40.59 14.666 17.395 37.866 26.335 59.864 28.63 42.313 4.349 82.467-16.55 106.027-51.341 41.11-60.522 29.93-154.264-24.53-202.948-18.508-16.55-41.348-29.234-64.067-39.26-10.458-4.591-21.157-8.577-32.096-11.597 33.779 4.107 66.115 14.738 94.963 33.099 30.65 19.57 58.06 49.892 60.95 87.824.24 2.657.24 5.315.12 7.852a99.135 99.135 0 0 1-.72 8.577c1.92-.967 3.6-2.175 5.29-3.504 8.65-7.127 13.94-18.361 16.1-29.596 4.45-23.073-4.93-43.851-19.71-61.247-5.65-6.644-12.02-12.563-18.87-17.879 6.97 2.417 13.82 4.953 20.67 7.49 7.46 2.779 14.91 5.678 22.24 8.577 5.05 2.054 9.86 4.953 14.79 7.248-.6 1.45-1.09 3.02-1.57 4.591-1.44 6.161-.96 12.442 1.33 18.12-11.54 19.208-13.47 43.61-13.47 65.596.12 22.59 3.25 46.025 12.98 66.562 17.8 37.328 55.3 57.26 87.28 80.454 11.54 8.335 22.47 17.516 31.85 28.268 5.89 6.765 11.54 13.892 16.47 21.382 2.16 3.14 4.09 6.402 5.89 9.543.84 1.329 1.56 2.778 2.4 4.228a154.09 154.09 0 0 0 4.21-7.852c5.77-10.993 11.3-22.107 16.23-33.462 18.15 3.624 36.9 1.329 53.61-5.92 7.33 10.752 19.72 18.604 31.38 23.436 15.02 6.161 30.89 8.819 47.12 9.302 15.87.483 31.73-1.45 47.24-4.832 19.11-4.108 37.87-10.873 55.78-19.57 2.04 8.577 12.74 14.858 20.43 17.637 14.43 5.074 31.5 3.865 46.52 2.657 7.33-.604 14.55-1.449 21.76-2.416 5.41-.724 10.82-2.174 16.35-2.778 4.09-.483 8.29-.483 12.5-.242v-7.127c-.48 0-.84-.121-1.32-.121-13.59-1.208-26.81.846-40.27 2.416-14.91 1.692-30.17 2.779-45.08.604-6.13-.845-12.38-2.295-17.67-5.557-3.37-2.053-5.05-5.073-6.61-8.214 9.49-4.832 18.63-10.268 27.53-16.188 4.44 3.624 14.9 3.262 19.11 3.262 10.22 0 20.31-2.174 30.41-3.382 10.1-1.208 19.96-1.088 29.93.724 1.32.242 2.65.484 3.85.846v-4.107c-7.21-2.779-14.79-4.47-22.84-4.47-9.62 0-19.11 1.57-28.61 2.416-7.69.604-16.47 1.329-24.28-.362 6.01-4.228 11.78-8.698 17.43-13.289 2.76-1.449 5.65-2.657 8.89-3.503 6.01-1.57 12.39-2.174 18.64-2.657 9.97-.725 20.67-1.45 30.77-.363v-5.557c-10.58-1.691-21.4-.966-31.98-.121-4.8.363-9.61.846-14.3 1.812.6-.483 1.08-.966 1.68-1.57 10.82-10.027 20.8-20.657 30.29-31.892 4.93-5.919 9.74-11.959 14.43-18.241v-5.436c-6.61 8.094-13.58 15.946-20.68 23.677-12.98 14.134-27.16 27.302-42.31 39.14-7.09 5.678-14.54 10.993-22.12 15.946-9.97 6.523-20.31 12.563-31.01 17.879-15.03 7.49-30.77 13.65-47 18.12-17.79 4.953-36.31 7.49-54.82 7.611-15.02.12-30.29-1.692-44.59-6.161-6.98-2.175-13.71-5.436-19.84-9.423-4.93-3.141-9.13-7.127-12.98-11.355 7.57-3.624 14.66-8.456 21.03-14.013 8.78 12.201 23.21 17.033 37.99 18.845 18.75 2.295 38.11-.604 56.5-4.47 7.93-1.691 15.63-3.745 23.32-6.04a243.01 243.01 0 0 0 32.21-12.563c22.6-10.873 43.04-25.731 61.79-42.16 7.69-6.765 15.03-13.893 22.12-21.382 6.97-7.369 13.82-14.98 20.44-22.469 6.85-7.853 13.58-15.826 20.19-23.678v-10.389c-2.16 2.296-4.33 4.591-6.61 6.765 2.28-3.624 4.45-7.369 6.61-11.114v-13.288c-.72.967-1.56 1.812-2.4 2.537.36-1.691.84-3.262 1.2-4.953.48-1.933.96-3.866 1.2-5.919v-27.664c-.36-2.295-.96-4.59-1.68-6.765-1.08-5.677-2.41-11.234-4.21-16.55-3.61-11.355-8.53-22.106-14.67-32.254-6.61-11.114-14.9-19.811-24.4-28.388-9.13-8.094-19.95-17.154-22.48-29.718-2.16-10.147 1.69-21.019 8.06-28.871 6.73-8.215 17.55-11.96 27.89-10.51 9.85 1.329 18.15 8.094 24.4 15.462a70.09 70.09 0 0 1 6.97 9.906v-14.375c-1.44-2.537-3.73-4.953-6.13-7.248zm-551.03 5.677c18.75-10.026 34.25-25.73 42.31-45.542 15.27-37.207 1.92-89.877-36.78-106.548-1.69-.724-3.37-1.328-5.17-1.932 30.89-2.175 63.71 18.966 69.48 50.374 8.53 46.751-27.53 90.843-69.84 105.219-2.53.845-5.05 1.57-7.7 2.295 2.65-1.329 5.17-2.537 7.7-3.866zM36.653 179.219a100.573 100.573 0 0 1-20.075-22.228C9.727 146.723 3.596 134.763 2.875 122.2c-.601-10.268 7.934-26.214 19.954-19.208 8.535 4.953 10.338 16.55 12.021 25.49 3.847 19.932 9.496 38.536 24.162 53.273 8.535 8.577 18.392 15.463 29.21 20.295-14.785-3.382-29.21-8.818-42.794-16.066-3.125-2.175-6.01-4.47-8.775-6.765zm-88.112-35.275c-9.978-6.04-19.714-12.684-28.73-20.053-18.392-14.979-34.259-33.341-47.482-53.032-5.53-8.094-10.098-17.154-13.584-26.335-1.683-4.349-3.606-9.664-4.327-14.98-.842-5.315-.601-10.63 1.803-15.1 8.535-15.583 28.489 2.416 36.423 9.785 17.55 16.43 27.648 38.899 38.106 60.04 11.3 22.831 23.56 44.937 39.188 64.749 1.923 2.779 3.967 5.436 6.13 8.094-9.376-3.866-18.752-7.852-27.527-13.168zm43.275 22.107c-6.492-6.161-12.382-12.926-17.43-20.415-6.492-9.423-11.781-19.812-15.507-30.805-7.093-20.657-10.459-44.213-1.443-64.75 5.049-11.718 13.704-21.986 25.244-27.664 13.102-6.402 27.287-2.536 38.226 6.282 6.13 4.953 10.578 11.114 12.261 18.845 1.923 8.336-1.683 15.705-6.852 22.107-4.327 5.315-12.381 8.094-18.752 9.302-3.246.604-6.251.483-8.896-.121 7.694-3.02 14.425-9.423 17.791-16.912 2.044-4.712 3.005-9.785 2.044-14.98C16.939 37.88 8.885 32.565.35 31.598c-9.737-1.087-20.315 4.712-26.686 11.718-13.343 14.859-12.14 39.02-7.693 57.14 4.568 18.966 15.146 36.24 27.888 50.736 13.704 15.584 30.653 28.51 48.925 38.174 3.606 2.295 7.333 4.59 11.059 6.523 4.087 2.175 8.414 4.47 12.982 6.524-7.573-1.329-15.146-3.262-22.479-5.678-19.593-6.161-37.625-16.671-52.53-30.684zm-36.303 76.83c-8.655 3.624-17.55 7.007-26.807 8.698-6.25 1.087-15.867 1.329-18.512-6.04-3.005-8.215 6.01-18.12 11.18-23.315 7.813-7.973 18.392-12.563 28.85-16.067 19.353-6.644 39.548-9.06 59.863-7.489 14.786 1.087 29.21 3.865 43.876 6.04 1.322.362 2.765.725 4.087.966-.841.242-1.803.483-2.644.725-15.267 4.953-31.014 7.973-46.16 12.926-18.753 6.161-35.582 16.067-53.733 23.556zm333.096 26.094c13.704 3.624 28.489 5.677 42.794 5.315 16.228-.483 32.697-5.074 46.04-14.376 11.179-7.731 23.32-22.59 24.282-37.327 14.665 8.335 33.418 8.214 46.881-2.9 9.977-8.335 16.348-22.831 11.3-35.516-.722-1.691-3.366-.845-3.006.846 1.924 11.597-3.966 21.986-12.381 29.355-8.775 7.731-20.075 9.06-31.014 5.919-20.916-6.04-32.937-28.509-33.057-49.287-.12-18.241 7.814-36.482 23.801-46.026 14.666-8.697 32.817-9.181 49.165-5.798 18.512 3.866 35.582 13.892 46.761 29.355 11.781 16.187 15.988 37.086 15.026 56.777-2.043 43.489-31.254 79.971-72.245 93.018-33.177 10.509-67.557 4.832-100.373-4.229-16.709-4.59-32.937-10.389-48.685-17.757-7.453-3.504-15.026-7.853-21.878-13.047h.361c5.169 2.537 10.939 4.349 16.228 5.678zm25.965-50.617c15.747-20.657 27.648-44.334 33.899-69.702 4.928-19.933 5.77-41.194 3.005-61.489-2.645-19.207-9.857-38.898-25.003-51.582-24.643-20.657-69.961-16.913-87.271 11.838-8.174 13.651-7.453 31.53 3.365 43.368 9.978 10.993 26.566 16.55 41.112 14.013 4.808-.845 9.015-2.899 12.381-5.919-2.284 5.678-8.415 9.544-14.184 11.96-7.934 3.261-16.83 4.107-25.244 2.536-17.551-3.261-30.533-17.878-35.341-34.307-2.404-8.215-2.404-17.033-.241-25.369 2.525-9.664 9.016-17.516 16.108-24.402C253.629 13.116 277.31 6.11 300.149 7.8c40.63 2.9 64.552 41.073 68.038 78.763 2.765 30.08.481 61.489-9.376 90.119-6.492 18.966-18.633 40.952-33.659 54.602-10.939 9.906-24.161 17.758-38.226 22.107-4.087 1.208-8.054 2.054-12.021 2.295 5.049-2.657 9.858-6.04 14.305-9.785 9.497-8.093 17.911-17.637 25.364-27.543zm-38.226-17.153c-3.727-15.705-22.239-19.45-35.221-23.919-6.852-2.295-13.343-5.557-16.709-12.322-4.327-8.456-.962-17.637 5.89-23.436 6.972-5.919 17.43-8.214 26.446-7.61 11.54.725 21.036 8.456 28.129 16.912 15.146 18.362 17.79 42.402 10.217 64.508-3.486 10.148-9.135 19.691-17.31 26.577-5.89 4.953-12.862 7.369-20.195 7.852 13.344-11.114 22.72-32.013 18.753-48.562zm478.428 1.328c10.939-21.14 18.271-45.18 19.954-69.944 1.323-20.416-.841-41.918-8.895-61.61-7.693-18.844-21.758-41.313-41.953-46.991-9.616-2.658-21.877-1.812-29.21 4.832-6.491 5.798-9.737 15.1-5.41 24.16 6.492 13.41 22.84 19.933 36.183 17.154-1.803 2.175-4.087 3.987-7.212 5.316-6.011 2.657-14.305 4.832-21.157 2.416-8.174-2.779-15.747-7.248-19.353-15.946-3.366-7.852-3.607-16.067-1.683-24.04 3.486-14.134 12.742-25.852 27.407-27.543 12.982-1.57 26.446 2.779 37.986 10.268 20.195 13.289 32.215 36.362 39.188 59.073 6.611 21.261 8.414 43.73 4.808 64.87-3.486 21.141-11.781 40.952-23.681 57.865-6.251 8.697-13.223 16.912-21.037 24.039-.12.121-.36.242-.48.363-.722.362-1.323.845-2.044 1.208 6.371-7.732 11.901-16.429 16.589-25.49zm64.071-111.38c8.174-21.744 22.479-40.83 40.75-55.206 15.507-12.2 34.38-18.483 53.132-23.798h.12c13.824 39.865 9.978 85.89-12.501 121.769-12.742 20.295-31.134 39.14-53.373 48.683-4.207 1.812-8.534 3.141-12.982 4.228a92.964 92.964 0 0 1-16.108 2.537c8.535-12.805 18.151-24.764 27.407-37.086 6.852-4.832 19.474-1.692 24.884 3.261.961.846 2.043-.483 1.202-1.449-5.049-5.316-13.824-8.819-21.638-8.094 3.005-3.986 5.77-8.094 8.535-12.322.24-.241.601-.483.721-.845 5.53-8.698 21.397-5.437 27.768.362.962.846 2.044-.604 1.202-1.45-5.649-5.919-16.108-9.664-24.282-7.61 3.366-7.007 6.852-15.1 12.742-18.845 6.732-4.228 15.026-3.624 21.277 1.087.842.604 1.803-.604.962-1.329-5.53-4.953-15.387-7.49-22.599-4.711 2.765-6.161 4.327-16.188 9.616-20.657 4.208-3.624 11.54-3.624 16.229-.846.721.362 1.202-.604.6-1.087-4.567-3.141-12.141-4.108-17.309-1.329 2.644-7.731 4.808-15.583 6.851-23.436.361-1.208-1.562-1.45-1.923-.362-2.164 7.852-4.688 15.583-7.573 23.073-2.164-4.953-7.814-8.94-12.862-9.785-.722-.12-1.082.967-.361 1.208 5.409 1.329 13.103 8.819 10.458 14.98-.12.241-.12.604-.12.845a253.22 253.22 0 0 1-7.453 16.43c-2.043-7.128-8.895-13.53-15.747-15.584-.962-.362-1.683 1.208-.601 1.57 19.954 7.732 11.54 24.886 3.005 37.811-1.563-8.214-8.775-16.187-16.228-19.086-1.082-.484-1.923 1.208-.842 1.691 7.694 3.745 16.829 17.154 11.06 25.61a1.307 1.307 0 0 0-.361.846c-3.246 4.469-6.732 8.818-10.218 13.167-1.562-8.335-8.775-16.188-16.228-19.087-1.082-.483-1.923 1.208-.841 1.691 6.972 3.383 15.146 14.738 12.261 23.194-9.857 11.718-19.955 23.436-27.768 36.483 0-10.389-.601-20.657-.601-30.926.12-22.106 1.923-44.817 9.737-65.595zM20.786 442.93c2.163 6.402 6.37 12.08 12.14 15.946a27.528 27.528 0 0 0-7.693-1.088c-10.698 0-20.435 5.678-25.844 14.738-.12-.241-.24-.604-.36-.845-2.525-5.316-6.492-9.544-11.42-12.564a26.83 26.83 0 0 0 6.25.725c5.77 0 11.3-1.691 15.988-4.591 4.688-3.02 8.535-7.248 10.939-12.321zm-159.396 28.751c-2.645 0-5.289-.484-7.934-1.329-12.742-4.349-19.594-18.362-15.266-31.167 3.366-9.906 12.742-16.671 23.2-16.671 2.644 0 5.289.483 7.934 1.329 12.742 4.349 19.594 18.362 15.266 31.167-3.486 9.906-12.742 16.671-23.2 16.671zm35.942 45.3c-2.644 0-5.289-.483-7.934-1.328-12.742-4.349-19.594-18.362-15.146-31.167 3.366-10.027 12.622-16.671 23.2-16.671 2.645 0 5.29.483 7.934 1.329 12.742 4.349 19.594 18.362 15.266 31.167-3.486 10.026-12.862 16.67-23.32 16.67zm40.39-6.402c2.645 0 5.29.483 7.934 1.329 12.742 4.349 19.594 18.362 15.266 31.167-3.366 10.026-12.622 16.67-23.2 16.67-2.645 0-5.29-.483-7.934-1.328-12.742-4.349-19.594-18.362-15.266-31.167 3.366-9.906 12.742-16.671 23.2-16.671zm-6.13-39.865c-2.645 0-5.29-.483-7.934-1.329-6.131-2.174-11.18-6.523-14.065-12.442-2.885-5.92-3.365-12.564-1.202-18.725 3.366-10.026 12.622-16.67 23.2-16.67 2.645 0 5.29.483 7.934 1.329 12.742 4.348 19.594 18.361 15.267 31.166-3.366 10.027-12.742 16.671-23.2 16.671zm63.59 22.228c-3.366 10.026-12.743 16.67-23.2 16.67-2.645 0-5.29-.483-7.934-1.328-6.251-2.175-11.18-6.524-14.065-12.443s-3.366-12.563-1.202-18.724c1.202-3.383 3.005-6.524 5.41-8.94 4.567-4.832 10.938-7.731 17.79-7.731 2.645 0 5.29.483 7.934 1.329 6.25 2.174 11.18 6.523 14.064 12.442a30.918 30.918 0 0 1 2.164 6.403c-.962 3.866-1.202 7.731-.721 11.597 0 .242-.12.483-.24.725zm52.05-15.704c2.885 5.919 3.365 12.563 1.202 18.845-3.366 9.905-12.742 16.67-23.2 16.67-2.645 0-5.29-.483-7.934-1.329-6.251-2.174-11.18-6.523-14.065-12.442a30.9 30.9 0 0 1-2.163-6.403c.961-3.865 1.202-7.731.72-11.597.121-.241.121-.483.241-.724 3.366-9.906 12.742-16.671 23.2-16.671 2.645 0 5.29.483 7.934 1.329 6.251 2.053 11.18 6.402 14.064 12.322zm-20.917-51.704c3.366-9.906 12.622-16.671 23.2-16.671 2.645 0 5.29.484 7.934 1.329 12.742 4.349 19.594 18.362 15.267 31.167-3.366 10.027-12.742 16.671-23.2 16.671-2.645 0-5.29-.483-7.934-1.329-12.742-4.349-19.594-18.362-15.267-31.167zm-8.054 5.436c-.12 2.175-.48 4.349-1.322 6.524-3.366 10.026-12.742 16.67-23.2 16.67-2.645 0-5.29-.483-7.934-1.329-12.742-4.348-19.594-18.361-15.266-31.166 3.366-9.906 12.622-16.671 23.2-16.671 2.644 0 5.29.483 7.934 1.329.12 0 .12 0 .24.12 10.578 3.625 16.95 13.772 16.348 24.523zm16.95-46.509c-3.366 10.027-12.742 16.671-23.2 16.671-2.645 0-5.29-.483-7.934-1.329-6.13-2.174-11.18-6.523-14.065-12.442-2.885-5.92-3.365-12.564-1.202-18.725 3.366-9.905 12.742-16.67 23.2-16.67 2.645 0 5.41.483 7.934 1.328 1.443.484 2.885 1.209 4.207 1.933 2.285 2.175 4.689 4.108 7.093 6.161 5.049 6.282 6.852 14.859 3.967 23.073zm53.132-103.769c39.067 15.946 68.879 51.221 80.659 91.689-.601.242-1.082.363-1.563.604-17.911 6.403-36.423 11.96-55.536 11.114-23.2-.966-45.799-8.094-65.032-21.02-4.688-3.14-9.136-6.644-13.343-10.268-12.382-10.872-22.96-24.039-32.577-37.328-6.01-8.335-11.42-17.154-17.43-25.489 13.944 5.919 28.85 9.544 43.756 13.409 7.212 5.074 7.212 19.087 3.486 25.973-.601 1.087.962 1.933 1.683.966 4.327-6.765 5.77-17.395 2.164-25.006a349.25 349.25 0 0 1 15.987 4.711c.24.242.481.363.842.484 9.616 3.503 9.977 19.69 5.89 27.301-.601 1.087.962 1.933 1.683.966 4.327-6.765 5.77-17.395 2.164-25.006 14.545 5.436 31.254 14.496 19.473 32.375-.6.967.722 1.812 1.443.967 4.327-5.557 6.25-14.859 3.726-21.866 5.29 2.779 10.579 5.92 15.627 9.061.121.241.361.362.601.604 5.77 3.503 3.847 14.013.121 18.241-.481.604.36 1.329.961.845 3.606-3.624 5.89-10.147 4.688-15.462 6.732 4.469 13.343 9.301 19.594 14.375.962.725 2.284-.604 1.323-1.329-6.131-5.315-12.622-10.268-19.234-15.1 5.77-.604 11.42-5.919 13.343-11.114.241-.725-.841-1.208-1.082-.483-2.283 4.953-8.174 9.302-13.703 8.819-6.852-.604-14.065-7.732-19.835-11.235 7.453-1.933 13.945-9.785 15.627-17.154.241-1.087-1.322-1.57-1.562-.483a18.98 18.98 0 0 1-16.71 13.409c-6.971.483-14.544-4.228-21.276-7.852 7.934-3.141 14.185-12.201 15.387-20.416.12-1.208-1.563-1.57-1.803-.362-1.924 8.335-12.863 20.295-22.36 16.429-.36-.121-.72-.242-1.081-.242a327.414 327.414 0 0 0-14.064-5.073c6.731-3.866 11.9-11.96 12.862-19.208.24-1.208-1.563-1.57-1.803-.362-1.683 7.248-10.098 17.154-18.392 17.274-14.665-4.59-29.451-8.697-43.756-14.134 8.535-5.073 18.031-9.301 27.648-11.476 23.32-5.798 49.165-1.208 71.404 7.852zm103.619 1.812c40.39 27.785 70.802 73.569 70.802 123.823 0 18.482-4.688 38.294-16.708 52.79-10.098 12.201-24.884 20.416-40.27 23.315-16.108 3.02-31.976-1.329-43.756-12.684-11.66-11.235-17.31-27.543-20.555-43.489 3.005.846 6.13 1.329 9.496 1.45 6.131.241 12.261-.967 18.031-3.02a51.828 51.828 0 0 0 3.847-1.571c7.934-3.503 13.223-9.181 18.632-15.825 15.026-18.12 8.415-46.871.481-66.441-9.136-22.469-24.643-42.402-42.794-58.227-9.857-8.698-20.435-16.187-32.336-21.623-9.256-4.228-19.113-6.282-29.21-7.49-3.847-.483-7.694-.966-11.781-1.208 5.65-.604 11.3-.967 16.95-1.208 12.261.362 24.402 1.691 36.543 4.47 22.358 4.832 43.635 14.013 62.628 26.938zm126.94 120.561c-3.847 15.583-21.157 32.979-37.505 24.16 5.89-8.214 8.294-17.274 8.534-26.576.361-11.597-2.524-23.677-6.25-35.033-3.126-9.664-8.415-18.845-13.464-27.543-5.529-9.422-11.66-18.362-18.872-26.455-14.185-16.067-31.134-30.201-50.007-40.469 15.026 6.282 29.692 13.771 43.636 22.228 13.944 8.335 27.046 17.999 39.789 27.905 11.059 11.114 20.074 24.281 27.046 38.415 6.371 13.167 10.699 28.751 7.093 43.368zm17.43 71.998c-.481-6.282 4.928-10.147 10.578-9.785.481 0 1.082.121 1.563.242 1.562.362 2.885 1.087 3.846 2.174 3.246 3.383 3.847 9.543 1.443 13.53-1.683 2.778-3.967 3.986-6.371 4.228-5.049.362-10.578-4.228-11.059-10.389zm3.726 12.201c6.491 1.329 8.535 10.389 5.289 15.584-1.683 2.778-3.967 3.986-6.371 4.228-5.169.362-10.698-4.228-11.179-10.269v-.483c.24-.966.361-2.053.361-3.02 1.562-4.711 6.731-7.127 11.9-6.04zm-20.676-5.798c4.568.966 6.852 5.677 6.852 10.268a10.605 10.605 0 0 0-.961 4.469c-.121.363-.361.604-.481.967-1.683 2.778-3.967 3.986-6.371 4.228-5.169.362-10.699-4.228-11.18-10.268-.24-2.9.722-5.316 2.525-7.007.481 0 1.082-.362 1.082-.966 2.284-1.691 5.409-2.416 8.534-1.691zm41.953-97.85c15.507 16.912 27.407 37.328 33.177 59.555 5.41 20.778 5.77 45.422-2.764 65.475-6.492 15.342-18.993 27.543-33.418 35.516-25.965 14.375-60.224 12.684-77.775-13.772-10.097-15.221-10.939-32.375-.841-47.716 3.606-5.557 9.496-10.752 16.228-11.597 6.731-.846 10.698 4.832 12.501 10.63-2.283 2.054-3.846 5.074-3.846 8.577-.241 9.302 13.223 18.362 20.676 10.993.24-.241.601-.604.841-.966 3.005 7.489 13.584 13.046 19.834 6.765 4.568-4.591 3.727-14.255-.721-19.329 3.246.725 6.612.242 9.256-2.416 4.688-4.711 3.727-14.858-1.202-19.811.12-.242.24-.604.24-.846 2.044-6.04 3.126-12.563 3.487-18.966.961-14.255-2.044-28.268-6.492-41.677-6.491-19.328-16.468-39.26-31.254-53.877a264.077 264.077 0 0 1 9.857 5.919c4.328 3.262 8.896 6.523 13.343 9.664a220.438 220.438 0 0 1 18.873 17.879zm254.24 78.521c5.53 27.543-3.847 57.864-16.348 82.871 0-6.161 0-12.443-.842-18.604-1.202-8.577-3.245-16.912-6.13-25.127-5.53-15.583-14.065-29.959-24.763-42.522-10.819-12.926-24.042-22.832-39.308-29.718-11.059-4.952-22.72-8.335-34.38-11.476 17.19-.845 34.019-4.107 50.247-9.302 33.899-5.677 64.913 20.658 71.524 53.878zm22.238-44.093c-6.13 13.289-28.489-4.107-35.822-8.335-7.813-4.59-18.151-10.993-28.128-11.597 25.243-10.993 78.976-12.563 63.95 19.932zm86.911-125.755c29.691-13.771 62.869-21.865 95.685-20.778 30.413.967 60.465 11.356 81.141 34.55 24.642 27.664 32.696 68.615 14.545 101.957-6.371 11.597-16.589 21.14-29.331 25.006-12.501 3.624-24.763.846-33.418-8.939-8.174-9.302-11.54-22.107-11.299-34.308.24-13.168 5.409-24.523 14.184-33.583 1.804-1.812 3.727-3.624 5.77-5.316-.961-1.328-1.923-2.536-2.885-3.744-4.688-5.437-10.578-10.148-16.468-13.893-19.594-12.442-42.073-20.415-65.033-23.314-37.985-4.712-78.495 3.503-112.154 22.59.361-.363.842-.725 1.202-1.088 6.972-5.798 13.944-11.597 21.037-17.395 11.54-8.456 24.162-15.704 37.024-21.745zm190.289-58.951c25.244 6.886 49.406 18.724 71.163 33.221 17.314 11.597 31.974 25.368 43.034 43.247 9.86 16.066 16.23 34.066 19.84 52.549 7.21 36.965 2.16 77.192-17.19 109.809-20.8 35.153-58.426 56.414-99.297 55.448-22.719-.604-45.679-9.423-61.426-26.335-8.535-9.181-12.141-20.657-15.386-32.254 21.877 17.999 58.901 17.999 82.582 3.986 32.938-19.449 46.16-61.005 46.401-97.487.12-42.401-19.234-82.508-52.892-108.239-16.348-12.442-36.423-23.073-56.618-27.543-12.261-2.657-24.642-4.59-37.144-5.677 12.622-2.899 25.484-5.074 38.587-6.403 12.742.604 25.724 2.175 38.346 5.678zm144.367 36.603c14.31 14.617 25.25 33.341 23.8 54.482-.6 8.214-3 16.67-7.57 23.556-.72 1.087-1.44 1.933-2.16 2.899-1.33-63.904-72.49-110.05-129.707-123.459-.361-.121-.721-.121-1.082-.242 10.338.846 20.435 2.174 30.533 3.866 16.468 2.778 32.576 6.765 48.566 11.597 13.82 7.006 26.56 16.066 37.62 27.301zm305.57-201.377c2.29.483 4.57 1.087 6.97 1.812 40.03 12.926 65.28 56.294 55.78 97.729-.48 1.933-.96 3.865-1.56 5.798-.6 2.175-1.32 4.228-2.05 6.282-10.21 28.993-32.21 52.428-61.06 63.904-31.86 12.805-68.4 12.926-101.82 7.611-4.81-.725-9.49-1.691-14.18-2.658.96 0 1.8.121 2.76.121 7.82.483 15.63.483 23.44 0a162.87 162.87 0 0 0 44.84-9.302c29.33-10.63 53.37-31.892 64.91-61.367.48-1.208-1.32-2.054-1.8-.967-12.62 28.751-36.18 49.046-65.39 59.314-14.19 4.953-29.21 7.248-44.12 8.094-6.13.362-12.26.362-18.39 0 6.73-.604 13.34-1.57 19.59-2.899 17.55-3.624 34.14-11.235 48.69-21.624 30.53-21.744 49.88-55.931 56.86-92.534.24-1.208-1.57-1.571-1.93-.363-7.45 35.395-26.44 68.133-55.65 89.756-13.95 10.268-29.82 17.396-46.65 21.382-9.01 2.175-18.39 3.141-27.64 3.262-3.73.121-7.34-.121-11.06-.483 9.73-1.45 19.47-3.504 28.85-6.403 43.51-13.046 75.49-49.045 89.31-91.689 8.18-23.918 11.18-49.287 11.3-74.776zm-242.34 165.499c-.24-2.658-.12-5.316.6-8.094 2.65-11.114 12.38-18.845 23.8-18.845 1.93 0 3.85.241 5.77.725 6.38 1.57 11.78 5.436 15.15 10.993 2.16 3.503 3.37 7.369 3.61 11.234.12 2.416-.12 4.832-.6 7.248-2.17 9.181-9.26 16.067-18.16 18.242-1.8.483-3.72.724-5.65.724-1.92 0-3.84-.241-5.77-.724-10.57-2.537-17.79-11.356-18.75-21.503zm50.01-18.241c-.48-.725-.96-1.571-1.56-2.296 24.16-31.529 53.61-62.092 92.56-73.81.72 4.953 4.56 9.181 9.97 10.148 8.3 1.449 16.95-10.027 14.31-17.758-3.49-9.906-19.48-7.611-23.32.845-.72 1.571-.96 3.141-1.08 4.712-10.1 2.536-19.72 5.919-28.97 10.872-9.14 4.953-17.55 10.751-25.73 17.033-15.99 12.443-29.45 27.543-41.95 43.368-3.25-2.899-7.09-5.074-11.42-6.403 4.21-9.301 6.61-19.57 10.34-29.113 4.32-10.631 10.58-19.811 17.43-28.872 13.1-17.395 28.73-30.442 48.68-39.26 9.5-4.108 19.48-7.248 29.33-10.027 10.1-2.9 20.08-6.04 30.29-8.335 12.87-2.9 25.85-5.074 37.63-10.51 1.2-.604 2.4-1.208 3.61-1.812-1.21 4.832-2.53 9.664-3.73 14.375-2.65 10.027-5.89 19.812-9.98 29.355-7.57 17.879-17.91 34.429-30.65 48.925-13.1 14.98-29.21 27.06-46.76 36.362-19.96 10.509-43.28 18.966-66 19.57-.48-2.537-1.56-5.074-3-7.369zm94.72-82.267c3.13-5.315 10.1-7.006 14.55-4.349 2.04 1.209 3.6 3.383 3.96 6.524.61 6.04-5.16 13.409-11.54 11.718-6.37-1.571-10.45-7.973-6.97-13.893zM1136.08 262.33c1.92 0 3.84.242 5.77.725 3.48.846 6.61 2.416 9.37 4.47 7.33 5.798 11.06 15.463 8.78 25.127-1.69 6.886-6.13 12.563-11.9 15.825-3.49 1.933-7.58 3.02-11.9 3.02-1.93 0-3.85-.242-5.77-.725-6.38-1.57-11.78-5.436-15.15-10.993-3.37-5.557-4.45-12.201-3.01-18.603.37-1.45.73-2.779 1.33-3.987 3.84-8.939 12.5-14.859 22.48-14.859zm-3.37 54.603c1.08.121 2.28.242 3.37.242 3.96 0 7.69-.725 11.18-2.175 4.32 18.966 9.85 37.69 18.51 55.086 4.57 9.302 9.73 18.241 15.74 26.697 6.14 8.577 13.35 15.705 21.28 22.469-.6 1.45-1.08 3.021-1.08 4.591-.24 9.302 13.22 18.362 20.68 10.993 5.77-5.799 2.88-19.812-5.17-22.228-5.29-1.57-10.58.604-13.35 4.712-29.69-27.181-42.91-66.804-51.09-105.219 2.05-1.45 3.97-3.02 5.65-4.953 21.16 9.181 39.79 26.093 54.58 43.73 12.74 15.222 23.08 32.617 29.45 51.462 6.25 18.362 9.62 37.57 9.86 57.019.12 10.268-.48 20.657-1.93 30.925-.6 4.832-1.2 9.785-1.92 14.738-.48-.604-1.08-1.208-1.56-1.812-9.02-10.027-20.8-17.275-31.98-25.248-8.53-6.04-16.71-12.805-24.88-19.328-8.05-6.403-16.11-13.047-23.32-20.536-15.15-15.705-24.64-33.825-30.17-54.845-2.89-10.993-5.29-21.986-5.17-33.462 0-10.872 1.92-21.986 1.32-32.858zm83.9 98.091c6.5 1.329 8.54 10.389 5.29 15.584-1.68 2.778-3.96 3.986-6.37 4.228-5.17.483-10.7-4.228-11.18-10.268-.48-6.886 5.89-10.752 12.26-9.544zm54.1 108.602c-1.08 2.657-2.17 5.315-3.37 7.973-4.32 10.147-9.13 20.173-14.06 30.079-2.41-4.228-5.05-8.335-7.69-12.201-6.26-9.302-13.47-18.241-21.52-25.972-14.43-14.134-31.38-25.369-48.09-36.483-16.58-11.113-33.05-22.59-46.28-37.69-14.66-16.791-22.35-36.603-25.96-58.468-4.93-29.355-4.69-61.247 6.01-89.394.24.363.48.846.72 1.208 4.21 6.886 10.82 11.718 18.63 13.651.24.121.6.121.85.121-3.01 21.986-3.49 45.059 2.28 66.562 5.29 19.811 13.46 37.932 27.41 53.153 14.78 16.066 32.69 30.08 50.6 42.643 11.66 8.214 24.89 15.463 34.74 25.852a38.516 38.516 0 0 1 3.01 3.382l2.52 3.262c.24-.846.6-1.692.85-2.537.6-1.691 1.08-3.383 1.56-5.074 1.32-4.953 2.28-10.026 3.12-15.221 1.69-10.268 2.77-20.657 2.89-31.046.36-20.053-2.29-40.227-8.9-59.193-6.97-19.932-17.67-38.657-31.49-54.603-15.39-17.637-33.42-34.791-55.06-44.334.84-1.691 1.45-3.624 1.93-5.557 2.16-8.939 0-17.999-5.05-25.006 5.65 1.933 11.9 2.778 17.43 3.745 9.61 1.691 19.35 3.02 28.97 4.832 1.08.242 2.16.483 3.24.604 13.59 2.658 27.17 5.436 40.63 8.698 33.66 7.973 68.16 18.12 97.73 36.724 13.47 8.456 25.97 19.207 34.62 32.858 4.21 6.644 7.58 13.892 9.62 21.623 2.28 8.456 2.64 16.913 3.25 25.61-7.7 1.692-14.91 10.873-10.1 18.121 4.45 6.765 18.75 6.765 22.72-.846 3.72-7.127-.24-15.704-7.94-17.395-.72-.121-1.56-.242-2.28-.242 5.41-34.187-16.95-65.233-43.4-83.958a188.65 188.65 0 0 0-27.88-16.187c.84.242 1.68.362 2.64.604 15.87 3.866 31.37 8.577 46.88 13.892 30.29 10.389 58.9 27.422 81.02 50.858-3.84 3.745-5.89 9.302-2.76 14.134 4.44 6.765 18.75 6.765 22.72-.846 3.72-7.127-.24-15.704-7.94-17.395-3.48-.846-7.45.483-10.58 2.899-22.11-24.765-50.36-43.489-81.26-55.448-11.54-4.47-23.44-8.456-35.58-11.96 12.5 1.329 25.01 2.296 37.39 2.537 32.81.725 65.75-5.678 95.32-19.932 5.05 5.919 18.27 5.557 22-1.571 3.73-7.127-.24-15.704-7.93-17.395-8.78-1.933-19.84 8.818-15.27 17.395-29.09 12.805-61.55 17.517-93.16 15.584-16.35-.967-32.46-2.537-48.57-5.074-.72-.121-1.32-.241-2.04-.362a192.864 192.864 0 0 0 31.26-4.349c31.49-7.127 63.95-27.422 71.88-61.005 5.53.845 11.78-.967 14.06-5.557 3.73-7.127-.24-15.704-7.93-17.396-9.02-2.053-20.56 9.544-14.79 18.242 1.33 2.053 3.61 3.503 6.26 4.228-3.61 7.61-7.22 14.979-12.27 21.744-4.8 6.282-10.69 11.718-17.07 16.308-13.1 9.302-28.73 14.497-44.47 17.154-34.38 5.92-70.08 2.054-104.34-3.382-13.71-2.175-27.29-4.832-40.87-7.49-1.09-.242-2.17-.483-3.37-.725-9.62-1.933-19.11-4.469-28.61-6.523-6.13-1.45-13.1-3.141-19.71-3.262 7.93-3.865 13.94-11.114 16.1-20.174.49-2.053.73-4.228.85-6.281 23.44-.604 46.52-9.423 67.31-19.933 18.88-9.422 35.82-22.711 49.77-38.536 13.34-14.979 23.32-32.737 30.65-51.341 3.73-9.664 6.73-19.69 9.02-29.838 1.08-5.073 2.16-10.147 2.76-15.22.24-1.692.36-3.504.48-5.195 0-.846.12-1.812.12-2.658-1.2.725-2.28 1.45-3.48 2.054-1.69.966-3.49 1.69-5.29 2.537-12.74 5.315-27.17 7.006-40.63 10.147-21.28 4.711-43.16 10.872-62.87 20.174-18.63 8.698-33.06 22.348-45.44 38.657-13.1 17.153-21.28 37.931-26.81 58.83-1.92-.362-3.72-.483-5.65-.483-7.33 0-14.18 2.658-19.35 7.127 1.44-28.992 13.1-57.26 28.13-81.783 11.66-18.845 26.2-34.308 46.16-44.093 17.91-8.939 37.62-13.167 57.1-17.153 19.71-3.987 39.55-7.853 58.3-15.342 10.46-4.228 20.43-9.665 29.81-15.825 3.85-2.658 7.81-5.316 11.78-8.336.84 10.993 1.44 22.107 1.68 33.22 0 2.9.12 5.8 0 8.699-.12 22.106-2.16 44.092-8.17 65.474-6.01 21.866-15.87 43.006-31.01 60.16-15.51 17.516-36.19 31.529-58.79 37.932-16.34 4.59-33.77 7.852-51.32 8.577-4.45.241-8.9.241-13.35.12 1.93.725 3.97 1.329 6.01 2.054 2.05.725 4.21 1.329 6.25 2.054 31.5 9.906 64.68 16.308 97.73 16.187 32.58 0 66.24-7.731 91.6-29.355 16.59-14.134 29.33-33.583 35.22-54.844 15.99-6.282 32.1-12.08 47.85-18.483-.37 19.45.6 39.624-4.21 58.589-1.93 7.853-5.17 15.342-9.38 22.47-.84 1.449-1.68 2.899-2.64 4.228 3.24.362 6.37.725 9.61 1.329 3.49.604 7.1 1.208 10.58 2.053 9.98 2.175 19.72 5.074 29.33 8.215 8.18 2.778 16.71 5.557 24.53 9.543-6.98 13.892-16.47 25.731-28.73 35.395-12.63 10.027-27.41 16.55-42.2 22.953-1.44.604-1.92 2.536-1.32 3.744-.96.846-1.32 2.779-.24 3.866 11.18 11.597 22.36 23.194 30.29 37.328 7.7 13.651 12.02 28.268 13.22 43.73-8.65.725-17.55 0-26.2-.604-10.1-.724-20.32-1.812-30.29-3.624-3.49-.604-7.1-1.329-10.58-2.174-3.13-.725-6.25-1.571-9.38-2.537.36 1.691.6 3.262.84 4.953 1.21 8.214 1.33 16.429.12 24.402-2.76 19.328-11.3 37.569-18.27 55.69-12.14-11.96-24.88-23.436-37.26-35.275 2.52-21.865-1.8-44.817-11.9-64.145-15.27-29.597-43.52-49.65-73.57-62.093-30.53-12.684-63.59-19.449-96.53-22.348-2.16-.242-4.44-.363-6.61-.483-2.16-.121-4.21-.242-6.25-.363 4.09 1.571 8.18 3.262 12.26 5.195 1.81.845 3.73 1.812 5.53 2.657 13.83 7.007 26.81 15.584 38.71 24.886 18.39 14.617 32.33 35.395 40.03 57.501 7.57 21.503 8.53 44.939 5.89 67.408-2.53 21.624-8.9 42.764-17.07 63.18zm128.62-117.541c6.85.846 9.5 7.973 6.97 13.892-2.52 6.161-11.78 6.403-16.34 2.175-2.29-2.175-3.13-4.712-2.89-7.128.72-5.073 6.25-9.664 12.26-8.939zm69-39.14c6.85.846 9.5 7.973 6.97 13.892-2.52 6.161-11.9 6.403-16.35 2.175-2.28-2.175-3.12-4.711-2.88-7.128.6-5.073 6.13-9.664 12.26-8.939zm7.21-92.172c.6-5.194 6.13-9.785 12.26-9.06 6.86.846 9.5 7.973 6.98 13.892-2.53 6.161-11.78 6.403-16.35 2.175-2.29-2.054-3.13-4.591-2.89-7.007zm-46.76-53.515c-2.28-2.175-3.12-4.712-2.88-7.128.6-5.194 6.13-9.785 12.14-9.06 6.85.846 9.49 7.973 6.97 13.892-2.52 6.161-11.78 6.403-16.23 2.296zm-215.05 88.065c-.24 0-.36-.121-.6-.121.24 0 .48 0 .6.121zm108.91 209.108c-12.38 5.557-26.21 8.215-40.27 7.127-2.41-.241-4.69-.483-7.09-.966 9.49-23.677 16.34-48.2 18.27-73.81 3.36-44.697-12.5-90.239-47.84-118.99-7.22-5.799-14.91-11.235-22.84-16.067 3 .966 6.01 2.054 8.89 3.262 8.54 3.624 16.71 8.093 24.28 13.53 14.07 10.026 26.09 22.831 34.98 37.569 18.88 31.167 24.05 68.616 17.55 104.252-.24 1.208 1.69 1.571 1.93.363 7.45-36.483 2.4-75.502-17.55-107.273-9.5-15.221-22-28.509-36.79-38.656-5.29-3.624-11.06-7.007-17.07-10.148 5.77 2.054 11.42 4.47 16.95 7.128 13.47 6.523 26.45 14.375 37.75 24.402 23.2 20.657 37.26 48.441 38.1 79.85 0 1.329 1.93 1.087 2.05-.121.48-31.529-13.71-60.522-36.79-81.541-11.3-10.269-24.16-18.966-37.98-25.731-7.09-3.383-14.31-6.403-21.76-8.94-1.56-.604-3.24-1.087-4.93-1.691 5.53.967 10.94 2.175 16.47 3.503 32.94 7.853 66.6 21.986 91.24 45.905 22.24 21.624 33.78 51.704 32.21 82.508-.12 2.175-.24 4.349-.48 6.523-.24 1.933-.48 3.987-.84 5.92-3.12 18.724-12.62 35.153-26.08 47.233-6.61 6.161-14.19 11.235-22.36 14.859zm166.73-15.825c21.63-15.221 41.71-32.737 60.7-52.911 16.95-18 30.29-37.932 41.11-60.16 8.66-17.999 18.4-42.401 7.94-61.609-13.71-25.127-50.37-6.523-60.59 12.08-6.13 10.993-4.08 25.852.12 37.207 1.81 4.953 4.57 10.148 8.18 14.376-15.87-4.953-26.09-23.677-26.81-39.986-.6-14.496 6.61-27.784 17.19-37.207 18.63-16.55 56.98-24.643 72.97.363 2.76 4.348 4.8 9.181 6.13 14.133 2.76 10.269 2.52 21.262 1.08 31.651-3.97 26.697-16.95 50.737-33.42 72.36-15.75 16.067-32.58 31.288-50.61 44.455-13.94 9.785-28.61 18.362-43.99 25.248z" fill="#FFEED5"/></svg>