<svg width="22" height="27" fill="none" xmlns="http://www.w3.org/2000/svg"><path d="M21.605 23.34L20.06 5.93a.744.744 0 0 0-.74-.68h-3.18A5.338 5.338 0 0 0 10.806 0a5.338 5.338 0 0 0-5.334 5.25h-3.18a.74.74 0 0 0-.74.68L.006 23.34c0 .021-.006.043-.006.066C0 25.387 1.817 27 4.053 27h13.505c2.236 0 4.053-1.612 4.053-3.595 0-.022 0-.044-.006-.066zm-10.8-21.85a3.847 3.847 0 0 1 3.844 3.76H6.963a3.847 3.847 0 0 1 3.843-3.76zm6.753 24.02H4.053c-1.403 0-2.54-.928-2.562-2.071L2.97 6.747h2.495v2.264c0 .414.332.745.746.745a.742.742 0 0 0 .745-.745V6.747h7.692v2.264c0 .414.33.745.745.745a.742.742 0 0 0 .745-.745V6.747h2.496L20.12 23.44c-.022 1.143-1.165 2.07-2.562 2.07z" fill="#fff"/></svg>