<svg width="124" height="180" fill="none" xmlns="http://www.w3.org/2000/svg"><path d="M116.963 97.93c-3.889-7.518-9.369-14.245-15.951-19.605a48.854 48.854 0 0 0 9.897-29.478C110.909 21.913 88.996 0 62.062 0 35.127 0 13.214 21.913 13.214 48.847a48.856 48.856 0 0 0 9.897 29.478c-6.582 5.36-12.063 12.087-15.95 19.606C2.665 106.62.29 116.417.29 126.263c0 10.981 2.92 21.765 8.442 31.188a62.135 62.135 0 0 0 22.171 22.156c.44.257.941.393 1.451.393H91.77c.51 0 1.01-.136 1.451-.393a62.143 62.143 0 0 0 22.171-22.156c5.523-9.423 8.442-20.207 8.442-31.188-.001-9.846-2.376-19.644-6.87-28.332z" fill="#fff"/><path opacity=".5" d="M116.963 97.93c-3.889-7.518-9.369-14.245-15.951-19.605a48.854 48.854 0 0 0 9.897-29.478C110.909 21.913 88.996 0 62.062 0 35.127 0 13.214 21.913 13.214 48.847a48.856 48.856 0 0 0 9.897 29.478c-6.582 5.36-12.063 12.087-15.95 19.606C2.665 106.62.29 116.417.29 126.263c0 10.981 2.92 21.765 8.442 31.188a62.135 62.135 0 0 0 22.171 22.156c.44.257.941.393 1.451.393H91.77c.51 0 1.01-.136 1.451-.393a62.143 62.143 0 0 0 22.171-22.156c5.523-9.423 8.442-20.207 8.442-31.188-.001-9.846-2.376-19.644-6.87-28.332zm-25.984 76.325H33.144c-16.741-10.112-27.108-28.429-27.108-47.992 0-17.738 8.542-34.616 22.852-45.148a2.872 2.872 0 0 0 .475-4.186 43.095 43.095 0 0 1-10.404-28.082c0-23.767 19.336-43.102 43.103-43.102 23.767 0 43.102 19.335 43.102 43.102A43.098 43.098 0 0 1 94.76 76.93a2.873 2.873 0 0 0 .475 4.186c14.309 10.532 22.852 27.41 22.852 45.148.001 19.563-10.367 37.88-27.108 47.992z" fill="gold"/></svg>