<svg width="138" height="201" fill="none" xmlns="http://www.w3.org/2000/svg"><path d="M130.284 109.356c-4.343-8.396-10.462-15.907-17.812-21.893a54.552 54.552 0 0 0 11.051-32.917C123.523 24.47 99.054 0 68.977 0 38.9 0 14.431 24.47 14.431 54.546a54.557 54.557 0 0 0 11.051 32.917c-7.35 5.986-13.47 13.497-17.811 21.893C2.652 119.059 0 129.999 0 140.994c0 12.262 3.26 24.304 9.427 34.826a69.384 69.384 0 0 0 24.758 24.741c.49.288 1.05.439 1.62.439h66.345c.57 0 1.129-.151 1.621-.439a69.382 69.382 0 0 0 24.757-24.741c6.167-10.522 9.427-22.564 9.427-34.826-.001-10.995-2.653-21.936-7.671-31.638z" fill="#fff"/><path opacity=".5" d="M130.284 109.356c-4.343-8.396-10.462-15.907-17.812-21.893a54.552 54.552 0 0 0 11.051-32.917C123.523 24.47 99.054 0 68.977 0 38.9 0 14.431 24.47 14.431 54.546a54.557 54.557 0 0 0 11.051 32.917c-7.35 5.986-13.47 13.497-17.811 21.893C2.652 119.059 0 129.999 0 140.994c0 12.262 3.26 24.304 9.427 34.826a69.384 69.384 0 0 0 24.758 24.741c.49.288 1.05.439 1.62.439h66.345c.57 0 1.129-.151 1.621-.439a69.382 69.382 0 0 0 24.757-24.741c6.167-10.522 9.427-22.564 9.427-34.826-.001-10.995-2.653-21.936-7.671-31.638zm-29.015 85.229H36.686c-18.694-11.292-30.271-31.746-30.271-53.591 0-19.807 9.54-38.655 25.518-50.416a3.207 3.207 0 0 0 .53-4.674 48.123 48.123 0 0 1-11.618-31.358c0-26.54 21.593-48.131 48.132-48.131 26.54 0 48.132 21.592 48.132 48.131a48.121 48.121 0 0 1-11.619 31.358 3.206 3.206 0 0 0 .531 4.674c15.979 11.761 25.518 30.608 25.518 50.416.001 21.845-11.576 42.299-30.27 53.591z" fill="#DC143C"/></svg>