<svg width="111" height="160" fill="none" xmlns="http://www.w3.org/2000/svg"><path d="M104 87.05a55.434 55.434 0 0 0-14.179-17.428 43.428 43.428 0 0 0 8.797-26.202C98.618 19.478 79.14 0 55.198 0s-43.42 19.478-43.42 43.42a43.428 43.428 0 0 0 8.797 26.202A55.418 55.418 0 0 0 6.397 87.05C2.402 94.773.29 103.482.29 112.234a54.86 54.86 0 0 0 7.504 27.722 55.223 55.223 0 0 0 19.708 19.694c.39.229.836.35 1.29.35h52.812c.453 0 .898-.121 1.29-.35a55.224 55.224 0 0 0 19.707-19.694 54.86 54.86 0 0 0 7.504-27.722c-.001-8.752-2.112-17.461-6.106-25.184z" fill="#fff"/><path opacity=".5" d="M104 87.05a55.434 55.434 0 0 0-14.179-17.428 43.428 43.428 0 0 0 8.797-26.202C98.618 19.478 79.14 0 55.198 0s-43.42 19.478-43.42 43.42a43.428 43.428 0 0 0 8.797 26.202A55.418 55.418 0 0 0 6.397 87.05C2.402 94.773.29 103.482.29 112.234a54.86 54.86 0 0 0 7.504 27.722 55.223 55.223 0 0 0 19.708 19.694c.39.229.836.35 1.29.35h52.812c.453 0 .898-.121 1.29-.35a55.224 55.224 0 0 0 19.707-19.694 54.86 54.86 0 0 0 7.504-27.722c-.001-8.752-2.112-17.461-6.106-25.184zm-23.097 67.844h-51.41c-14.88-8.989-24.096-25.271-24.096-42.66 0-15.767 7.594-30.77 20.313-40.132a2.553 2.553 0 0 0 .423-3.72 38.307 38.307 0 0 1-9.249-24.962c0-21.126 17.188-38.314 38.314-38.314S93.512 22.294 93.512 43.42a38.309 38.309 0 0 1-9.249 24.961 2.554 2.554 0 0 0 .423 3.72c12.72 9.363 20.313 24.366 20.313 40.133 0 17.389-9.215 33.671-24.096 42.66z" fill="#141CDC"/></svg>