<svg width="97" height="140" fill="none" xmlns="http://www.w3.org/2000/svg"><path d="M91.036 76.168A48.498 48.498 0 0 0 78.63 60.92a38 38 0 0 0 7.697-22.927C86.327 17.043 69.284 0 48.335 0c-20.95 0-37.993 17.043-37.993 37.992A38 38 0 0 0 18.04 60.92 48.49 48.49 0 0 0 5.634 76.17C2.138 82.926.29 90.546.29 98.204c0 8.54 2.27 16.928 6.566 24.257A48.328 48.328 0 0 0 24.1 139.693c.342.201.732.306 1.129.306h46.21c.397 0 .787-.105 1.13-.306a48.339 48.339 0 0 0 17.243-17.232 48.009 48.009 0 0 0 6.566-24.257c0-7.659-1.848-15.279-5.343-22.037z" fill="#fff"/><path opacity=".5" d="M91.036 76.168A48.498 48.498 0 0 0 78.63 60.92a38 38 0 0 0 7.697-22.927C86.327 17.043 69.284 0 48.335 0c-20.95 0-37.993 17.043-37.993 37.992A38 38 0 0 0 18.04 60.92 48.49 48.49 0 0 0 5.634 76.17C2.138 82.926.29 90.546.29 98.204c0 8.54 2.27 16.928 6.566 24.257A48.328 48.328 0 0 0 24.1 139.693c.342.201.732.306 1.129.306h46.21c.397 0 .787-.105 1.13-.306a48.339 48.339 0 0 0 17.243-17.232 48.009 48.009 0 0 0 6.566-24.257c0-7.659-1.848-15.279-5.343-22.037zm-20.21 59.364H25.843C12.823 127.667 4.76 113.421 4.76 98.205c0-13.796 6.644-26.924 17.774-35.116a2.233 2.233 0 0 0 .37-3.255 33.519 33.519 0 0 1-8.093-21.842c0-18.485 15.04-33.524 33.525-33.524S81.86 19.508 81.86 37.992a33.52 33.52 0 0 1-8.092 21.842 2.235 2.235 0 0 0 .37 3.255C85.266 71.281 91.91 84.41 91.91 98.205c0 15.216-8.063 29.462-21.084 37.327z" fill="#DC1498"/></svg>