<svg width="15" height="15" fill="none" xmlns="http://www.w3.org/2000/svg">
<path d="M7.5 0a5.28 5.28 0 0 0-5.273 5.273c0 .983.272 1.942.787 2.773L7.2 14.792a.44.44 0 0 0 .373.208h.004a.44.44 0 0 0 .373-.214l4.08-6.81a5.267 5.267 0 0 0 .743-2.703A5.28 5.28 0 0 0 7.5 0zm3.775 7.524l-3.708 6.192L3.76 7.583a4.39 4.39 0 0 1-.661-2.31 4.41 4.41 0 0 1 4.4-4.4 4.407 4.407 0 0 1 4.398 4.4c0 .795-.218 1.573-.623 2.251z" fill="#DC143C"/>
<path d="M7.5 2.637a2.64 2.64 0 0 0-2.637 2.636A2.633 2.633 0 0 0 7.5 7.91a2.632 2.632 0 0 0 2.637-2.637A2.64 2.64 0 0 0 7.5 2.637zm0 4.4a1.765 1.765 0 0 1-1.764-1.764A1.77 1.77 0 0 1 7.5 3.51c.97 0 1.76.794 1.76 1.763A1.76 1.76 0 0 1 7.5 7.037z" fill="#DC143C"/>
</svg>