<svg width="16" height="15" fill="none" xmlns="http://www.w3.org/2000/svg"><path d="M12.83 9.292c-.306-.32-.677-.49-1.07-.49-.389 0-.762.167-1.082.487l-1 .997-.244-.127a4.043 4.043 0 0 1-.314-.167c-.937-.596-1.788-1.371-2.605-2.375-.396-.5-.662-.921-.855-1.348.26-.238.5-.485.734-.722.09-.089.178-.18.266-.27.665-.664.665-1.525 0-2.19l-.864-.864c-.098-.098-.2-.2-.294-.301-.19-.196-.39-.399-.595-.589-.308-.304-.675-.465-1.061-.465-.386 0-.76.161-1.076.465l-.007.006-1.076 1.086c-.405.406-.637.9-.687 1.472-.076.925.196 1.786.405 2.35.513 1.383 1.28 2.665 2.422 4.04a14.9 14.9 0 0 0 4.96 3.884c.729.345 1.7.753 2.787.823.066.003.136.006.2.006.73 0 1.345-.263 1.826-.785.003-.006.01-.01.013-.016.164-.2.354-.38.554-.573.136-.13.275-.266.411-.408.314-.326.478-.706.478-1.096 0-.392-.168-.769-.487-1.086L12.83 9.292zm1.134 3.334c-.003 0-.003.003 0 0-.123.133-.25.253-.386.386a8.329 8.329 0 0 0-.611.633c-.32.342-.697.503-1.19.503-.048 0-.099 0-.146-.003-.94-.06-1.814-.427-2.47-.74a14.064 14.064 0 0 1-4.672-3.66c-1.08-1.301-1.802-2.504-2.28-3.796-.294-.788-.402-1.403-.354-1.982a1.45 1.45 0 0 1 .437-.94l1.08-1.08c.154-.145.319-.225.48-.225.2 0 .361.12.462.222l.01.01c.193.18.377.367.57.566.098.102.2.203.3.307l.865.865c.335.335.335.645 0 .981-.092.092-.18.184-.272.272-.266.273-.52.526-.795.773-.006.006-.013.01-.016.016-.272.272-.221.538-.164.718l.009.029c.225.544.541 1.057 1.023 1.668l.003.003c.874 1.077 1.795 1.916 2.811 2.558.13.083.263.15.39.212.113.057.221.111.313.168.013.007.025.016.038.022.107.054.209.08.313.08a.677.677 0 0 0 .482-.219l1.082-1.083c.108-.107.279-.237.478-.237.197 0 .358.123.456.231l.006.006 1.745 1.745c.326.323.326.655.003.99zM9.082 3.568c.83.14 1.583.532 2.185 1.133.601.602.99 1.355 1.133 2.185a.425.425 0 0 0 .421.354c.026 0 .048-.003.073-.006a.428.428 0 0 0 .351-.494 4.883 4.883 0 0 0-1.37-2.643A4.883 4.883 0 0 0 9.23 2.726a.43.43 0 0 0-.494.348.423.423 0 0 0 .345.494zm6.876 3.049a8.033 8.033 0 0 0-2.257-4.353A8.033 8.033 0 0 0 9.348.007a.426.426 0 1 0-.14.842c1.476.25 2.822.95 3.892 2.016a7.172 7.172 0 0 1 2.016 3.891.425.425 0 0 0 .421.355.42.42 0 0 0 .421-.494z" fill="#DC143C"/></svg>