<svg width="38" height="55" fill="none" xmlns="http://www.w3.org/2000/svg"><path d="M31.148 19.63a13.66 13.66 0 0 0 1.383-5.974C32.531 6.126 26.405 0 18.875 0S5.219 6.126 5.219 13.656c0 2.065.475 4.114 1.382 5.975C2.821 23.948.667 30.014.667 36.416c0 7.013 2.536 13.53 6.959 17.882.213.209.5.327.798.327h20.902c.298 0 .584-.118.798-.327 4.423-4.352 6.959-10.869 6.959-17.882 0-6.402-2.154-12.468-5.934-16.785z" fill="#000"/><path d="M4.058 28.99c2.677-2.343 6.44-4.06 9.592-5.09-1.17 2.012-1.56 4.195-1.588 4.364a1.136 1.136 0 0 0 1.123 1.324c.109 0 .22-.015.327-.047.478-.144 3.631-1.151 5.363-3.04 1.732 1.889 4.885 2.896 5.363 3.04a1.136 1.136 0 0 0 1.079-.237c.295-.26.435-.654.37-1.04-.028-.17-.417-2.352-1.587-4.364 3.153 1.03 6.915 2.747 9.593 5.09a25.429 25.429 0 0 1 1.114 7.427H2.943c0-2.58.399-5.085 1.115-7.427z" fill="gold"/><path d="M12.057 13.552a8.12 8.12 0 0 0 2.35-.62 1.133 1.133 0 0 0 2.192-.414 1.12 1.12 0 0 0-.278-.722 10.52 10.52 0 0 0 2.554-2.807 10.517 10.517 0 0 0 2.554 2.807 1.12 1.12 0 0 0-.278.722 1.133 1.133 0 1 0 2.193.413c.738.328 1.53.524 2.348.621.001.036.011.069.011.104a6.836 6.836 0 0 1-6.828 6.828 6.836 6.836 0 0 1-6.828-6.828c0-.035.01-.068.01-.104z" fill="#FDD1B0"/><path d="M22.85 26.551c-1.485-.727-2.836-1.723-2.836-2.653a1.137 1.137 0 1 0-2.276 0c0 .922-1.343 1.915-2.823 2.643.647-1.688 1.867-3.78 3.96-3.78 2.121 0 3.34 2.1 3.975 3.79z" fill="#D32F2F"/><path d="M8.97 19.248a11.401 11.401 0 0 1-1.475-5.592c0-6.275 5.105-11.38 11.38-11.38s11.38 5.106 11.38 11.38c0 1.95-.511 3.884-1.476 5.592a1.14 1.14 0 0 0 .167 1.344c1.216 1.282 2.243 2.775 3.102 4.398-2.782-1.694-5.86-2.882-8.41-3.61 2.594-1.606 4.341-4.454 4.341-7.724 0-5.02-4.083-9.104-9.104-9.104-5.021 0-9.104 4.084-9.104 9.104 0 3.27 1.747 6.118 4.341 7.724-2.55.728-5.628 1.916-8.41 3.61.859-1.623 1.886-3.116 3.102-4.398.344-.362.411-.908.167-1.343zm19.883 33.101H8.898c-3.324-3.442-5.396-8.308-5.856-13.656h31.667c-.46 5.348-2.533 10.214-5.856 13.656z" fill="#DC143C"/><path d="M18.877 18.848c.852 0 1.544-.36 1.544-.804 0-.445-3.088-.445-3.088 0 0 .444.691.804 1.544.804z" fill="#D32F2F"/><path d="M20.357 7a6.832 6.832 0 0 1 4.876 4.216c-2.358-.575-4.168-2.568-4.876-4.216zm-7.84 4.216A6.832 6.832 0 0 1 17.393 7c-.708 1.648-2.519 3.64-4.876 4.216z" fill="#8D6E63"/><path opacity=".1" d="M29.816 36.416h4.99c0-2.58-.398-5.084-1.114-7.426-1.189-1.04-2.605-1.937-4.074-2.725.405 1.809.637 3.687.637 5.6 0 1.558-.177 3.072-.439 4.551zm-1.836-22.76a8.941 8.941 0 0 1-1.54 5 21.965 21.965 0 0 1 2.322 4.628c1.108.503 2.219 1.056 3.286 1.706-.858-1.623-1.886-3.116-3.102-4.398a1.14 1.14 0 0 1-.167-1.343 11.402 11.402 0 0 0 1.476-5.593c0-4.31-2.436-8.023-5.978-9.954a11.22 11.22 0 0 1 1.264 3.8c1.5 1.624 2.438 3.775 2.438 6.154zM29.278 38.8c-1.507 5.374-6.538 8.997-12.118 8.997H5.643c.888 1.69 1.976 3.228 3.254 4.552h19.955c3.324-3.442 5.396-8.308 5.856-13.656h-5.4l-.03.107z" fill="#000"/></svg>