<svg width="166" height="214" fill="none" xmlns="http://www.w3.org/2000/svg"><g filter="url(#filter0_d)"><path d="M129.82 98.785a53.36 53.36 0 0 0-13.647-16.774 41.798 41.798 0 0 0 8.467-25.22C124.64 33.749 105.892 15 82.848 15S41.057 33.748 41.057 56.792a41.8 41.8 0 0 0 8.467 25.22 53.338 53.338 0 0 0-13.647 16.773C32.032 106.22 30 114.601 30 123.025a52.807 52.807 0 0 0 7.223 26.683 53.15 53.15 0 0 0 18.968 18.955c.377.221.805.337 1.242.337h50.831c.437 0 .865-.116 1.242-.337a53.154 53.154 0 0 0 18.968-18.955 52.807 52.807 0 0 0 7.223-26.683c-.001-8.424-2.033-16.806-5.877-24.24z" fill="url(#paint0_linear)"/></g><path opacity=".5" d="M129.82 98.785a53.36 53.36 0 0 0-13.647-16.774 41.798 41.798 0 0 0 8.467-25.22C124.64 33.749 105.892 15 82.848 15S41.057 33.748 41.057 56.792a41.8 41.8 0 0 0 8.467 25.22 53.338 53.338 0 0 0-13.647 16.773C32.032 106.22 30 114.601 30 123.025a52.807 52.807 0 0 0 7.223 26.683 53.15 53.15 0 0 0 18.968 18.955c.377.221.805.337 1.242.337h50.831c.437 0 .865-.116 1.242-.337a53.154 53.154 0 0 0 18.968-18.955 52.807 52.807 0 0 0 7.223-26.683c-.001-8.424-2.033-16.806-5.877-24.24zm-22.231 65.3H58.108c-14.323-8.651-23.193-24.322-23.193-41.06 0-15.175 7.309-29.616 19.551-38.627a2.457 2.457 0 0 0 .407-3.581 36.87 36.87 0 0 1-8.902-24.025c0-20.334 16.543-36.877 36.877-36.877 20.334 0 36.877 16.543 36.877 36.877a36.868 36.868 0 0 1-8.902 24.025 2.456 2.456 0 0 0 .407 3.581c12.242 9.01 19.551 23.451 19.551 38.627.001 16.738-8.869 32.409-23.192 41.06z" fill="#00288D"/><path opacity=".5" d="M116.173 82.011a53.347 53.347 0 0 1 13.647 16.774c3.845 7.434 5.877 15.816 5.877 24.24a52.806 52.806 0 0 1-7.222 26.683 53.173 53.173 0 0 1-18.969 18.955 2.453 2.453 0 0 1-1.241.337H57.433c-.437 0-.865-.116-1.242-.337l1.917-4.578h49.481c14.323-8.652 23.193-24.323 23.192-41.06 0-15.176-7.308-29.616-19.551-38.627a2.459 2.459 0 0 1-.406-3.581 36.873 36.873 0 0 0 8.901-24.025c0-4.741-.899-9.275-2.535-13.442l2.535-6.21a41.534 41.534 0 0 1 4.915 19.651c0 9.127-2.99 17.986-8.467 25.22z" fill="#2B59CE"/><defs><filter id="filter0_d" x="0" y="0" width="165.697" height="214" filterUnits="userSpaceOnUse" color-interpolation-filters="sRGB"><feFlood flood-opacity="0" result="BackgroundImageFix"/><feColorMatrix in="SourceAlpha" values="0 0 0 0 0 0 0 0 0 0 0 0 0 0 0 0 0 0 127 0"/><feOffset dy="15"/><feGaussianBlur stdDeviation="15"/><feColorMatrix values="0 0 0 0 0 0 0 0 0 0 0 0 0 0 0 0 0 0 0.3 0"/><feBlend in2="BackgroundImageFix" result="effect1_dropShadow"/><feBlend in="SourceGraphic" in2="effect1_dropShadow" result="shape"/></filter><linearGradient id="paint0_linear" x1="45.4" y1="45.45" x2="125.2" y2="153.6" gradientUnits="userSpaceOnUse"><stop stop-color="#fff"/><stop offset="1" stop-color="#ECEFFF"/></linearGradient></defs></svg>