<svg width="165" height="213" fill="none" xmlns="http://www.w3.org/2000/svg"><g filter="url(#filter0_d)"><path d="M129.161 98.248a52.992 52.992 0 0 0-13.557-16.663 41.522 41.522 0 0 0 8.412-25.053c0-22.892-18.624-41.516-41.516-41.516S40.984 33.64 40.984 56.532c0 9.066 2.97 17.867 8.41 25.053a52.988 52.988 0 0 0-13.556 16.663C32.018 105.633 30 113.96 30 122.33a52.456 52.456 0 0 0 7.175 26.506 52.813 52.813 0 0 0 18.843 18.831c.374.219.8.334 1.234.334h50.496c.434 0 .859-.115 1.234-.334a52.817 52.817 0 0 0 18.843-18.831A52.453 52.453 0 0 0 135 122.329c-.001-8.369-2.019-16.696-5.839-24.08z" fill="url(#paint0_linear)"/></g><path opacity=".5" d="M129.161 98.248a52.992 52.992 0 0 0-13.557-16.663 41.522 41.522 0 0 0 8.412-25.053c0-22.892-18.624-41.516-41.516-41.516S40.984 33.64 40.984 56.532c0 9.066 2.97 17.867 8.41 25.053a52.988 52.988 0 0 0-13.556 16.663C32.018 105.633 30 113.96 30 122.33a52.456 52.456 0 0 0 7.175 26.506 52.813 52.813 0 0 0 18.843 18.831c.374.219.8.334 1.234.334h50.496c.434 0 .859-.115 1.234-.334a52.817 52.817 0 0 0 18.843-18.831A52.453 52.453 0 0 0 135 122.329c-.001-8.369-2.019-16.696-5.839-24.08zm-22.084 64.869H57.922c-14.228-8.594-23.04-24.162-23.04-40.788 0-15.076 7.261-29.421 19.423-38.373a2.44 2.44 0 0 0 .404-3.558 36.627 36.627 0 0 1-8.843-23.866c0-20.2 16.434-36.634 36.634-36.634 20.199 0 36.633 16.434 36.633 36.634 0 8.757-3.14 17.233-8.843 23.867a2.44 2.44 0 0 0 .404 3.557c12.162 8.951 19.422 23.296 19.422 38.373.001 16.626-8.81 32.194-23.039 40.788z" fill="#DC143C"/><path opacity=".5" d="M115.605 81.585a53.003 53.003 0 0 1 13.556 16.663c3.82 7.385 5.838 15.712 5.839 24.08a52.457 52.457 0 0 1-7.175 26.507 52.806 52.806 0 0 1-18.843 18.83c-.375.22-.8.335-1.234.335H57.252c-.434 0-.86-.115-1.233-.335l1.903-4.548h49.155c14.229-8.594 23.04-24.162 23.04-40.789 0-15.076-7.261-29.42-19.423-38.372a2.442 2.442 0 0 1-.403-3.558 36.63 36.63 0 0 0 8.842-23.866c0-4.71-.893-9.214-2.519-13.353l2.519-6.169a41.263 41.263 0 0 1 4.883 19.522 41.528 41.528 0 0 1-8.411 25.053z" fill="#FF1E4B"/><defs><filter id="filter0_d" x="0" y=".016" width="165" height="212.984" filterUnits="userSpaceOnUse" color-interpolation-filters="sRGB"><feFlood flood-opacity="0" result="BackgroundImageFix"/><feColorMatrix in="SourceAlpha" values="0 0 0 0 0 0 0 0 0 0 0 0 0 0 0 0 0 0 127 0"/><feOffset dy="15"/><feGaussianBlur stdDeviation="15"/><feColorMatrix values="0 0 0 0 0 0 0 0 0 0 0 0 0 0 0 0 0 0 0.3 0"/><feBlend in2="BackgroundImageFix" result="effect1_dropShadow"/><feBlend in="SourceGraphic" in2="effect1_dropShadow" result="shape"/></filter><linearGradient id="paint0_linear" x1="44.255" y1="40.049" x2="122.138" y2="162.089" gradientUnits="userSpaceOnUse"><stop stop-color="#fff"/><stop offset="1" stop-color="#FFEBEB"/></linearGradient></defs></svg>