<svg width="32" height="32" viewBox="0 0 32 32" fill="none" xmlns="http://www.w3.org/2000/svg">
<path fill-rule="evenodd" clip-rule="evenodd" d="M0 0V32H32V0H0ZM24.8089 11.482C24.8175 11.677 24.8219 11.8731 24.8219 12.0699C24.8219 18.0763 20.2504 25.0018 11.8902 25.0018C9.32346 25.0018 6.93437 24.2495 4.92301 22.9597C5.27859 23.002 5.6403 23.0235 6.00728 23.0235C8.13672 23.0235 10.0965 22.2969 11.6521 21.0776C9.66316 21.0411 7.98453 19.727 7.40607 17.9212C7.68373 17.9744 7.96849 18.003 8.26135 18.003C8.67587 18.003 9.07745 17.9471 9.45885 17.8435C7.37969 17.4258 5.81289 15.5889 5.81289 13.3868C5.81289 13.3676 5.81289 13.3486 5.81331 13.3296C6.42602 13.67 7.12679 13.8745 7.87193 13.8981C6.65227 13.0831 5.85009 11.6918 5.85009 10.1151C5.85009 9.28204 6.07423 8.50138 6.46555 7.82994C8.70716 10.5799 12.0563 12.3893 15.8337 12.579C15.7561 12.2462 15.7157 11.8993 15.7157 11.5431C15.7157 9.03321 17.7509 6.99822 20.2609 6.99822C21.5682 6.99822 22.7495 7.5501 23.5785 8.43337C24.6137 8.22977 25.5865 7.85132 26.4647 7.33053C26.1254 8.39195 25.4048 9.28246 24.4663 9.8451C25.3858 9.73517 26.2617 9.49078 27.0768 9.12928C26.4676 10.0407 25.6971 10.8412 24.8089 11.482Z" fill="#DC143C"/>
</svg>
