<svg width="32" height="32" viewBox="0 0 32 32" fill="none" xmlns="http://www.w3.org/2000/svg">
<path fill-rule="evenodd" clip-rule="evenodd" d="M0 0V32H32V0H0ZM23.9893 17.7039C24.7239 18.4205 25.5007 19.0953 26.16 19.8875C26.4513 20.2376 26.7269 20.5988 26.9369 21.0044C27.235 21.5857 26.9648 22.2224 26.4456 22.2575L23.2193 22.2561C22.3865 22.3245 21.7229 21.9888 21.1632 21.419C20.7181 20.9654 20.3021 20.4799 19.8725 20.0108C19.6977 19.8177 19.5128 19.6371 19.293 19.4931C18.8523 19.2075 18.47 19.2942 18.2181 19.7532C17.9618 20.2208 17.9016 20.74 17.878 21.2607C17.8429 22.0208 17.6136 22.2196 16.8507 22.2562C15.2185 22.3318 13.6705 22.0838 12.2329 21.2621C10.9633 20.5373 9.98084 19.5124 9.12549 18.3536C7.45853 16.0943 6.18184 13.614 5.03553 11.0623C4.77644 10.4872 4.9657 10.179 5.5981 10.1679C6.65234 10.1471 7.70616 10.1496 8.75893 10.1665C9.18717 10.1737 9.4713 10.4184 9.63509 10.823C10.2048 12.2229 10.9017 13.5553 11.7765 14.7915C12.0105 15.1204 12.2484 15.4479 12.5856 15.6801C12.9593 15.9378 13.2449 15.8536 13.4212 15.435C13.5333 15.1692 13.5824 14.8865 13.606 14.6023C13.6899 13.6294 13.6999 12.6555 13.5556 11.6855C13.466 11.0792 13.1231 10.6872 12.5185 10.5725C12.2104 10.5137 12.2566 10.4005 12.405 10.2238C12.6655 9.92035 12.9106 9.7311 13.3961 9.7311H17.0425C17.6176 9.84327 17.7466 10.1023 17.8247 10.6803L17.8276 14.7327C17.8208 14.9566 17.9398 15.6199 18.3414 15.7668C18.6632 15.8732 18.8775 15.6141 19.0706 15.4099C19.9439 14.4832 20.567 13.3875 21.1238 12.2537C21.3703 11.7553 21.5832 11.2375 21.7903 10.7193C21.9429 10.3359 22.1809 10.147 22.6134 10.1538L26.124 10.1581C26.2275 10.1581 26.334 10.1581 26.4361 10.1749C27.0266 10.2771 27.189 10.5319 27.0055 11.1098C26.7188 12.0153 26.1573 12.7714 25.6101 13.5285C25.0235 14.3391 24.3993 15.1213 23.8171 15.9361C23.2852 16.6823 23.3272 17.0574 23.9893 17.7039Z" fill="#DC143C"/>
</svg>
