<svg width="1440" height="574" viewBox="0 0 1440 574" fill="none" xmlns="http://www.w3.org/2000/svg">
<path d="M1617.75 184.051C1603.2 170.642 1579.88 168.105 1564.5 181.635C1553.08 191.661 1549.23 207.486 1552.84 221.983C1557.65 241.069 1577.36 251.096 1589.38 264.988C1600.8 278.276 1608.37 294.101 1614.26 310.531C1611.26 306.786 1607.53 303.524 1602.96 300.625C1579.88 286.129 1547.55 296.397 1530 315C1520.5 325.027 1514.97 338.194 1515.45 352.207C1516.17 371.173 1527.11 388.81 1545.14 395.575C1547.79 396.542 1550.67 397.146 1553.44 397.266C1555.84 397.387 1558.13 397.266 1560.53 396.904C1560.89 396.783 1561.25 396.662 1561.49 396.542C1558.85 395.575 1556.44 394.246 1554.28 392.555C1543.58 384.341 1538.77 368.395 1538.89 354.986C1539.01 337.469 1554.88 324.664 1570.87 321.04C1578.56 319.349 1586.98 320.678 1592.51 326.597C1599.96 334.57 1599.6 347.254 1597.67 357.281C1595.39 369.12 1590.46 380.354 1585.17 390.985C1579.88 401.615 1573.99 412.125 1567.14 421.789C1541.42 457.668 1507.28 487.747 1469.53 510.579C1452.34 516.498 1434.55 520.605 1416.4 522.659C1395.97 524.954 1368.32 525.075 1353.53 508.042C1357.38 504.297 1360.86 500.19 1364.11 495.841C1372.28 484.486 1377.33 471.56 1379.74 457.909C1392.24 469.869 1404.86 481.586 1416.88 493.908C1418.44 495.479 1420.85 494.995 1421.69 492.942C1430.22 471.197 1442.37 450.661 1444.89 426.984C1445.49 421.185 1445.49 415.266 1445.13 409.347C1448.14 410.072 1451.26 410.676 1454.27 411.28C1464.72 413.212 1475.3 414.541 1486 415.266C1495.38 415.87 1504.99 415.628 1514.37 416.716C1515.81 416.836 1517.86 416.112 1517.98 414.3C1519.42 396.904 1514.01 379.388 1505.6 364.167C1497.54 349.55 1486.72 335.657 1472.54 326.718C1489.13 323.94 1504.27 315.242 1517.38 304.732C1530.84 293.86 1542.5 279.726 1547.79 263.176C1548.39 261.485 1546.83 260.035 1545.38 259.552C1536.37 257.015 1527.59 253.029 1518.58 250.009C1508.48 246.626 1498.14 243.727 1487.8 241.553C1484.8 240.949 1481.67 240.344 1478.55 239.861C1481.19 234.546 1483.36 229.11 1485.04 223.432C1491.77 200.48 1488.17 176.923 1488.53 153.488C1488.53 151.313 1486.48 149.864 1484.56 150.709C1468.81 157.595 1452.58 163.514 1436.6 169.796C1439.48 156.387 1439.72 142.374 1436.48 128.723C1428.06 93.6907 1399.93 66.1478 1365.43 59.5037C1365.19 47.061 1364.35 34.6184 1363.15 22.2966C1362.79 19.3973 1362.55 16.3773 1362.19 13.478C1360.98 14.4445 1359.66 15.4109 1358.46 16.4981C1355.58 18.7933 1352.57 21.0886 1349.32 23.1422C1341.87 28.0951 1333.94 32.6856 1326 36.6721C1313.26 42.9538 1299.68 47.3026 1285.85 50.6851C1247.51 59.8661 1205.32 63.9733 1174.66 91.7578C1157.95 106.979 1146.05 127.515 1137.52 148.293C1129.46 167.742 1122.25 190.212 1124.78 211.594C1121.65 215.218 1119.37 219.566 1118.28 224.399C1117.92 225.848 1117.68 227.298 1117.56 228.868C1116 228.023 1114.44 227.298 1112.88 226.573C1102.66 221.741 1091.6 217.392 1080.78 213.406C1069.12 209.057 1057.46 205.07 1045.56 201.325C1082.22 199.272 1117.32 172.212 1133.31 140.32C1142.69 121.717 1145.93 99.2476 1140.28 78.9528C1135.23 61.0741 1121.41 47.061 1105.18 39.0881C1091.12 32.0816 1075.13 29.9071 1060.22 33.5312C1057.34 34.256 1054.45 35.2224 1051.57 36.3096C1053.61 36.4304 1055.66 36.6721 1057.7 37.0345C1065.51 38.2425 1072.73 40.6585 1079.7 45.1282C1088.71 50.9267 1095.57 59.6245 1100.49 69.047C1110.59 87.8922 1111.79 112.173 1105.54 132.347C1099.29 152.642 1084.51 169.313 1066.72 180.185C1056.14 186.588 1044.72 190.816 1032.34 191.299C1024.88 191.661 1017.43 190.936 1010.1 191.178C1000 188.641 989.782 186.588 979.445 185.017C946.989 179.943 911.287 177.89 878.59 180.789C875.465 181.031 872.339 181.393 869.214 181.755C869.815 181.272 870.536 180.91 871.137 180.427C890.731 166.051 906.959 146.119 915.734 123.287C924.149 101.422 926.313 77.2616 924.75 53.9468C923.788 39.4505 921.144 24.9542 916.215 11.1828C915.975 10.5788 915.855 10.0956 915.614 9.49157C914.773 9.73317 913.811 9.97477 912.97 10.0956C893.376 15.0485 873.301 19.3973 856.472 30.9943C837.479 44.1618 822.213 63.8525 813.437 85.2345C804.782 106.496 801.777 129.569 801.657 152.401C801.537 164.722 802.498 176.923 802.258 189.245C802.258 189.487 802.258 189.728 802.258 189.849C802.138 192.507 802.018 195.164 801.777 197.822C786.391 203.379 771.365 210.144 756.819 217.875C758.262 216.184 759.704 214.493 761.147 212.681C772.446 198.547 781.582 182.239 787.112 164.36C798.532 127.394 794.685 86.6841 775.812 50.3227C765.114 29.7863 748.765 12.9948 727.008 5.9883C707.775 -0.172605 686.858 3.20985 676.641 21.0886C666.543 38.7257 666.062 69.5302 689.142 80.1608C698.759 84.6305 710.539 84.2681 719.555 80.1608C723.882 78.228 728.45 75.6911 731.095 71.5839C732.057 70.2551 732.658 68.8054 733.018 67.4766C733.739 65.1814 733.86 62.6445 734.1 59.8661C732.898 60.4701 731.576 61.0741 730.253 61.6781C718.834 66.3894 703.928 68.5638 696.234 54.5508C686.618 36.9137 704.769 25.3167 720.036 28.0951C742.274 32.0816 757.661 57.5708 764.753 78.1072C771.966 99.2476 772.927 121.838 769.682 142.978C764.393 177.89 749.126 211.714 725.685 236.6C719.074 240.948 712.703 245.539 706.452 250.25C658.129 286.853 614.493 332.396 557.755 356.073C528.063 368.395 495.247 373.106 463.392 369.965C432.498 366.824 403.408 354.865 376.722 339.402C348.954 323.336 323.59 303.162 298.707 282.988C298.106 282.504 297.384 281.9 296.783 281.417C297.144 281.659 297.505 281.78 297.865 282.021C315.896 291.202 335.61 297.484 355.084 302.799C395.113 313.671 438.148 315.242 474.451 292.048C509.912 269.458 527.943 227.056 522.774 185.621C520.37 166.414 512.196 147.568 498.372 134.039C485.269 121.234 467.719 113.744 449.688 110.845C433.46 108.308 415.669 110.241 401.364 118.697C386.098 127.757 377.563 143.461 375.039 160.857C372.154 181.031 379.006 202.171 394.032 216.063C394.152 216.184 394.272 216.305 394.392 216.426C393.19 219.929 393.07 223.553 392.108 227.056C391.026 230.922 388.863 234.667 386.699 238.049C382.732 244.089 377.563 249.042 371.793 253.27C359.893 261.726 345.588 265.955 331.163 267.283C314.574 268.854 297.985 266.075 281.998 261.968C287.287 261.002 292.576 259.431 297.384 257.378C339.217 239.62 362.778 195.889 370.11 152.642C373.837 130.898 376.722 104.684 373.957 80.04C370.952 54.5508 361.816 30.9943 340.659 15.8941C330.321 8.52515 314.935 1.76023 302.193 0.431405C263.005 -3.67587 211.676 21.8134 211.315 65.423C211.075 89.7042 227.303 113.261 250.984 120.267C263.245 123.891 275.146 121.596 286.325 115.918C295.341 111.449 304.356 102.992 301.592 92.6034C301.351 91.8786 301.111 91.033 300.75 90.3082C300.75 90.1874 300.63 90.0666 300.63 90.0666C299.789 91.5162 298.827 92.7243 297.865 93.8115C288.85 103.234 272.261 102.147 260.841 97.0731C253.508 93.9323 247.017 88.7378 242.81 81.8521C238.362 74.4831 238.603 65.0606 241.007 56.9668C245.935 40.1753 263.125 30.7527 279.353 28.3367C297.264 25.6791 315.416 31.4776 327.557 45.0074C339.457 58.1748 344.145 76.6576 345.828 94.0531C347.511 112.536 345.948 131.502 341.38 149.38C335.61 171.97 324.672 193.111 310.848 211.714C305.198 219.325 298.947 226.573 292.095 233.217C301.231 220.171 305.799 203.5 305.679 187.796C305.558 168.588 294.86 148.293 279.834 136.696C264.568 124.858 242.69 124.012 227.063 135.851C216.364 143.944 213.479 157.353 219.369 169.313C224.418 179.339 236.319 183.326 246.056 186.708C256.033 190.212 267.092 193.473 270.097 204.829C274.304 220.291 262.885 240.344 250.022 248.559C249.542 248.197 249.061 247.955 248.7 247.593C248.339 247.351 247.979 247.23 247.618 247.109C236.799 240.707 225.74 234.908 214.2 229.714C183.427 215.942 150.13 207.607 116.592 205.674C116.471 205.553 116.231 205.553 116.111 205.553C93.6318 201.205 71.9943 191.057 56.8481 173.299C43.0242 156.991 42.1827 135.005 37.9755 115.073C36.1723 106.496 31.8449 97.0731 22.8293 94.1739C12.6116 90.7914 3.8364 98.0395 -0.37088 106.979C-9.74712 126.67 4.55763 151.192 17.1795 166.534C13.0924 163.152 9.12555 159.649 5.27888 156.025C-9.38649 141.77 -21.5275 124.495 -27.6581 104.804C-33.6685 85.7177 -35.4716 58.658 -19.484 43.9202C-8.54504 33.8936 12.9722 33.048 15.1359 51.2891C15.6168 55.1548 15.0157 58.4164 13.5732 61.0741C9.84679 68.8054 0.10994 72.6711 -8.66525 74.4831C-10.1077 74.7247 -11.43 74.9663 -12.8725 75.2079C-11.1896 77.2616 -9.62691 78.9528 -7.70358 80.4024C-6.6217 81.248 -5.29942 81.9729 -3.73671 82.4561C0.831192 84.1473 6.00014 83.6641 10.6882 82.8185C20.4251 81.1272 30.2822 75.2079 35.6915 66.7518C48.5538 46.6986 30.5226 23.867 12.251 15.8941C-6.26108 7.92114 -25.3741 16.3773 -37.6354 31.1152C-51.4593 47.7859 -55.306 68.9262 -52.421 89.825C-51.3391 97.6771 -49.536 105.288 -47.1318 112.777C-51.5795 104.925 -55.6666 96.8315 -59.7536 88.7378C-69.8511 68.3222 -78.5061 45.4906 -93.4119 28.0951C-103.63 17.5853 -117.333 4.05547 -132.239 2.24344C-148.948 0.310603 -150.15 17.2229 -148.107 29.9071C-147.746 31.84 -147.385 33.652 -147.025 35.3432C-143.779 48.3899 -137.408 60.9533 -130.676 72.5503C-122.382 86.6841 -112.285 99.8516 -100.985 111.69C-78.5061 135.005 -49.4158 152.159 -19.2435 163.393C-18.8829 163.514 -18.6425 163.514 -18.2819 163.514C-12.0311 170.158 -5.1792 176.199 2.39391 181.514C10.6883 187.312 19.5836 192.265 28.8397 196.252C15.6168 194.198 2.2737 192.748 -11.1896 193.111C-23.8114 193.473 -36.4333 195.648 -48.4541 199.03C-59.0324 202.05 -70.332 206.157 -79.2273 212.802C-91.4886 222.103 -108.438 243.969 -91.0077 256.894C-77.6646 266.8 -56.2676 257.619 -43.1649 251.821C-42.4437 251.458 -41.7224 251.217 -41.0012 250.854C-58.6718 262.693 -75.2605 276.102 -91.0077 290.115C-105.673 303.162 -119.377 317.175 -132.479 331.913C-125.267 317.899 -119.377 303.162 -115.049 288.182C-103.99 250.009 -105.793 208.574 -111.203 169.554C-117.934 121.234 -136.326 51.6515 -178.639 20.1222V28.6991C-173.23 33.2896 -168.301 38.6049 -163.734 44.1618C-139.211 74.8455 -127.551 115.556 -120.459 153.609C-113.366 191.54 -110.121 232.613 -117.453 270.787C-125.868 314.275 -148.347 354.744 -178.639 386.877V388.569V393.401V393.642V394.246V397.146C-178.038 396.421 -177.437 395.696 -176.836 394.971C-175.033 392.797 -173.23 390.743 -171.427 388.69C-169.143 385.669 -166.859 382.649 -164.575 379.629C-158.925 373.106 -153.636 366.341 -148.708 359.093C-148.227 358.489 -147.746 358.006 -147.385 357.402C-136.927 344.838 -125.868 332.758 -114.328 321.161C-90.4067 297.001 -64.6822 274.894 -36.3131 256.17C-10.5886 239.257 17.2997 225.969 47.2315 218.842C48.0729 218.6 48.9144 218.479 49.6356 218.238C83.2939 210.627 118.395 210.748 152.053 217.634C184.87 224.399 216.004 237.808 244.733 255.082C246.056 255.928 247.378 256.653 248.7 257.498C275.747 274.29 299.428 295.551 324.792 314.759C373.957 352.207 429.493 382.408 492.843 379.388C523.976 377.938 553.668 368.757 581.075 354.261C607.761 340.127 631.803 321.282 655.123 302.316C678.925 282.988 702.005 262.693 727.008 245.177C728.45 244.21 729.893 243.244 731.335 242.157C756.459 225.123 784.107 212.198 812.836 202.654C818.366 200.842 823.895 199.272 829.545 197.822C832.43 197.218 835.195 196.614 837.96 195.889C874.984 187.796 914.172 187.192 951.556 189.728C959.851 190.332 968.145 191.299 976.319 192.628C983.171 193.715 990.023 195.044 996.755 196.493C1006.73 198.668 1016.47 201.205 1026.33 204.104C1042.67 208.815 1058.78 214.372 1074.77 220.171C1082.22 222.949 1089.68 225.727 1097.13 228.627C1103.98 231.284 1110.23 235.633 1117.2 237.928C1118.89 245.781 1123.57 252.666 1130.43 257.015C1123.09 258.344 1116.72 262.33 1112.15 268.008C1110.83 267.283 1109.39 266.679 1107.95 265.955C1104.58 264.384 1101.46 262.451 1097.97 261.122C1090.64 258.223 1083.3 255.324 1075.85 252.545C1059.5 246.385 1043.03 240.586 1026.21 235.512C1009.26 230.439 992.187 226.09 974.756 223.191C943.623 217.996 908.882 216.063 877.388 218.842C869.695 219.567 862.001 220.533 854.308 221.862C822.092 227.298 790.838 238.17 761.628 253.029C741.793 263.176 722.801 275.135 705.13 288.545C695.153 296.155 685.416 304.007 675.679 312.101C638.294 343.026 601.39 375.643 556.433 394.367C549.821 397.146 542.969 399.562 536.117 401.495C512.196 408.38 486.832 410.676 462.069 408.139C431.176 404.998 402.086 393.038 375.399 377.576C368.427 373.468 361.575 369.24 354.844 364.771C353.401 363.442 351.959 362.234 350.396 360.905C342.342 354.14 333.447 347.617 324.071 342.422C315.055 335.416 306.16 328.288 297.384 321.161C289.451 314.638 281.276 308.477 272.862 302.558C253.989 289.149 234.155 277.431 212.878 267.887C153.495 241.311 85.2172 235.029 23.1899 256.17C11.5297 260.156 0.350357 264.988 -10.5886 270.666C-40.0395 285.766 -66.9661 306.302 -91.3684 328.168C-108.799 343.751 -125.027 360.663 -140.173 378.301C-151.593 391.589 -161.81 405.843 -171.667 420.219C-171.667 420.219 -171.667 420.34 -171.788 420.34C-174.192 423.36 -176.596 426.38 -179 429.4V431.333V434.836C-175.754 430.487 -172.629 426.138 -169.624 421.789C-169.624 421.789 -169.624 421.789 -169.504 421.669C-162.532 412.608 -155.079 404.031 -147.626 395.213C-141.495 387.844 -135.124 380.717 -128.633 373.589C-124.065 368.636 -119.377 363.804 -114.569 358.972C-95.8161 340.006 -75.8615 322.248 -54.3443 306.423C-48.5743 302.074 -42.5639 297.967 -36.5535 293.981C-33.7887 292.169 -30.9037 290.357 -28.0187 288.545C-27.0571 289.753 -25.9752 291.081 -25.0135 292.289C-24.8933 292.41 -24.7731 292.652 -24.6529 292.773C-19.3638 299.9 -14.5554 307.39 -9.5067 314.759C-7.58337 317.537 -5.66003 320.316 -3.73671 323.094C2.03326 331.067 8.28409 338.798 15.1359 346.046C14.0541 345.926 12.9722 345.805 11.7701 345.805C-1.09215 345.805 -12.5119 354.019 -16.7192 366.341C-19.3638 373.952 -18.7627 382.166 -15.2767 389.414C-13.4736 393.038 -11.0694 396.3 -8.06421 398.837C-15.7575 399.199 -22.7296 402.461 -27.8985 407.776C-31.0239 410.917 -33.4281 414.904 -34.9908 419.252C-39.6789 432.903 -33.9089 447.762 -22.1285 454.889C-24.1721 454.406 -26.2156 454.164 -28.3793 454.164C-32.8271 454.164 -37.0343 455.131 -40.881 456.943C-40.6406 456.46 -40.5204 455.856 -40.28 455.372C-34.8706 439.547 -43.2852 422.272 -59.0324 416.957C-59.8739 416.716 -60.5951 416.474 -61.4366 416.232C-63.8407 415.628 -66.2449 415.266 -68.7692 415.266C-81.6315 415.266 -93.1715 423.481 -97.2586 435.802C-99.9031 443.413 -99.3021 451.627 -95.816 458.876C-95.0948 460.325 -94.2533 461.775 -93.2917 463.104C-96.4171 462.016 -99.6627 461.533 -103.029 461.533C-106.995 461.533 -110.842 462.258 -114.328 463.708C-112.765 461.412 -111.443 458.876 -110.602 456.218C-105.673 441.601 -112.405 425.776 -125.868 419.252C-126.95 418.769 -128.152 418.286 -129.354 417.803C-132.479 416.716 -135.725 416.112 -139.091 416.112C-151.953 416.112 -163.493 424.326 -167.58 436.648C-172.99 452.473 -164.575 469.627 -148.828 475.063C-145.702 476.15 -142.337 476.754 -139.091 476.754C-135.124 476.754 -131.398 476.029 -127.791 474.58C-129.354 476.875 -130.676 479.291 -131.638 482.07C-136.567 498.378 -128.152 515.653 -112.405 521.089C-109.279 522.176 -105.914 522.78 -102.668 522.78C-99.9031 522.78 -97.2585 522.417 -94.7342 521.693C-92.2098 520.968 -89.6854 519.881 -87.5217 518.552C-88.9642 520.726 -90.0461 523.022 -90.8875 525.438C-96.2969 541.263 -87.8823 558.417 -72.1351 563.853C-69.0097 564.94 -65.7641 565.544 -62.3982 565.544C-55.907 565.544 -49.8966 563.49 -44.8479 559.866C-39.7991 556.242 -35.9525 551.168 -33.9089 545.008C-33.3079 543.437 -32.9473 541.746 -32.7068 540.175C-30.7835 528.578 -35.8323 516.981 -45.2085 510.458C-47.4924 508.888 -50.0168 507.559 -52.7816 506.592C-55.907 505.505 -59.2728 505.022 -62.5184 505.022C-68.048 505.022 -73.2169 506.592 -77.7849 509.25C-76.3424 507.076 -75.2605 504.78 -74.419 502.364C-71.1734 492.821 -72.9765 482.674 -78.3859 475.063C-75.2605 476.15 -72.0149 476.754 -68.649 476.754C-64.2013 476.754 -59.9941 475.788 -56.1474 473.976C-56.3878 474.459 -56.508 474.942 -56.7484 475.546C-59.393 483.157 -58.792 491.371 -55.306 498.619C-53.022 503.452 -49.536 507.438 -45.2085 510.337C-43.0447 511.787 -40.6406 512.995 -37.996 513.961C-34.8706 515.049 -31.625 515.653 -28.2592 515.653C-22.8498 515.653 -17.8011 514.203 -13.3533 511.666C-8.90565 509.129 -5.1792 505.384 -2.41441 500.915C-2.2942 501.156 -2.17401 501.519 -2.0538 501.76C1.43222 508.888 7.56285 514.324 15.0157 516.981C15.136 516.981 15.136 516.981 15.2561 517.102C18.3816 518.189 21.6272 518.673 24.993 518.673C31.4842 518.673 37.4946 516.619 42.5434 512.995C47.4719 509.371 51.4388 504.297 53.4823 498.136C56.1269 490.526 55.5258 482.311 52.0398 475.063C49.6356 470.11 46.0294 466.003 41.4615 463.104C43.9859 463.828 46.5102 464.07 49.1548 464.07C55.646 464.07 61.6564 462.016 66.7052 458.392C71.6337 454.768 75.6006 449.695 77.6441 443.534C83.0535 427.709 74.6389 410.555 58.8917 405.119C55.7663 404.031 52.5206 403.427 49.1548 403.427C37.6148 403.427 27.1567 410.072 22.108 420.34C20.4251 415.145 17.4199 410.555 13.3328 406.931C25.594 406.327 36.2926 398.233 40.2594 386.515C42.303 380.596 42.303 374.556 40.8605 368.878C42.1828 369.724 43.3848 370.569 44.7071 371.415C64.1808 383.737 87.982 390.743 111.062 390.381C131.016 390.018 149.408 382.287 167.68 374.918C168.161 374.676 168.642 374.556 169.122 374.314C169.964 373.952 170.805 373.71 171.647 373.348C171.527 372.744 171.286 372.14 171.166 371.656C167.199 357.643 160.948 344.234 153.255 331.913C140.994 312.101 125.246 293.739 105.773 280.813C86.2991 268.008 62.8585 261.243 39.6584 260.518C43.6252 260.035 47.5921 259.794 51.3186 259.552C61.8969 258.827 72.7156 259.31 83.2939 260.518C104.33 263.055 123.323 271.391 140.393 283.954C160.948 299.054 177.537 320.074 187.394 343.63C196.53 365.858 200.256 394.971 181.624 413.575C177.777 417.44 172.849 420.34 167.439 422.152C161.309 424.326 154.577 425.172 148.447 424.93C145.562 424.809 142.797 424.205 140.272 423.36C138.95 422.877 137.748 422.393 136.546 421.789C136.666 422.877 136.786 423.964 136.907 425.051C139.07 445.104 146.643 465.278 161.79 478.929C176.816 492.579 198.093 494.029 216.725 487.989C236.319 481.586 252.427 467.09 260.601 448.245C270.217 426.017 269.857 400.891 264.447 377.697C254.109 333.604 222.254 296.517 184.509 273.082C177.898 268.975 170.926 265.23 163.833 261.968C194.967 270.666 222.495 289.511 244.733 313.792C258.437 328.772 270.217 344.959 278.512 363.563C283.681 375.16 287.407 388.206 287.046 400.77C286.686 410.072 284.161 419.132 278.151 427.225C277.79 427.588 277.911 428.433 278.391 428.675C292.816 441.118 313.612 428.433 321.666 414.3C329.961 399.562 327.557 381.683 322.027 366.462C320.104 361.147 317.7 356.073 315.055 351.12C329.239 365.737 339.577 385.186 345.347 403.911C349.194 416.474 351.238 430.004 350.757 443.171C350.636 449.091 349.795 455.01 348.232 460.808C347.992 461.533 347.752 462.258 347.511 462.983C340.299 461.654 333.567 467.09 333.327 474.459C333.206 478.204 335.37 481.949 338.495 484.606C334.168 484.002 330.081 485.814 327.436 489.076C326.475 484.486 323.71 480.378 319.623 479.17C316.017 478.083 312.531 478.808 309.766 480.499C308.323 475.425 305.679 470.835 300.39 468.902C294.86 466.849 288.85 469.506 284.161 472.526C269.977 481.466 263.966 499.586 267.092 515.653C270.338 532.323 283.2 548.148 298.346 555.517C312.771 562.524 329.48 562.765 344.746 558.658C360.734 554.309 375.52 545.008 386.579 532.686C399.561 518.069 404.971 499.827 406.533 480.499C409.298 446.312 396.195 413.575 375.399 387.119C409.418 406.085 446.202 418.528 486.111 418.044C499.214 422.152 512.316 426.017 524.938 431.453C540.084 438.098 552.947 447.762 563.765 460.204C574.584 472.526 582.999 487.022 588.408 502.485C594.418 519.156 595.38 536.31 594.659 553.826C594.539 556 597.544 556.604 598.626 554.913C616.657 526.525 629.158 491.975 622.307 458.03C618.7 439.789 607.521 423.843 592.856 413.333C600.549 417.682 608.002 422.514 615.936 426.38C621.946 429.279 629.639 432.42 636.251 429.4C642.982 426.38 646.108 418.044 646.709 411.159C649.474 383.978 614.974 381.562 588.408 388.569C610.406 376.005 630.721 360.422 650.435 344.476C650.075 344.959 649.714 345.442 649.353 346.046C651.637 344.476 654.042 343.026 656.446 341.577C688.902 322.128 727.248 312.343 764.873 315.363C788.073 317.175 810.432 324.06 830.747 335.416C838.801 339.885 846.615 345.442 852.625 352.57C830.507 375.643 832.31 420.098 861.641 436.527C877.268 445.346 896.862 439.668 909.844 428.796C924.87 416.353 932.203 397.146 934.487 378.18C938.574 343.026 920.783 307.873 892.895 286.974C867.892 268.129 835.916 262.693 805.383 264.505C776.173 266.196 747.203 275.015 720.877 287.941C722.8 286.491 724.724 285.162 726.647 283.712C751.891 265.955 779.899 252.425 808.99 242.398C809.831 242.398 810.793 242.277 811.634 242.277C829.786 241.794 848.057 244.089 865.848 247.472C906.118 255.082 943.623 281.538 962.135 318.503C979.565 353.415 979.685 398.474 962.135 433.386C953.84 450.057 940.738 463.587 923.668 471.197C904.916 479.533 881.836 478.808 863.684 469.506C859.838 467.573 856.352 465.278 853.106 462.5C850.702 460.446 848.538 458.151 846.735 455.614C847.336 458.03 848.057 460.325 848.658 462.741C852.505 477.238 856.592 491.492 866.449 503.331C881.115 520.726 904.315 529.666 926.313 531.961C968.626 536.31 1008.78 515.411 1032.34 480.62C1073.45 420.098 1062.27 326.356 1007.81 277.672C989.302 261.122 966.462 248.438 943.743 238.412C933.285 233.821 922.586 229.835 911.647 226.815C945.426 230.922 977.762 241.553 1006.61 259.914C1037.26 279.484 1064.67 309.806 1067.56 347.738C1067.8 350.395 1067.8 353.053 1067.68 355.59C1067.56 358.489 1067.32 361.388 1066.96 364.167C1068.88 363.2 1070.56 361.992 1072.25 360.663C1080.9 353.536 1086.19 342.302 1088.35 331.067C1092.8 307.994 1083.42 287.216 1068.64 269.82C1062.99 263.176 1056.62 257.257 1049.77 251.941C1056.74 254.358 1063.59 256.894 1070.44 259.431C1077.9 262.21 1085.35 265.109 1092.68 268.008C1097.73 270.062 1102.54 272.961 1107.47 275.256C1106.87 276.706 1106.38 278.276 1105.9 279.847C1104.46 286.008 1104.94 292.289 1107.23 297.967C1095.69 317.175 1093.76 341.577 1093.76 363.563C1093.88 386.153 1097.01 409.588 1106.74 430.125C1124.54 467.453 1162.04 487.385 1194.02 510.579C1205.56 518.914 1216.49 528.095 1225.87 538.847C1231.76 545.612 1237.41 552.739 1242.34 560.229C1244.5 563.369 1246.43 566.631 1248.23 569.772C1249.07 571.101 1249.79 572.55 1250.63 574C1252.08 571.463 1253.52 568.806 1254.84 566.148C1260.61 555.155 1266.14 544.041 1271.07 532.686C1289.22 536.31 1307.97 534.015 1324.68 526.766C1332.01 537.518 1344.4 545.37 1356.06 550.202C1371.08 556.363 1386.95 559.021 1403.18 559.504C1419.05 559.987 1434.91 558.054 1450.42 554.672C1469.53 550.564 1488.29 543.799 1506.2 535.102C1508.24 543.679 1518.94 549.96 1526.63 552.739C1541.06 557.813 1558.13 556.604 1573.15 555.396C1580.48 554.792 1587.7 553.947 1594.91 552.98C1600.32 552.256 1605.73 550.806 1611.26 550.202C1615.35 549.719 1619.55 549.719 1623.76 549.96V542.833C1623.28 542.833 1622.92 542.712 1622.44 542.712C1608.85 541.504 1595.63 543.558 1582.17 545.128C1567.26 546.82 1552 547.907 1537.09 545.732C1530.96 544.887 1524.71 543.437 1519.42 540.175C1516.05 538.122 1514.37 535.102 1512.81 531.961C1522.3 527.129 1531.44 521.693 1540.34 515.773C1544.78 519.397 1555.24 519.035 1559.45 519.035C1569.67 519.035 1579.76 516.861 1589.86 515.653C1599.96 514.445 1609.82 514.565 1619.79 516.377C1621.11 516.619 1622.44 516.861 1623.64 517.223V513.116C1616.43 510.337 1608.85 508.646 1600.8 508.646C1591.18 508.646 1581.69 510.216 1572.19 511.062C1564.5 511.666 1555.72 512.391 1547.91 510.7C1553.92 506.472 1559.69 502.002 1565.34 497.411C1568.1 495.962 1570.99 494.754 1574.23 493.908C1580.24 492.338 1586.62 491.734 1592.87 491.251C1602.84 490.526 1613.54 489.801 1623.64 490.888V485.331C1613.06 483.64 1602.24 484.365 1591.66 485.21C1586.86 485.573 1582.05 486.056 1577.36 487.022C1577.96 486.539 1578.44 486.056 1579.04 485.452C1589.86 475.425 1599.84 464.795 1609.33 453.56C1614.26 447.641 1619.07 441.601 1623.76 435.319V429.883C1617.15 437.977 1610.18 445.829 1603.08 453.56C1590.1 467.694 1575.92 480.862 1560.77 492.7C1553.68 498.378 1546.23 503.693 1538.65 508.646C1528.68 515.169 1518.34 521.209 1507.64 526.525C1492.61 534.015 1476.87 540.175 1460.64 544.645C1442.85 549.598 1424.33 552.135 1405.82 552.256C1390.8 552.376 1375.53 550.564 1361.23 546.095C1354.25 543.92 1347.52 540.659 1341.39 536.672C1336.46 533.531 1332.26 529.545 1328.41 525.317C1335.98 521.693 1343.07 516.861 1349.44 511.304C1358.22 523.505 1372.65 528.337 1387.43 530.149C1406.18 532.444 1425.54 529.545 1443.93 525.679C1451.86 523.988 1459.56 521.934 1467.25 519.639C1478.19 516.257 1489.01 512.029 1499.46 507.076C1522.06 496.203 1542.5 481.345 1561.25 464.916C1568.94 458.151 1576.28 451.023 1583.37 443.534C1590.34 436.165 1597.19 428.554 1603.81 421.065C1610.66 413.212 1617.39 405.239 1624 397.387V394.488V388.69V386.998C1621.84 389.294 1619.67 391.589 1617.39 393.763C1619.67 390.139 1621.84 386.394 1624 382.649V377.938V377.334V374.314V373.106V371.656V369.361C1623.28 370.328 1622.44 371.173 1621.6 371.898C1621.96 370.207 1622.44 368.636 1622.8 366.945C1623.28 365.012 1623.76 363.079 1624 361.026V360.059V337.832V333.362C1623.64 331.067 1623.04 328.772 1622.32 326.597C1621.24 320.92 1619.91 315.363 1618.11 310.047C1614.5 298.692 1609.58 287.941 1603.44 277.793C1596.83 266.679 1588.54 257.982 1579.04 249.405C1569.91 241.311 1559.09 232.251 1556.56 219.687C1554.4 209.54 1558.25 198.668 1564.62 190.816C1571.35 182.601 1582.17 178.856 1592.51 180.306C1602.36 181.635 1610.66 188.4 1616.91 195.768C1619.55 198.909 1621.84 202.171 1623.88 205.674V191.299C1622.44 188.762 1620.15 186.346 1617.75 184.051ZM1066.72 189.728C1085.47 179.702 1100.97 163.998 1109.03 144.186C1124.3 106.979 1110.95 54.3092 1072.25 37.6385C1070.56 36.9137 1068.88 36.3096 1067.08 35.7056C1097.97 33.5312 1130.79 54.6716 1136.56 86.0801C1145.09 132.831 1109.03 176.923 1066.72 191.299C1064.19 192.144 1061.67 192.869 1059.02 193.594C1061.67 192.265 1064.19 191.057 1066.72 189.728ZM36.6532 179.219C28.8397 172.816 22.108 165.326 16.5784 156.991C9.72658 146.723 3.59598 134.763 2.87473 122.2C2.27368 111.932 10.8085 95.9859 22.8293 102.992C31.364 107.945 33.1672 119.542 34.8501 128.482C38.6967 148.414 44.3465 167.018 59.0119 181.755C67.5466 190.332 77.4037 197.218 88.2224 202.05C73.4368 198.668 59.0119 193.232 45.4284 185.984C42.3029 183.809 39.418 181.514 36.6532 179.219ZM-51.4593 143.944C-61.4366 137.904 -71.1734 131.26 -80.189 123.891C-98.5808 108.912 -114.448 90.5498 -127.671 70.8591C-133.201 62.7653 -137.769 53.7052 -141.255 44.5242C-142.938 40.1753 -144.861 34.86 -145.582 29.5447C-146.424 24.2294 -146.183 18.9141 -143.779 14.4445C-135.244 -1.13902 -115.29 16.8605 -107.356 24.2294C-89.8057 40.6585 -79.7082 63.1277 -69.2501 84.2681C-57.9505 107.1 -45.6893 129.206 -30.0623 149.018C-28.1389 151.797 -26.0954 154.454 -23.9317 157.112C-33.3079 153.246 -42.6841 149.26 -51.4593 143.944ZM-8.1844 166.051C-14.6756 159.89 -20.5658 153.125 -25.6146 145.636C-32.1058 136.213 -37.395 125.824 -41.1214 114.831C-48.2137 94.1739 -51.5795 70.6175 -42.5639 50.0811C-37.5152 38.3633 -28.8602 28.0951 -17.3202 22.4174C-4.21754 16.0149 9.967 19.8806 20.9059 28.6991C27.0365 33.652 31.4842 39.8129 33.1671 47.5442C35.0905 55.8796 31.4842 63.2485 26.3153 69.651C21.9878 74.9663 13.9339 77.7448 7.56284 78.9528C4.31721 79.5568 1.31203 79.436 -1.33255 78.832C6.36076 75.812 13.0924 69.4094 16.4582 61.9197C18.5018 57.2084 19.4634 52.1347 18.5018 46.9402C16.9391 37.8801 8.88512 32.5648 0.350357 31.5984C-9.38651 30.5111 -19.9648 36.3096 -26.3358 43.3162C-39.6789 58.1748 -38.4768 82.3353 -34.0291 100.456C-29.4612 119.422 -18.8829 136.696 -6.14087 151.192C7.56284 166.776 24.5122 179.702 42.7838 189.366C46.39 191.661 50.1165 193.956 53.8429 195.889C57.93 198.064 62.2575 200.359 66.8254 202.413C59.2523 201.084 51.6792 199.151 44.3465 196.735C24.7526 190.574 6.72139 180.064 -8.1844 166.051ZM-44.4872 242.881C-53.1422 246.505 -62.0376 249.888 -71.2936 251.579C-77.5444 252.666 -87.1611 252.908 -89.8056 245.539C-92.8109 237.324 -83.7953 227.419 -78.6263 222.224C-70.8128 214.251 -60.2345 209.661 -49.7764 206.157C-30.4229 199.513 -10.228 197.097 10.0872 198.668C24.8728 199.755 39.2978 202.533 53.9631 204.708C55.2854 205.07 56.7279 205.433 58.0502 205.674C57.2087 205.916 56.2471 206.157 55.4056 206.399C40.1392 211.352 24.392 214.372 9.24576 219.325C-9.5067 225.486 -26.3358 235.392 -44.4872 242.881ZM288.609 268.975C302.313 272.599 317.098 274.652 331.403 274.29C347.631 273.807 364.1 269.216 377.443 259.914C388.622 252.183 400.763 237.324 401.725 222.587C416.39 230.922 435.143 230.801 448.606 219.687C458.583 211.352 464.954 196.856 459.906 184.171C459.184 182.48 456.54 183.326 456.9 185.017C458.824 196.614 452.934 207.003 444.519 214.372C435.744 222.103 424.444 223.432 413.505 220.291C392.589 214.251 380.568 191.782 380.448 171.004C380.328 152.763 388.262 134.522 404.249 124.978C418.915 116.281 437.066 115.797 453.414 119.18C471.926 123.046 488.996 133.072 500.175 148.535C511.956 164.722 516.163 185.621 515.201 205.312C513.158 248.801 483.947 285.283 442.956 298.33C409.779 308.839 375.399 303.162 342.583 294.101C325.874 289.511 309.646 283.712 293.898 276.344C286.445 272.84 278.872 268.491 272.02 263.297C272.141 263.297 272.261 263.297 272.381 263.297C277.55 265.834 283.32 267.646 288.609 268.975ZM314.574 218.358C330.321 197.701 342.222 174.024 348.473 148.656C353.401 128.723 354.243 107.462 351.478 87.1674C348.833 67.9598 341.621 48.2691 326.475 35.5848C301.832 14.9277 256.514 18.6725 239.204 47.4234C231.03 61.0741 231.751 78.9528 242.569 90.7914C252.547 101.784 269.135 107.341 283.681 104.804C288.489 103.959 292.696 101.905 296.062 98.8852C293.778 104.563 287.647 108.429 281.878 110.845C273.944 114.106 265.048 114.952 256.634 113.381C239.083 110.12 226.101 95.5027 221.293 79.0736C218.889 70.8591 218.889 62.0405 221.052 53.7052C223.577 44.041 230.068 36.1888 237.16 29.3031C253.629 13.1156 277.31 6.10911 300.149 7.80034C340.779 10.6996 364.701 48.8731 368.187 86.5633C370.952 116.643 368.668 148.052 358.811 176.682C352.319 195.648 340.178 217.634 325.152 231.284C314.213 241.19 300.991 249.042 286.926 253.391C282.839 254.599 278.872 255.445 274.905 255.686C279.954 253.029 284.763 249.646 289.21 245.901C298.707 237.808 307.121 228.264 314.574 218.358ZM276.348 201.205C272.621 185.5 254.109 181.755 241.127 177.286C234.275 174.991 227.784 171.729 224.418 164.964C220.091 156.508 223.456 147.327 230.308 141.528C237.28 135.609 247.738 133.314 256.754 133.918C268.294 134.643 277.79 142.374 284.883 150.83C300.029 169.192 302.673 193.232 295.1 215.338C291.614 225.486 285.965 235.029 277.79 241.915C271.9 246.868 264.928 249.284 257.595 249.767C270.939 238.653 280.315 217.754 276.348 201.205ZM754.776 202.533C765.715 181.393 773.047 157.353 774.73 132.589C776.053 112.173 773.889 90.6706 765.835 70.9799C758.142 52.1347 744.077 29.6655 723.882 23.9878C714.266 21.3302 702.005 22.1758 694.672 28.8199C688.181 34.6184 684.935 43.9202 689.262 52.9803C695.754 66.3894 712.102 72.9127 725.445 70.1342C723.642 72.3087 721.358 74.1207 718.233 75.4495C712.222 78.1072 703.928 80.2816 697.076 77.8656C688.902 75.0871 681.329 70.6175 677.723 61.9197C674.357 54.0676 674.116 45.853 676.04 37.8801C679.526 23.7462 688.782 12.0284 703.447 10.3372C716.429 8.76675 729.893 13.1156 741.433 20.6054C761.628 33.8936 773.648 56.9668 780.621 79.6776C787.232 100.939 789.035 123.408 785.429 144.548C781.943 165.689 773.648 185.5 761.748 202.413C755.497 211.11 748.525 219.325 740.711 226.452C740.591 226.573 740.351 226.694 740.231 226.815C739.509 227.177 738.908 227.66 738.187 228.023C744.558 220.291 750.088 211.594 754.776 202.533ZM818.847 91.1538C827.021 69.4094 841.326 50.3227 859.597 35.9472C875.104 23.7462 893.977 17.4645 912.729 12.1492H912.849C926.673 52.0139 922.827 98.0395 900.348 133.918C887.606 154.213 869.214 173.058 846.975 182.601C842.768 184.413 838.441 185.742 833.993 186.829C828.704 188.158 823.174 189.004 817.885 189.366C826.42 176.561 836.036 164.602 845.292 152.28C852.144 147.448 864.766 150.588 870.176 155.541C871.137 156.387 872.219 155.058 871.378 154.092C866.329 148.776 857.554 145.273 849.74 145.998C852.745 142.012 855.51 137.904 858.275 133.676C858.515 133.435 858.876 133.193 858.996 132.831C864.526 124.133 880.393 127.394 886.764 133.193C887.726 134.039 888.808 132.589 887.966 131.743C882.317 125.824 871.858 122.079 863.684 124.133C867.05 117.126 870.536 109.033 876.426 105.288C883.158 101.06 891.452 101.664 897.703 106.375C898.545 106.979 899.506 105.771 898.665 105.046C893.135 100.093 883.278 97.5563 876.066 100.335C878.831 94.1739 880.393 84.1473 885.682 79.6776C889.89 76.0536 897.222 76.0536 901.911 78.832C902.632 79.1944 903.113 78.228 902.511 77.7448C897.944 74.6039 890.37 73.6375 885.202 76.416C887.846 68.6846 890.01 60.8325 892.053 52.9803C892.414 51.7723 890.491 51.5307 890.13 52.6179C887.966 60.4701 885.442 68.2014 882.557 75.6911C880.393 70.7383 874.743 66.7518 869.695 65.9062C868.973 65.7854 868.613 66.8726 869.334 67.1142C874.743 68.443 882.437 75.9327 879.792 82.0937C879.672 82.3353 879.672 82.6977 879.672 82.9393C877.388 88.4962 874.864 94.0531 872.219 99.3684C870.176 92.241 863.324 85.8385 856.472 83.7849C855.51 83.4225 854.789 84.9929 855.871 85.3553C875.825 93.0867 867.411 110.241 858.876 123.166C857.313 114.952 850.101 106.979 842.648 104.08C841.566 103.596 840.725 105.288 841.806 105.771C849.5 109.516 858.635 122.925 852.866 131.381C852.625 131.623 852.505 131.985 852.505 132.227C849.259 136.696 845.773 141.045 842.287 145.394C840.725 137.059 833.512 129.206 826.059 126.307C824.977 125.824 824.136 127.515 825.218 127.998C832.19 131.381 840.364 142.736 837.479 151.192C827.622 162.91 817.524 174.628 809.711 187.675C809.711 177.286 809.11 167.018 809.11 156.749C809.23 134.643 811.033 111.932 818.847 91.1538ZM20.7857 442.93C22.9495 449.332 27.1567 455.01 32.9267 458.876C30.4024 458.151 27.878 457.788 25.2334 457.788C14.5349 457.788 4.79807 463.466 -0.611298 472.526C-0.731506 472.285 -0.851715 471.922 -0.971924 471.681C-3.49629 466.365 -7.46317 462.137 -12.3917 459.117C-10.3481 459.6 -8.30461 459.842 -6.14087 459.842C-0.370895 459.842 5.15868 458.151 9.8468 455.251C14.5349 452.231 18.3816 448.003 20.7857 442.93ZM-138.61 471.681C-141.255 471.681 -143.899 471.197 -146.544 470.352C-159.286 466.003 -166.138 451.99 -161.81 439.185C-158.444 429.279 -149.068 422.514 -138.61 422.514C-135.966 422.514 -133.321 422.997 -130.676 423.843C-117.934 428.192 -111.082 442.205 -115.41 455.01C-118.896 464.916 -128.152 471.681 -138.61 471.681ZM-102.668 516.981C-105.312 516.981 -107.957 516.498 -110.602 515.653C-123.344 511.304 -130.196 497.291 -125.748 484.486C-122.382 474.459 -113.126 467.815 -102.548 467.815C-99.9031 467.815 -97.2585 468.298 -94.614 469.144C-81.8719 473.493 -75.0201 487.506 -79.3476 500.311C-82.8336 510.337 -92.2098 516.981 -102.668 516.981ZM-62.278 510.579C-59.6334 510.579 -56.9889 511.062 -54.3443 511.908C-41.6022 516.257 -34.7504 530.27 -39.0779 543.075C-42.4437 553.101 -51.6997 559.745 -62.278 559.745C-64.9226 559.745 -67.5672 559.262 -70.2117 558.417C-82.9538 554.068 -89.8056 540.055 -85.4782 527.25C-82.1123 517.344 -72.7361 510.579 -62.278 510.579ZM-68.4086 470.714C-71.0532 470.714 -73.6978 470.231 -76.3424 469.385C-82.473 467.211 -87.5217 462.862 -90.4067 456.943C-93.2917 451.023 -93.7725 444.379 -91.6088 438.218C-88.2429 428.192 -78.9869 421.548 -68.4086 421.548C-65.7641 421.548 -63.1195 422.031 -60.4749 422.877C-47.7328 427.225 -40.881 441.238 -45.2085 454.043C-48.5743 464.07 -57.9505 470.714 -68.4086 470.714ZM-4.81857 492.942C-8.1844 502.968 -17.5606 509.612 -28.0187 509.612C-30.6633 509.612 -33.3079 509.129 -35.9525 508.284C-42.2033 506.109 -47.1318 501.76 -50.0168 495.841C-52.9018 489.922 -53.3826 483.278 -51.2189 477.117C-50.0168 473.734 -48.2137 470.593 -45.8095 468.177C-41.2416 463.345 -34.8706 460.446 -28.0187 460.446C-25.3741 460.446 -22.7296 460.929 -20.085 461.775C-13.8342 463.949 -8.90565 468.298 -6.02066 474.217C-5.05899 476.271 -4.33775 478.446 -3.85693 480.62C-4.81859 484.486 -5.05899 488.351 -4.57817 492.217C-4.57817 492.459 -4.69836 492.7 -4.81857 492.942ZM47.2315 477.238C50.1165 483.157 50.5973 489.801 48.4336 496.083C45.0677 505.988 35.6915 512.753 25.2334 512.753C22.5889 512.753 19.9443 512.27 17.2997 511.424C11.0489 509.25 6.12035 504.901 3.23535 498.982C2.2737 496.928 1.55244 494.754 1.07161 492.579C2.03326 488.714 2.2737 484.848 1.79286 480.982C1.91307 480.741 1.91307 480.499 2.03328 480.258C5.39909 470.352 14.7753 463.587 25.2334 463.587C27.878 463.587 30.5226 464.07 33.1671 464.916C39.418 466.969 44.3465 471.318 47.2315 477.238ZM26.3153 425.534C29.6811 415.628 38.9371 408.863 49.5154 408.863C52.16 408.863 54.8046 409.347 57.4492 410.192C70.1912 414.541 77.0431 428.554 72.7156 441.359C69.3498 451.386 59.9735 458.03 49.5154 458.03C46.8709 458.03 44.2263 457.547 41.5817 456.701C28.8397 452.352 21.9878 438.339 26.3153 425.534ZM18.2614 430.97C18.1411 433.145 17.7805 435.319 16.9391 437.494C13.5732 447.52 4.19701 454.164 -6.26109 454.164C-8.90567 454.164 -11.5502 453.681 -14.1948 452.835C-26.9369 448.487 -33.7887 434.474 -29.4612 421.669C-26.0954 411.763 -16.8394 404.998 -6.26109 404.998C-3.61652 404.998 -0.971924 405.481 1.67265 406.327C1.79286 406.327 1.79285 406.327 1.91306 406.447C12.4914 410.072 18.8624 420.219 18.2614 430.97ZM35.2107 384.461C31.8448 394.488 22.4686 401.132 12.0105 401.132C9.36597 401.132 6.72139 400.649 4.07681 399.803C-2.0538 397.629 -7.10254 393.28 -9.98753 387.361C-12.8725 381.441 -13.3533 374.797 -11.1896 368.636C-7.82378 358.731 1.55244 351.966 12.0105 351.966C14.6551 351.966 17.4199 352.449 19.9443 353.294C21.3868 353.778 22.8293 354.503 24.1515 355.227C26.4355 357.402 28.8397 359.335 31.2438 361.388C36.2926 367.67 38.0957 376.247 35.2107 384.461ZM88.3426 280.692C127.41 296.638 157.222 331.913 169.002 372.381C168.401 372.623 167.92 372.744 167.439 372.985C149.528 379.388 131.016 384.945 111.903 384.099C88.7032 383.133 66.1042 376.005 46.8709 363.079C42.1828 359.939 37.735 356.435 33.5278 352.811C21.1463 341.939 10.568 328.772 0.951385 315.483C-5.05901 307.148 -10.4684 298.329 -16.4788 289.994C-2.53464 295.913 12.3712 299.538 27.277 303.403C34.4894 308.477 34.4894 322.49 30.763 329.376C30.1619 330.463 31.7247 331.309 32.4459 330.342C36.7734 323.577 38.2159 312.947 34.6096 305.336C40.019 306.786 45.3082 308.356 50.5973 310.047C50.8377 310.289 51.0781 310.41 51.4388 310.531C61.0554 314.034 61.416 330.221 57.329 337.832C56.7279 338.919 58.2906 339.765 59.0119 338.798C63.3394 332.033 64.7819 321.403 61.1756 313.792C75.7208 319.228 92.4297 328.288 80.6493 346.167C80.0483 347.134 81.3705 347.979 82.0918 347.134C86.4193 341.577 88.3426 332.275 85.8183 325.268C91.1074 328.047 96.3966 331.188 101.445 334.329C101.566 334.57 101.806 334.691 102.046 334.933C107.816 338.436 105.893 348.946 102.167 353.174C101.686 353.778 102.527 354.503 103.128 354.019C106.734 350.395 109.018 343.872 107.816 338.557C114.548 343.026 121.159 347.858 127.41 352.932C128.372 353.657 129.694 352.328 128.733 351.603C122.602 346.288 116.111 341.335 109.499 336.503C115.269 335.899 120.919 330.584 122.842 325.389C123.083 324.664 122.001 324.181 121.76 324.906C119.477 329.859 113.586 334.208 108.057 333.725C101.205 333.121 93.9924 325.993 88.2224 322.49C95.6753 320.557 102.167 312.705 103.849 305.336C104.09 304.249 102.527 303.766 102.287 304.853C100.003 312.343 93.3914 317.658 85.5779 318.262C78.6058 318.745 71.0327 314.034 64.301 310.41C72.2348 307.269 78.4856 298.209 79.6877 289.994C79.8079 288.786 78.1249 288.424 77.8845 289.632C75.9612 297.967 65.0223 309.927 55.5258 306.061C55.1652 305.94 54.8046 305.819 54.444 305.819C49.7558 304.007 45.0677 302.316 40.3796 300.746C47.1113 296.88 52.2802 288.786 53.2419 281.538C53.4823 280.33 51.6792 279.968 51.4388 281.176C49.7558 288.424 41.3413 298.33 33.047 298.45C18.3816 293.86 3.59598 289.753 -10.7088 284.316C-2.17401 279.243 7.32242 275.015 16.9391 272.84C40.2594 267.042 66.1042 271.632 88.3426 280.692ZM191.962 282.504C232.352 310.289 262.764 356.073 262.764 406.327C262.764 424.809 258.076 444.621 246.056 459.117C235.958 471.318 221.172 479.533 205.786 482.432C189.678 485.452 173.81 481.103 162.03 469.748C150.37 458.513 144.72 442.205 141.475 426.259C144.48 427.105 147.605 427.588 150.971 427.709C157.102 427.95 163.232 426.742 169.002 424.689C170.324 424.205 171.527 423.722 172.849 423.118C180.783 419.615 186.072 413.937 191.481 407.293C206.507 389.173 199.896 360.422 191.962 340.852C182.826 318.383 167.319 298.45 149.168 282.625C139.311 273.927 128.733 266.438 116.832 261.002C107.576 256.774 97.7188 254.72 87.6214 253.512C83.7747 253.029 79.9281 252.546 75.841 252.304C81.4908 251.7 87.1405 251.337 92.7903 251.096C105.052 251.458 117.193 252.787 129.334 255.566C151.692 260.398 172.969 269.579 191.962 282.504ZM318.902 403.065C315.055 418.648 297.745 436.044 281.397 427.225C287.287 419.011 289.691 409.951 289.931 400.649C290.292 389.052 287.407 376.972 283.681 365.616C280.555 355.952 275.266 346.771 270.217 338.073C264.688 328.651 258.557 319.711 251.345 311.618C237.16 295.551 220.211 281.417 201.338 271.149C216.364 277.431 231.03 284.92 244.974 293.377C258.918 301.712 272.02 311.376 284.763 321.282C295.822 332.396 304.837 345.563 311.809 359.697C318.18 372.864 322.508 388.448 318.902 403.065ZM336.332 475.063C335.851 468.781 341.26 464.916 346.91 465.278C347.391 465.278 347.992 465.399 348.473 465.52C350.035 465.882 351.358 466.607 352.319 467.694C355.565 471.077 356.166 477.237 353.762 481.224C352.079 484.002 349.795 485.21 347.391 485.452C342.342 485.814 336.813 481.224 336.332 475.063ZM340.058 487.264C346.549 488.593 348.593 497.653 345.347 502.848C343.664 505.626 341.38 506.834 338.976 507.076C333.807 507.438 328.278 502.848 327.797 496.807C327.797 496.566 327.797 496.445 327.797 496.324C328.037 495.358 328.158 494.271 328.158 493.304C329.72 488.593 334.889 486.177 340.058 487.264ZM319.382 481.466C323.95 482.432 326.234 487.143 326.234 491.734C325.633 493.063 325.273 494.512 325.273 496.203C325.152 496.566 324.912 496.807 324.792 497.17C323.109 499.948 320.825 501.156 318.421 501.398C313.252 501.76 307.722 497.17 307.241 491.13C307.001 488.23 307.963 485.814 309.766 484.123C310.247 484.123 310.848 483.761 310.848 483.157C313.132 481.466 316.257 480.741 319.382 481.466ZM361.335 383.616C376.842 400.528 388.742 420.944 394.512 443.171C399.922 463.949 400.282 488.593 391.748 508.646C385.256 523.988 372.755 536.189 358.33 544.162C332.365 558.537 298.106 556.846 280.555 530.39C270.458 515.169 269.616 498.015 279.714 482.674C283.32 477.117 289.21 471.922 295.942 471.077C302.673 470.231 306.64 475.909 308.443 481.707C306.16 483.761 304.597 486.781 304.597 490.284C304.356 499.586 317.82 508.646 325.273 501.277C325.513 501.036 325.874 500.673 326.114 500.311C329.119 507.8 339.698 513.357 345.948 507.076C350.516 502.485 349.675 492.821 345.227 487.747C348.473 488.472 351.839 487.989 354.483 485.331C359.171 480.62 358.21 470.473 353.281 465.52C353.401 465.278 353.521 464.916 353.521 464.674C355.565 458.634 356.647 452.111 357.008 445.708C357.969 431.453 354.964 417.44 350.516 404.031C344.025 384.703 334.048 364.771 319.262 350.154C322.628 352.086 325.874 354.019 329.119 356.073C333.447 359.335 338.015 362.596 342.462 365.737C349.074 371.294 355.445 377.334 361.335 383.616ZM615.575 462.137C621.105 489.68 611.728 520.001 599.227 545.008C599.227 538.847 599.227 532.565 598.385 526.404C597.183 517.827 595.14 509.492 592.255 501.277C586.725 485.694 578.19 471.318 567.492 458.755C556.673 445.829 543.45 435.923 528.184 429.037C517.125 424.085 505.464 420.702 493.804 417.561C510.994 416.716 527.823 413.454 544.051 408.259C577.95 402.582 608.964 428.917 615.575 462.137ZM637.813 418.044C631.683 431.333 609.324 413.937 601.991 409.709C594.178 405.119 583.84 398.716 573.863 398.112C599.106 387.119 652.839 385.549 637.813 418.044ZM724.724 292.289C754.415 278.518 787.593 270.424 820.409 271.511C850.822 272.478 880.874 282.867 901.55 306.061C926.192 333.725 934.246 374.676 916.095 408.018C909.724 419.615 899.506 429.158 886.764 433.024C874.263 436.648 862.001 433.87 853.346 424.085C845.172 414.783 841.806 401.978 842.047 389.777C842.287 376.609 847.456 365.254 856.231 356.194C858.035 354.382 859.958 352.57 862.001 350.878C861.04 349.55 860.078 348.342 859.116 347.134C854.428 341.697 848.538 336.986 842.648 333.241C823.054 320.799 800.575 312.826 777.615 309.927C739.63 305.215 699.12 313.43 665.461 332.517C665.822 332.154 666.303 331.792 666.663 331.429C673.635 325.631 680.607 319.832 687.7 314.034C699.24 305.578 711.862 298.33 724.724 292.289ZM915.013 233.338C940.257 240.224 964.419 252.062 986.176 266.559C1003.49 278.156 1018.15 291.927 1029.21 309.806C1039.07 325.872 1045.44 343.872 1049.05 362.355C1056.26 399.32 1051.21 439.547 1031.86 472.164C1011.06 507.317 973.434 528.578 932.563 527.612C909.844 527.008 886.884 518.189 871.137 501.277C862.602 492.096 858.996 480.62 855.751 469.023C877.628 487.022 914.652 487.022 938.333 473.009C971.271 453.56 984.493 412.004 984.734 375.522C984.854 333.121 965.5 293.014 931.842 267.283C915.494 254.841 895.419 244.21 875.224 239.74C862.963 237.083 850.582 235.15 838.08 234.063C850.702 231.164 863.564 228.989 876.667 227.66C889.409 228.264 902.391 229.835 915.013 233.338ZM1059.38 269.941C1073.69 284.558 1084.63 303.282 1083.18 324.423C1082.58 332.637 1080.18 341.093 1075.61 347.979C1074.89 349.066 1074.17 349.912 1073.45 350.878C1072.12 286.974 1000.96 240.828 943.743 227.419C943.382 227.298 943.022 227.298 942.661 227.177C952.999 228.023 963.096 229.351 973.194 231.043C989.662 233.821 1005.77 237.808 1021.76 242.64C1035.58 249.646 1048.32 258.706 1059.38 269.941ZM1364.95 68.5638C1367.24 69.047 1369.52 69.651 1371.92 70.3759C1411.95 83.3017 1437.2 126.67 1427.7 168.105C1427.22 170.038 1426.74 171.97 1426.14 173.903C1425.54 176.078 1424.82 178.131 1424.09 180.185C1413.88 209.178 1391.88 232.613 1363.03 244.089C1331.17 256.894 1294.63 257.015 1261.21 251.7C1256.4 250.975 1251.72 250.009 1247.03 249.042C1247.99 249.042 1248.83 249.163 1249.79 249.163C1257.61 249.646 1265.42 249.646 1273.23 249.163C1288.5 248.197 1303.65 245.056 1318.07 239.861C1347.4 229.231 1371.44 207.969 1382.98 178.494C1383.46 177.286 1381.66 176.44 1381.18 177.527C1368.56 206.278 1345 226.573 1315.79 236.841C1301.6 241.794 1286.58 244.089 1271.67 244.935C1265.54 245.297 1259.41 245.297 1253.28 244.935C1260.01 244.331 1266.62 243.365 1272.87 242.036C1290.42 238.412 1307.01 230.801 1321.56 220.412C1352.09 198.668 1371.44 164.481 1378.42 127.878C1378.66 126.67 1376.85 126.307 1376.49 127.515C1369.04 162.91 1350.05 195.648 1320.84 217.271C1306.89 227.539 1291.02 234.667 1274.19 238.653C1265.18 240.828 1255.8 241.794 1246.55 241.915C1242.82 242.036 1239.21 241.794 1235.49 241.432C1245.22 239.982 1254.96 237.928 1264.34 235.029C1307.85 221.983 1339.83 185.984 1353.65 143.34C1361.83 119.422 1364.83 94.0531 1364.95 68.5638ZM1122.61 234.063C1122.37 231.405 1122.49 228.747 1123.21 225.969C1125.86 214.855 1135.59 207.124 1147.01 207.124C1148.94 207.124 1150.86 207.365 1152.78 207.849C1159.16 209.419 1164.56 213.285 1167.93 218.842C1170.09 222.345 1171.3 226.211 1171.54 230.076C1171.66 232.492 1171.42 234.908 1170.94 237.324C1168.77 246.505 1161.68 253.391 1152.78 255.566C1150.98 256.049 1149.06 256.29 1147.13 256.29C1145.21 256.29 1143.29 256.049 1141.36 255.566C1130.79 253.029 1123.57 244.21 1122.61 234.063ZM1172.62 215.822C1172.14 215.097 1171.66 214.251 1171.06 213.526C1195.22 181.997 1224.67 151.434 1263.62 139.716C1264.34 144.669 1268.18 148.897 1273.59 149.864C1281.89 151.313 1290.54 139.837 1287.9 132.106C1284.41 122.2 1268.42 124.495 1264.58 132.951C1263.86 134.522 1263.62 136.092 1263.5 137.663C1253.4 140.199 1243.78 143.582 1234.53 148.535C1225.39 153.488 1216.98 159.286 1208.8 165.568C1192.81 178.011 1179.35 193.111 1166.85 208.936C1163.6 206.037 1159.76 203.862 1155.43 202.533C1159.64 193.232 1162.04 182.963 1165.77 173.42C1170.09 162.789 1176.35 153.609 1183.2 144.548C1196.3 127.153 1211.93 114.106 1231.88 105.288C1241.38 101.18 1251.36 98.0395 1261.21 95.2611C1271.31 92.3618 1281.29 89.221 1291.5 86.9257C1304.37 84.0265 1317.35 81.8521 1329.13 76.416C1330.33 75.812 1331.53 75.2079 1332.74 74.6039C1331.53 79.436 1330.21 84.2681 1329.01 88.9794C1326.36 99.006 1323.12 108.791 1319.03 118.334C1311.46 136.213 1301.12 152.763 1288.38 167.259C1275.28 182.239 1259.17 194.319 1241.62 203.621C1221.66 214.13 1198.34 222.587 1175.62 223.191C1175.14 220.654 1174.06 218.117 1172.62 215.822ZM1267.34 133.555C1270.47 128.24 1277.44 126.549 1281.89 129.206C1283.93 130.415 1285.49 132.589 1285.85 135.73C1286.46 141.77 1280.69 149.139 1274.31 147.448C1267.94 145.877 1263.86 139.475 1267.34 133.555ZM1136.08 262.33C1138 262.33 1139.92 262.572 1141.85 263.055C1145.33 263.901 1148.46 265.471 1151.22 267.525C1158.55 273.323 1162.28 282.988 1160 292.652C1158.31 299.538 1153.87 305.215 1148.1 308.477C1144.61 310.41 1140.52 311.497 1136.2 311.497C1134.27 311.497 1132.35 311.255 1130.43 310.772C1124.05 309.202 1118.65 305.336 1115.28 299.779C1111.91 294.222 1110.83 287.578 1112.27 281.176C1112.64 279.726 1113 278.397 1113.6 277.189C1117.44 268.25 1126.1 262.33 1136.08 262.33ZM1132.71 316.933C1133.79 317.054 1134.99 317.175 1136.08 317.175C1140.04 317.175 1143.77 316.45 1147.26 315C1151.58 333.966 1157.11 352.69 1165.77 370.086C1170.34 379.388 1175.5 388.327 1181.51 396.783C1187.65 405.36 1194.86 412.488 1202.79 419.252C1202.19 420.702 1201.71 422.273 1201.71 423.843C1201.47 433.145 1214.93 442.205 1222.39 434.836C1228.16 429.037 1225.27 415.024 1217.22 412.608C1211.93 411.038 1206.64 413.212 1203.87 417.32C1174.18 390.139 1160.96 350.516 1152.78 312.101C1154.83 310.651 1156.75 309.081 1158.43 307.148C1179.59 316.329 1198.22 333.241 1213.01 350.878C1225.75 366.1 1236.09 383.495 1242.46 402.34C1248.71 420.702 1252.08 439.91 1252.32 459.359C1252.44 469.627 1251.84 480.016 1250.39 490.284C1249.79 495.116 1249.19 500.069 1248.47 505.022C1247.99 504.418 1247.39 503.814 1246.91 503.21C1237.89 493.183 1226.11 485.935 1214.93 477.962C1206.4 471.922 1198.22 465.157 1190.05 458.634C1182 452.231 1173.94 445.587 1166.73 438.098C1151.58 422.393 1142.09 404.273 1136.56 383.253C1133.67 372.26 1131.27 361.267 1131.39 349.791C1131.39 338.919 1133.31 327.805 1132.71 316.933ZM1216.61 415.024C1223.11 416.353 1225.15 425.413 1221.9 430.608C1220.22 433.386 1217.94 434.594 1215.53 434.836C1210.36 435.319 1204.83 430.608 1204.35 424.568C1203.87 417.682 1210.24 413.816 1216.61 415.024ZM1270.71 523.626C1269.63 526.283 1268.54 528.941 1267.34 531.599C1263.02 541.746 1258.21 551.772 1253.28 561.678C1250.87 557.45 1248.23 553.343 1245.59 549.477C1239.33 540.175 1232.12 531.236 1224.07 523.505C1209.64 509.371 1192.69 498.136 1175.98 487.022C1159.4 475.909 1142.93 464.432 1129.7 449.332C1115.04 432.541 1107.35 412.729 1103.74 390.864C1098.81 361.509 1099.05 329.617 1109.75 301.47C1109.99 301.833 1110.23 302.316 1110.47 302.678C1114.68 309.564 1121.29 314.396 1129.1 316.329C1129.34 316.45 1129.7 316.45 1129.95 316.45C1126.94 338.436 1126.46 361.509 1132.23 383.012C1137.52 402.823 1145.69 420.944 1159.64 436.165C1174.42 452.231 1192.33 466.245 1210.24 478.808C1221.9 487.022 1235.13 494.271 1244.98 504.66C1246.07 505.747 1247.03 506.834 1247.99 508.042C1248.83 509.129 1249.67 510.216 1250.51 511.304C1250.75 510.458 1251.11 509.612 1251.36 508.767C1251.96 507.076 1252.44 505.384 1252.92 503.693C1254.24 498.74 1255.2 493.667 1256.04 488.472C1257.73 478.204 1258.81 467.815 1258.93 457.426C1259.29 437.373 1256.64 417.199 1250.03 398.233C1243.06 378.301 1232.36 359.576 1218.54 343.63C1203.15 325.993 1185.12 308.839 1163.48 299.296C1164.32 297.605 1164.93 295.672 1165.41 293.739C1167.57 284.8 1165.41 275.74 1160.36 268.733C1166.01 270.666 1172.26 271.511 1177.79 272.478C1187.4 274.169 1197.14 275.498 1206.76 277.31C1207.84 277.552 1208.92 277.793 1210 277.914C1223.59 280.572 1237.17 283.35 1250.63 286.612C1284.29 294.585 1318.79 304.732 1348.36 323.336C1361.83 331.792 1374.33 342.543 1382.98 356.194C1387.19 362.838 1390.56 370.086 1392.6 377.817C1394.88 386.273 1395.24 394.73 1395.85 403.427C1388.15 405.119 1380.94 414.3 1385.75 421.548C1390.2 428.313 1404.5 428.313 1408.47 420.702C1412.19 413.575 1408.23 404.998 1400.53 403.307C1399.81 403.186 1398.97 403.065 1398.25 403.065C1403.66 368.878 1381.3 337.832 1354.85 319.107C1346.08 312.947 1336.7 307.51 1326.97 302.92C1327.81 303.162 1328.65 303.282 1329.61 303.524C1345.48 307.39 1360.98 312.101 1376.49 317.416C1406.78 327.805 1435.39 344.838 1457.51 368.274C1453.67 372.019 1451.62 377.576 1454.75 382.408C1459.19 389.173 1473.5 389.173 1477.47 381.562C1481.19 374.435 1477.23 365.858 1469.53 364.167C1466.05 363.321 1462.08 364.65 1458.95 367.066C1436.84 342.301 1408.59 323.577 1377.69 311.618C1366.15 307.148 1354.25 303.162 1342.11 299.658C1354.61 300.987 1367.12 301.954 1379.5 302.195C1412.31 302.92 1445.25 296.517 1474.82 282.263C1479.87 288.182 1493.09 287.82 1496.82 280.692C1500.55 273.565 1496.58 264.988 1488.89 263.297C1480.11 261.364 1469.05 272.115 1473.62 280.692C1444.53 293.497 1412.07 298.209 1380.46 296.276C1364.11 295.309 1348 293.739 1331.89 291.202C1331.17 291.081 1330.57 290.961 1329.85 290.84C1340.43 290.236 1350.89 288.786 1361.11 286.491C1392.6 279.364 1425.06 259.069 1432.99 225.486C1438.52 226.331 1444.77 224.519 1447.05 219.929C1450.78 212.802 1446.81 204.225 1439.12 202.533C1430.1 200.48 1418.56 212.077 1424.33 220.775C1425.66 222.828 1427.94 224.278 1430.59 225.003C1426.98 232.613 1423.37 239.982 1418.32 246.747C1413.52 253.029 1407.63 258.465 1401.25 263.055C1388.15 272.357 1372.52 277.552 1356.78 280.209C1322.4 286.129 1286.7 282.263 1252.44 276.827C1238.73 274.652 1225.15 271.995 1211.57 269.337C1210.48 269.095 1209.4 268.854 1208.2 268.612C1198.58 266.679 1189.09 264.143 1179.59 262.089C1173.46 260.639 1166.49 258.948 1159.88 258.827C1167.81 254.962 1173.82 247.713 1175.98 238.653C1176.47 236.6 1176.71 234.425 1176.83 232.372C1200.27 231.768 1223.35 222.949 1244.14 212.439C1263.02 203.017 1279.96 189.728 1293.91 173.903C1307.25 158.924 1317.23 141.166 1324.56 122.562C1328.29 112.898 1331.29 102.872 1333.58 92.7243C1334.66 87.6506 1335.74 82.5769 1336.34 77.5032C1336.58 75.812 1336.7 73.9999 1336.82 72.3087C1336.82 71.4631 1336.94 70.4967 1336.94 69.651C1335.74 70.3759 1334.66 71.1007 1333.46 71.7047C1331.77 72.6711 1329.97 73.3959 1328.17 74.2415C1315.43 79.5568 1301 81.248 1287.54 84.3889C1266.26 89.1002 1244.38 95.2611 1224.67 104.563C1206.04 113.261 1191.61 126.911 1179.23 143.22C1166.13 160.373 1157.95 181.151 1152.42 202.05C1150.5 201.688 1148.7 201.567 1146.77 201.567C1139.44 201.567 1132.59 204.225 1127.42 208.694C1128.86 179.702 1140.52 151.434 1155.55 126.911C1167.21 108.066 1181.75 92.6034 1201.71 82.8185C1219.62 73.8791 1239.33 69.651 1258.81 65.6646C1278.52 61.6781 1298.36 57.8124 1317.11 50.3227C1327.57 46.0946 1337.54 40.6585 1346.92 34.4976C1350.77 31.84 1354.73 29.1823 1358.7 26.1623C1359.54 37.1553 1360.14 48.2691 1360.38 59.3829C1360.38 62.2821 1360.5 65.1814 1360.38 68.0806C1360.26 90.1874 1358.22 112.173 1352.21 133.555C1346.2 155.421 1336.34 176.561 1321.2 193.715C1305.69 211.231 1285.01 225.244 1262.41 231.647C1246.07 236.237 1228.64 239.499 1211.09 240.224C1206.64 240.465 1202.19 240.465 1197.74 240.344C1199.67 241.069 1201.71 241.673 1203.75 242.398C1205.8 243.123 1207.96 243.727 1210 244.452C1241.5 254.358 1274.68 260.76 1307.73 260.639C1340.31 260.639 1373.97 252.908 1399.33 231.284C1415.92 217.15 1428.66 197.701 1434.55 176.44C1450.54 170.158 1466.65 164.36 1482.4 157.957C1482.03 177.407 1483 197.581 1478.19 216.546C1476.26 224.399 1473.02 231.888 1468.81 239.016C1467.97 240.465 1467.13 241.915 1466.17 243.244C1469.41 243.606 1472.54 243.969 1475.78 244.573C1479.27 245.177 1482.88 245.781 1486.36 246.626C1496.34 248.801 1506.08 251.7 1515.69 254.841C1523.87 257.619 1532.4 260.398 1540.22 264.384C1533.24 278.276 1523.75 290.115 1511.49 299.779C1498.86 309.806 1484.08 316.329 1469.29 322.732C1467.85 323.336 1467.37 325.268 1467.97 326.476C1467.01 327.322 1466.65 329.255 1467.73 330.342C1478.91 341.939 1490.09 353.536 1498.02 367.67C1505.72 381.321 1510.04 395.938 1511.24 411.4C1502.59 412.125 1493.69 411.4 1485.04 410.796C1474.94 410.072 1464.72 408.984 1454.75 407.172C1451.26 406.568 1447.65 405.843 1444.17 404.998C1441.04 404.273 1437.92 403.427 1434.79 402.461C1435.15 404.152 1435.39 405.723 1435.63 407.414C1436.84 415.628 1436.96 423.843 1435.75 431.816C1432.99 451.144 1424.45 469.385 1417.48 487.506C1405.34 475.546 1392.6 464.07 1380.22 452.231C1382.74 430.366 1378.42 407.414 1368.32 388.086C1353.05 358.489 1324.8 338.436 1294.75 325.993C1264.22 313.309 1231.16 306.544 1198.22 303.645C1196.06 303.403 1193.78 303.282 1191.61 303.162C1189.45 303.041 1187.4 302.92 1185.36 302.799C1189.45 304.37 1193.54 306.061 1197.62 307.994C1199.43 308.839 1201.35 309.806 1203.15 310.651C1216.98 317.658 1229.96 326.235 1241.86 335.537C1260.25 350.154 1274.19 370.932 1281.89 393.038C1289.46 414.541 1290.42 437.977 1287.78 460.446C1285.25 482.07 1278.88 503.21 1270.71 523.626ZM1399.33 406.085C1406.18 406.931 1408.83 414.058 1406.3 419.977C1403.78 426.138 1394.52 426.38 1389.96 422.152C1387.67 419.977 1386.83 417.44 1387.07 415.024C1387.79 409.951 1393.32 405.36 1399.33 406.085ZM1468.33 366.945C1475.18 367.791 1477.83 374.918 1475.3 380.837C1472.78 386.998 1463.4 387.24 1458.95 383.012C1456.67 380.837 1455.83 378.301 1456.07 375.884C1456.67 370.811 1462.2 366.22 1468.33 366.945ZM1475.54 274.773C1476.14 269.579 1481.67 264.988 1487.8 265.713C1494.66 266.559 1497.3 273.686 1494.78 279.605C1492.25 285.766 1483 286.008 1478.43 281.78C1476.14 279.726 1475.3 277.189 1475.54 274.773ZM1428.78 221.258C1426.5 219.083 1425.66 216.546 1425.9 214.13C1426.5 208.936 1432.03 204.345 1438.04 205.07C1444.89 205.916 1447.53 213.043 1445.01 218.962C1442.49 225.123 1433.23 225.365 1428.78 221.258ZM1213.73 309.323C1213.49 309.323 1213.37 309.202 1213.13 309.202C1213.37 309.202 1213.61 309.202 1213.73 309.323ZM1322.64 518.431C1310.26 523.988 1296.43 526.646 1282.37 525.558C1279.96 525.317 1277.68 525.075 1275.28 524.592C1284.77 500.915 1291.62 476.392 1293.55 450.782C1296.91 406.085 1281.05 360.543 1245.71 331.792C1238.49 325.993 1230.8 320.557 1222.87 315.725C1225.87 316.691 1228.88 317.779 1231.76 318.987C1240.3 322.611 1248.47 327.08 1256.04 332.517C1270.11 342.543 1282.13 355.348 1291.02 370.086C1309.9 401.253 1315.07 438.702 1308.57 474.338C1308.33 475.546 1310.26 475.909 1310.5 474.701C1317.95 438.218 1312.9 399.199 1292.95 367.428C1283.45 352.207 1270.95 338.919 1256.16 328.772C1250.87 325.148 1245.1 321.765 1239.09 318.624C1244.86 320.678 1250.51 323.094 1256.04 325.752C1269.51 332.275 1282.49 340.127 1293.79 350.154C1316.99 370.811 1331.05 398.595 1331.89 430.004C1331.89 431.333 1333.82 431.091 1333.94 429.883C1334.42 398.354 1320.23 369.361 1297.15 348.342C1285.85 338.073 1272.99 329.376 1259.17 322.611C1252.08 319.228 1244.86 316.208 1237.41 313.671C1235.85 313.067 1234.17 312.584 1232.48 311.98C1238.01 312.947 1243.42 314.155 1248.95 315.483C1281.89 323.336 1315.55 337.469 1340.19 361.388C1362.43 383.012 1373.97 413.092 1372.4 443.896C1372.28 446.071 1372.16 448.245 1371.92 450.419C1371.68 452.352 1371.44 454.406 1371.08 456.339C1367.96 475.063 1358.46 491.492 1345 503.572C1338.39 509.733 1330.81 514.807 1322.64 518.431ZM1489.37 502.606C1511 487.385 1531.08 469.869 1550.07 449.695C1567.02 431.695 1580.36 411.763 1591.18 389.535C1599.84 371.536 1609.58 347.134 1599.12 327.926C1585.41 302.799 1548.75 321.403 1538.53 340.006C1532.4 350.999 1534.45 365.858 1538.65 377.213C1540.46 382.166 1543.22 387.361 1546.83 391.589C1530.96 386.636 1520.74 367.912 1520.02 351.603C1519.42 337.107 1526.63 323.819 1537.21 314.396C1555.84 297.846 1594.19 289.753 1610.18 314.759C1612.94 319.107 1614.98 323.94 1616.31 328.892C1619.07 339.161 1618.83 350.154 1617.39 360.543C1613.42 387.24 1600.44 411.28 1583.97 432.903C1568.22 448.97 1551.39 464.191 1533.36 477.358C1519.42 487.143 1504.75 495.72 1489.37 502.606Z" fill="#FFEED5"/>
</svg>
