<svg width="19" height="19" viewBox="0 0 19 19" fill="none" xmlns="http://www.w3.org/2000/svg">
<path d="M18.0495 1.26667H15.8328V0.316667C15.8328 0.14155 15.6913 0 15.5161 0H13.2995C13.1244 0 12.9828 0.14155 12.9828 0.316667V1.26667H6.01615V0.316667C6.01615 0.14155 5.8746 0 5.69948 0H3.48281C3.3077 0 3.16615 0.14155 3.16615 0.316667V1.26667H0.949479C0.774363 1.26667 0.632812 1.40822 0.632812 1.58333V5.06667V18.6833C0.632812 18.8584 0.774363 19 0.949479 19H18.0495C18.2246 19 18.3661 18.8584 18.3661 18.6833V5.06667V1.58333C18.3661 1.40822 18.2246 1.26667 18.0495 1.26667ZM13.6161 0.633333H15.1995V1.58333V2.53333H13.6161V1.58333V0.633333ZM3.79948 0.633333H5.38281V1.58333V2.53333H3.79948V1.58333V0.633333ZM1.26615 1.9H3.16615V2.85C3.16615 3.02512 3.3077 3.16667 3.48281 3.16667H5.69948C5.8746 3.16667 6.01615 3.02512 6.01615 2.85V1.9H12.9828V2.85C12.9828 3.02512 13.1244 3.16667 13.2995 3.16667H15.5161C15.6913 3.16667 15.8328 3.02512 15.8328 2.85V1.9H17.7328V4.75H1.26615V1.9ZM1.26615 18.3667V5.38333H17.7328V18.3667H1.26615Z" fill="#6C6767"/>
<path d="M12.0324 7.28345H9.81575H9.18242H6.96575H6.33242H3.48242V10.1334V10.7668V12.9834V13.6168V16.4668H6.33242H6.96575H9.18242H9.81575H12.0324H12.6658H15.5158V13.6168V12.9834V10.7668V10.1334V7.28345H12.6658H12.0324ZM9.81575 7.91678H12.0324V10.1334H9.81575V7.91678ZM12.0324 12.9834H9.81575V10.7668H12.0324V12.9834ZM6.96575 10.7668H9.18242V12.9834H6.96575V10.7668ZM6.96575 7.91678H9.18242V10.1334H6.96575V7.91678ZM4.11576 7.91678H6.33242V10.1334H4.11576V7.91678ZM4.11576 10.7668H6.33242V12.9834H4.11576V10.7668ZM6.33242 15.8334H4.11576V13.6168H6.33242V15.8334ZM9.18242 15.8334H6.96575V13.6168H9.18242V15.8334ZM12.0324 15.8334H9.81575V13.6168H12.0324V15.8334ZM14.8824 15.8334H12.6658V13.6168H14.8824V15.8334ZM14.8824 12.9834H12.6658V10.7668H14.8824V12.9834ZM14.8824 7.91678V10.1334H12.6658V7.91678H14.8824Z" fill="#6C6767"/>
</svg>
