<svg width="22" height="27" viewBox="0 0 22 27" fill="none" xmlns="http://www.w3.org/2000/svg">
<path d="M21.6055 23.3393L20.0595 5.93006C20.0264 5.54356 19.7006 5.25092 19.3196 5.25092H16.1393C16.0951 2.34663 13.7209 0 10.8055 0C7.89018 0 5.51595 2.34663 5.47178 5.25092H2.29141C1.90491 5.25092 1.58466 5.54356 1.55153 5.93006L0.0055216 23.3393C0.0055216 23.3614 0 23.3834 0 23.4055C0 25.3877 1.81656 27 4.05276 27H17.5583C19.7945 27 21.611 25.3877 21.611 23.4055C21.611 23.3834 21.611 23.3614 21.6055 23.3393ZM10.8055 1.4908C12.8982 1.4908 14.6043 3.16933 14.6485 5.25092H6.96258C7.00675 3.16933 8.71288 1.4908 10.8055 1.4908ZM17.5583 25.5092H4.05276C2.65031 25.5092 1.51288 24.5816 1.4908 23.4387L2.97055 6.74724H5.46626V9.01104C5.46626 9.42515 5.79755 9.75644 6.21166 9.75644C6.62577 9.75644 6.95705 9.42515 6.95705 9.01104V6.74724H14.6485V9.01104C14.6485 9.42515 14.9798 9.75644 15.3939 9.75644C15.808 9.75644 16.1393 9.42515 16.1393 9.01104V6.74724H18.635L20.1202 23.4387C20.0982 24.5816 18.9552 25.5092 17.5583 25.5092Z" fill="#DC143C"/>
</svg>
