<svg width="111" height="160" viewBox="0 0 111 160" fill="none" xmlns="http://www.w3.org/2000/svg">
<path d="M104 87.0495C100.543 80.3663 95.6714 74.3871 89.8212 69.6221C95.5114 62.1062 98.6182 52.9021 98.6182 43.4199C98.6182 19.4781 79.14 0 55.1982 0C31.2565 0 11.7783 19.4781 11.7783 43.4199C11.7783 52.9021 14.8851 62.1062 20.5753 69.6221C14.7247 74.3871 9.85323 80.3663 6.39689 87.0495C2.40233 94.7731 0.291016 103.482 0.291016 112.234C0.291016 121.995 2.88608 131.581 7.79501 139.956C12.5579 148.082 19.3725 154.892 27.5026 159.65C27.8937 159.879 28.339 160 28.7925 160H81.6047C82.0582 160 82.5031 159.879 82.8946 159.65C91.0243 154.892 97.8393 148.082 102.602 139.956C107.511 131.581 110.106 121.995 110.106 112.234C110.105 103.482 107.994 94.7728 104 87.0495Z" fill="white"/>
<path opacity="0.5" d="M104 87.0495C100.543 80.3663 95.6714 74.3871 89.8212 69.6221C95.5114 62.1062 98.6182 52.9021 98.6182 43.4199C98.6182 19.4781 79.14 0 55.1982 0C31.2565 0 11.7783 19.4781 11.7783 43.4199C11.7783 52.9021 14.8851 62.1062 20.5753 69.6221C14.7247 74.3871 9.85323 80.3663 6.39689 87.0495C2.40233 94.7731 0.291016 103.482 0.291016 112.234C0.291016 121.995 2.88608 131.581 7.79501 139.956C12.5579 148.082 19.3725 154.892 27.5026 159.65C27.8937 159.879 28.339 160 28.7925 160H81.6047C82.0582 160 82.5031 159.879 82.8946 159.65C91.0243 154.892 97.8393 148.082 102.602 139.956C107.511 131.581 110.106 121.995 110.106 112.234C110.105 103.482 107.994 94.7728 104 87.0495ZM80.9028 154.894H29.4937C14.6127 145.905 5.3974 129.623 5.3974 112.234C5.3974 96.4671 12.9909 81.4642 25.7103 72.1018C26.2825 71.6807 26.6536 71.0397 26.7336 70.334C26.8136 69.6279 26.596 68.9202 26.1327 68.3813C20.1688 61.4437 16.8844 52.5791 16.8844 43.4199C16.8847 22.2938 34.0721 5.10638 55.1982 5.10638C76.3244 5.10638 93.5118 22.2938 93.5118 43.4199C93.5118 52.5787 90.2273 61.4434 84.2634 68.3813C83.8001 68.9202 83.5826 69.6279 83.6626 70.334C83.7429 71.04 84.1136 71.6807 84.6859 72.1018C97.4052 81.4638 104.999 96.4667 104.999 112.234C104.999 129.623 95.7838 145.905 80.9028 154.894Z" fill="#141CDC"/>
</svg>
