<svg width="138" height="201" viewBox="0 0 138 201" fill="none" xmlns="http://www.w3.org/2000/svg">
<path d="M130.284 109.356C125.941 100.96 119.822 93.4488 112.472 87.4628C119.621 78.0209 123.523 66.4583 123.523 54.5463C123.523 24.4694 99.0541 0 68.9772 0C38.9003 0 14.4309 24.4694 14.4309 54.5463C14.4309 66.4583 18.3338 78.0209 25.4821 87.4628C18.1323 93.4488 12.0125 100.96 7.6705 109.356C2.65234 119.059 0 129.999 0 140.994C0 153.256 3.26005 165.298 9.4269 175.82C15.4103 186.028 23.9712 194.583 34.1845 200.561C34.6759 200.849 35.2353 201 35.8049 201H102.15C102.72 201 103.279 200.849 103.771 200.561C113.984 194.583 122.545 186.028 128.528 175.82C134.695 165.298 137.955 153.256 137.955 140.994C137.954 129.999 135.302 119.058 130.284 109.356Z" fill="white"/>
<path opacity="0.5" d="M130.284 109.356C125.941 100.96 119.822 93.4488 112.472 87.4628C119.621 78.0209 123.523 66.4583 123.523 54.5463C123.523 24.4694 99.0541 0 68.9772 0C38.9003 0 14.4309 24.4694 14.4309 54.5463C14.4309 66.4583 18.3338 78.0209 25.4821 87.4628C18.1323 93.4488 12.0125 100.96 7.6705 109.356C2.65234 119.059 0 129.999 0 140.994C0 153.256 3.26005 165.298 9.4269 175.82C15.4103 186.028 23.9712 194.583 34.1845 200.561C34.6759 200.849 35.2353 201 35.8049 201H102.15C102.72 201 103.279 200.849 103.771 200.561C113.984 194.583 122.545 186.028 128.528 175.82C134.695 165.298 137.955 153.256 137.955 140.994C137.954 129.999 135.302 119.058 130.284 109.356ZM101.269 194.585H36.6859C17.9916 183.293 6.41489 162.839 6.41489 140.994C6.41489 121.187 15.9543 102.339 31.9329 90.5779C32.6518 90.0489 33.118 89.2436 33.2185 88.357C33.319 87.4701 33.0457 86.581 32.4636 85.904C24.9715 77.1887 20.8454 66.0525 20.8454 54.5463C20.8458 28.0066 42.4375 6.41489 68.9772 6.41489C95.5169 6.41489 117.109 28.0066 117.109 54.5463C117.109 66.052 112.983 77.1883 105.49 85.904C104.908 86.581 104.635 87.4701 104.736 88.357C104.836 89.244 105.302 90.0489 106.021 90.5779C122 102.339 131.539 121.186 131.539 140.994C131.54 162.839 119.963 183.293 101.269 194.585Z" fill="#DC143C"/>
</svg>
