<svg width="124" height="180" viewBox="0 0 124 180" fill="none" xmlns="http://www.w3.org/2000/svg">
<path d="M116.963 97.9307C113.074 90.4121 107.594 83.6855 101.012 78.3249C107.414 69.8695 110.909 59.5149 110.909 48.8474C110.909 21.9129 88.9962 0 62.0616 0C35.1271 0 13.2142 21.9129 13.2142 48.8474C13.2142 59.5149 16.7093 69.8695 23.1108 78.3249C16.5289 83.6855 11.0485 90.4121 7.16012 97.9307C2.66625 106.62 0.291016 116.417 0.291016 126.263C0.291016 137.244 3.21046 148.028 8.73301 157.451C14.0913 166.592 21.7577 174.254 30.904 179.607C31.3441 179.864 31.845 180 32.3551 180H91.7689C92.279 180 92.7796 179.864 93.22 179.607C102.366 174.253 110.033 166.592 115.391 157.451C120.914 148.028 123.833 137.244 123.833 126.263C123.832 116.417 121.457 106.619 116.963 97.9307Z" fill="white"/>
<path opacity="0.5" d="M116.963 97.9307C113.074 90.4121 107.594 83.6855 101.012 78.3249C107.414 69.8695 110.909 59.5149 110.909 48.8474C110.909 21.9129 88.9962 0 62.0616 0C35.1271 0 13.2142 21.9129 13.2142 48.8474C13.2142 59.5149 16.7093 69.8695 23.1108 78.3249C16.5289 83.6855 11.0485 90.4121 7.16012 97.9307C2.66625 106.62 0.291016 116.417 0.291016 126.263C0.291016 137.244 3.21046 148.028 8.73301 157.451C14.0913 166.592 21.7577 174.254 30.904 179.607C31.3441 179.864 31.845 180 32.3551 180H91.7689C92.279 180 92.7796 179.864 93.22 179.607C102.366 174.253 110.033 166.592 115.391 157.451C120.914 148.028 123.833 137.244 123.833 126.263C123.832 116.417 121.457 106.619 116.963 97.9307ZM90.9792 174.255H33.1441C16.4029 164.143 6.0357 145.826 6.0357 126.263C6.0357 108.525 14.5784 91.6472 28.8877 81.1145C29.5314 80.6408 29.9489 79.9196 30.0389 79.1257C30.1289 78.3314 29.8842 77.5352 29.3629 76.9289C22.6535 69.1242 18.9585 59.1514 18.9585 48.8474C18.9589 25.0805 38.2948 5.74468 62.0616 5.74468C85.8285 5.74468 105.164 25.0805 105.164 48.8474C105.164 59.1511 101.469 69.1238 94.76 76.9289C94.2387 77.5352 93.994 78.3314 94.084 79.1257C94.1744 79.92 94.5915 80.6408 95.2353 81.1145C109.544 91.6468 118.087 108.525 118.087 126.263C118.088 145.826 107.72 164.143 90.9792 174.255Z" fill="#FFD700"/>
</svg>
