<svg width="97" height="140" viewBox="0 0 97 140" fill="none" xmlns="http://www.w3.org/2000/svg">
<path d="M91.036 76.1683C88.0114 70.3205 83.7489 65.0887 78.6299 60.9194C83.6089 54.3429 86.3273 46.2894 86.3273 37.9924C86.3273 17.0434 69.2839 0 48.3348 0C27.3858 0 10.3424 17.0434 10.3424 37.9924C10.3424 46.2894 13.0608 54.3429 18.0397 60.9194C12.9205 65.0887 8.65795 70.3205 5.63365 76.1683C2.13842 82.9265 0.291016 90.5466 0.291016 98.2049C0.291016 106.745 2.5617 115.133 6.85701 122.462C11.0245 129.571 16.9874 135.531 24.1011 139.694C24.4434 139.895 24.833 140 25.2298 140H71.4405C71.8373 140 72.2266 139.895 72.5691 139.694C79.6826 135.53 85.6457 129.571 89.8133 122.462C94.1086 115.133 96.3793 106.745 96.3793 98.2049C96.3787 90.5463 94.5313 82.9262 91.036 76.1683Z" fill="white"/>
<path opacity="0.5" d="M91.036 76.1683C88.0114 70.3205 83.7489 65.0887 78.6299 60.9194C83.6089 54.3429 86.3273 46.2894 86.3273 37.9924C86.3273 17.0434 69.2839 0 48.3348 0C27.3858 0 10.3424 17.0434 10.3424 37.9924C10.3424 46.2894 13.0608 54.3429 18.0397 60.9194C12.9205 65.0887 8.65795 70.3205 5.63365 76.1683C2.13842 82.9265 0.291016 90.5466 0.291016 98.2049C0.291016 106.745 2.5617 115.133 6.85701 122.462C11.0245 129.571 16.9874 135.531 24.1011 139.694C24.4434 139.895 24.833 140 25.2298 140H71.4405C71.8373 140 72.2266 139.895 72.5691 139.694C79.6826 135.53 85.6457 129.571 89.8133 122.462C94.1086 115.133 96.3793 106.745 96.3793 98.2049C96.3787 90.5463 94.5313 82.9262 91.036 76.1683ZM70.8263 135.532H25.8434C12.8225 127.667 4.7591 113.421 4.7591 98.2049C4.7591 84.4087 11.4034 71.2811 22.5328 63.0891C23.0336 62.7206 23.3582 62.1597 23.4282 61.5422C23.4982 60.9244 23.3079 60.3051 22.9025 59.8336C17.6841 53.7633 14.8102 46.0067 14.8102 37.9924C14.8105 19.5071 29.8495 4.46809 48.3348 4.46809C66.8202 4.46809 81.8592 19.5071 81.8592 37.9924C81.8592 46.0064 78.9853 53.763 73.7669 59.8336C73.3615 60.3051 73.1711 60.9244 73.2411 61.5422C73.3114 62.16 73.6358 62.7206 74.1365 63.0891C85.2659 71.2808 91.9103 84.4084 91.9103 98.2049C91.9106 113.421 83.8472 127.667 70.8263 135.532Z" fill="#DC1498"/>
</svg>
