<svg width="15" height="15" viewBox="0 0 15 15" fill="none" xmlns="http://www.w3.org/2000/svg">
<path d="M7.5 0C4.59223 0 2.22656 2.36566 2.22656 5.27344C2.22656 6.25588 2.4987 7.21465 3.01374 8.04645L7.19982 14.7923C7.28001 14.9215 7.42128 15 7.57321 15C7.57438 15 7.57553 15 7.5767 15C7.72995 14.9988 7.87151 14.9179 7.95023 14.7864L12.0296 7.9752C12.5162 7.16098 12.7734 6.22673 12.7734 5.27344C12.7734 2.36566 10.4078 0 7.5 0ZM11.2754 7.52396L7.56656 13.7164L3.76075 7.58338C3.33205 6.89104 3.09961 6.09229 3.09961 5.27344C3.09961 2.85029 5.07686 0.873047 7.5 0.873047C9.92314 0.873047 11.8975 2.85029 11.8975 5.27344C11.8975 6.068 11.6803 6.84633 11.2754 7.52396Z" fill="#DC143C"/>
<path d="M7.5 2.63672C6.04611 2.63672 4.86328 3.81955 4.86328 5.27344C4.86328 6.71804 6.02687 7.91016 7.5 7.91016C8.9913 7.91016 10.1367 6.70216 10.1367 5.27344C10.1367 3.81955 8.95389 2.63672 7.5 2.63672ZM7.5 7.03711C6.52567 7.03711 5.73633 6.24513 5.73633 5.27344C5.73633 4.30418 6.53074 3.50977 7.5 3.50977C8.46926 3.50977 9.26074 4.30418 9.26074 5.27344C9.26074 6.23095 8.48977 7.03711 7.5 7.03711Z" fill="#DC143C"/>
</svg>
