<svg width="16" height="15" viewBox="0 0 16 15" fill="none" xmlns="http://www.w3.org/2000/svg">
<path d="M12.8306 9.29201C12.5236 8.97226 12.1531 8.8013 11.7606 8.8013C11.3712 8.8013 10.9976 8.96909 10.6779 9.28885L9.67745 10.2861C9.59514 10.2418 9.51282 10.2006 9.43368 10.1595C9.31971 10.1025 9.21207 10.0486 9.12026 9.99166C8.18317 9.39648 7.33155 8.62085 6.51476 7.61728C6.11903 7.11707 5.8531 6.69601 5.65998 6.26862C5.91958 6.03118 6.16019 5.78425 6.39446 5.54681C6.4831 5.45816 6.57175 5.36635 6.66039 5.27771C7.32522 4.61288 7.32522 3.75177 6.66039 3.08694L5.79611 2.22266C5.69797 2.12452 5.59666 2.02321 5.50169 1.92191C5.31174 1.72562 5.11229 1.52301 4.90651 1.33306C4.59942 1.02913 4.23218 0.867676 3.84595 0.867676C3.45971 0.867676 3.08614 1.02913 2.76956 1.33306C2.76639 1.33622 2.76639 1.33622 2.76322 1.33939L1.68683 2.42528C1.2816 2.83051 1.0505 3.32438 0.999843 3.8974C0.923863 4.82183 1.19613 5.68294 1.40507 6.24646C1.91794 7.62994 2.68408 8.91211 3.82695 10.2861C5.21359 11.9418 6.882 13.2493 8.78784 14.1706C9.51599 14.5157 10.4879 14.9241 11.5738 14.9937C11.6403 14.9969 11.7099 15 11.7732 15C12.5046 15 13.1187 14.7373 13.5999 14.2149C13.6031 14.2086 13.6094 14.2054 13.6126 14.1991C13.7772 13.9996 13.9672 13.8192 14.1666 13.6261C14.3028 13.4963 14.4421 13.3601 14.5782 13.2177C14.8916 12.8916 15.0562 12.5117 15.0562 12.1223C15.0562 11.7297 14.8884 11.353 14.5687 11.0364L12.8306 9.29201ZM13.964 12.6257C13.9608 12.6257 13.9608 12.6288 13.964 12.6257C13.8405 12.7586 13.7139 12.8789 13.5778 13.0119C13.372 13.2082 13.1631 13.414 12.9668 13.6451C12.647 13.987 12.2703 14.1484 11.7764 14.1484C11.7289 14.1484 11.6783 14.1484 11.6308 14.1453C10.6905 14.0851 9.81675 13.7179 9.16141 13.4045C7.36954 12.537 5.79611 11.3055 4.48861 9.74473C3.40906 8.44356 2.68724 7.24054 2.2092 5.94887C1.91478 5.16057 1.80714 4.5464 1.85462 3.96705C1.88628 3.59664 2.02875 3.28955 2.29151 3.02679L3.37107 1.94723C3.52619 1.8016 3.69082 1.72246 3.85228 1.72246C4.05173 1.72246 4.21319 1.84276 4.31449 1.94407C4.31766 1.94723 4.32082 1.9504 4.32399 1.95356C4.51711 2.13402 4.70073 2.3208 4.89384 2.52025C4.99198 2.62156 5.09329 2.72287 5.1946 2.82734L6.05888 3.69162C6.39446 4.0272 6.39446 4.33745 6.05888 4.67303C5.96707 4.76484 5.87842 4.85665 5.78661 4.94529C5.52068 5.21756 5.26741 5.47083 4.99199 5.71776C4.98565 5.72409 4.97932 5.72726 4.97616 5.73359C4.70389 6.00586 4.75455 6.27179 4.81153 6.45224C4.8147 6.46174 4.81786 6.47124 4.82103 6.48073C5.0458 7.02526 5.36239 7.53813 5.8436 8.14914L5.84677 8.1523C6.72054 9.22869 7.6418 10.0676 8.65804 10.7103C8.78784 10.7926 8.92081 10.8591 9.04744 10.9224C9.16141 10.9794 9.26905 11.0332 9.36086 11.0902C9.37353 11.0965 9.38619 11.106 9.39885 11.1124C9.50649 11.1662 9.6078 11.1915 9.71227 11.1915C9.97504 11.1915 10.1397 11.0269 10.1935 10.9731L11.2762 9.89036C11.3838 9.78272 11.5548 9.65292 11.7542 9.65292C11.9505 9.65292 12.112 9.77639 12.2101 9.88403C12.2133 9.88719 12.2133 9.88719 12.2165 9.89036L13.9608 11.6347C14.2869 11.9577 14.2869 12.2901 13.964 12.6257Z" fill="#DC143C"/>
<path d="M9.08227 3.56805C9.91172 3.70735 10.6652 4.09992 11.2667 4.70143C11.8682 5.30294 12.2576 6.05641 12.4001 6.88587C12.4349 7.09481 12.6154 7.24044 12.8211 7.24044C12.8465 7.24044 12.8686 7.23728 12.894 7.23411C13.1282 7.19612 13.2834 6.97451 13.2454 6.74024C13.0744 5.73666 12.5995 4.82173 11.8745 4.09675C11.1496 3.37177 10.2346 2.89689 9.23106 2.72594C8.99679 2.68795 8.77834 2.84307 8.73719 3.07418C8.69603 3.30529 8.84799 3.53006 9.08227 3.56805Z" fill="#DC143C"/>
<path d="M15.9583 6.61682C15.6765 4.96424 14.8977 3.46046 13.701 2.26377C12.5043 1.06708 11.0006 0.288277 9.34799 0.00651579C9.11688 -0.0346403 8.89844 0.123652 8.85728 0.35476C8.81929 0.589033 8.97442 0.807477 9.20869 0.848633C10.684 1.09874 12.0295 1.79839 13.0995 2.86528C14.1696 3.93534 14.8661 5.28083 15.1162 6.75612C15.151 6.96506 15.3315 7.11069 15.5372 7.11069C15.5626 7.11069 15.5847 7.10753 15.61 7.10436C15.8412 7.06953 15.9994 6.84793 15.9583 6.61682Z" fill="#DC143C"/>
</svg>
