<svg width="38" height="55" viewBox="0 0 38 55" fill="none" xmlns="http://www.w3.org/2000/svg">
<path d="M29.8002 18.9735L29.3635 19.8693L30.02 20.6189C33.5347 24.6327 35.5831 30.3351 35.583 36.4164C35.583 43.0271 33.211 49.0917 29.1766 53.1248H8.57289C4.53846 49.0919 2.1665 43.0272 2.1665 36.4165C2.1665 30.335 4.21484 24.6327 7.72956 20.619L8.38607 19.8693L7.94941 18.9735C7.14166 17.3165 6.7186 15.4917 6.7186 13.6562C6.7186 6.95419 12.1728 1.5 18.8748 1.5C25.5768 1.5 31.031 6.95419 31.031 13.6562C31.031 15.4917 30.6079 17.3164 29.8002 18.9735Z" stroke="black" stroke-width="3"/>
</svg>
