<svg width="38" height="55" viewBox="0 0 38 55" fill="none" xmlns="http://www.w3.org/2000/svg">
<path d="M31.1485 19.6308C32.0554 17.7703 32.531 15.721 32.531 13.6562C32.531 6.12576 26.4052 0 18.8748 0C11.3444 0 5.2186 6.12576 5.2186 13.6562C5.2186 15.721 5.69422 17.7704 6.60108 19.6308C2.82023 23.9484 0.666504 30.0141 0.666504 36.4165C0.666504 43.429 3.20261 49.946 7.62572 54.298C7.8391 54.5069 8.12588 54.6248 8.42365 54.6248H29.3258C29.6237 54.6248 29.9104 54.507 30.1238 54.298C34.5469 49.9459 37.083 43.429 37.083 36.4165C37.0831 30.0141 34.9292 23.9484 31.1485 19.6308Z" fill="#6B6B6B"/>
<path d="M4.05756 28.9904C6.73492 26.6465 10.4971 24.9304 13.6499 23.9003C12.4805 25.9116 12.0909 28.0947 12.0625 28.2636C11.9981 28.6504 12.1381 29.0449 12.4337 29.3039C12.6426 29.4895 12.9116 29.5884 13.185 29.5884C13.2939 29.5884 13.4051 29.5728 13.5118 29.5406C13.9904 29.3966 17.1434 28.3898 18.8752 26.5003C20.6069 28.3898 23.7599 29.3966 24.2385 29.5406C24.3452 29.5728 24.4564 29.5884 24.5653 29.5884C24.8388 29.5884 25.1076 29.4895 25.3166 29.3039C25.6123 29.0449 25.7522 28.6504 25.6878 28.2636C25.6594 28.0947 25.2698 25.9115 24.1005 23.9003C27.2532 24.9304 31.0154 26.6465 33.6928 28.9904C34.4084 31.3316 34.8075 33.8364 34.8075 36.4165H2.94287C2.94287 33.8364 3.34178 31.3316 4.05756 28.9904Z" fill="#FFEA78"/>
<path d="M12.0572 13.5523C12.8766 13.4551 13.668 13.2589 14.4061 12.9311C14.572 13.3543 14.9787 13.6562 15.4607 13.6562C16.0892 13.6562 16.5988 13.1466 16.5988 12.5181C16.5988 12.2396 16.4871 11.9934 16.3209 11.7956C17.3783 10.9928 18.2394 10.0109 18.8749 8.98853C19.5103 10.0109 20.3713 10.9928 21.4288 11.7956C21.2627 11.9934 21.151 12.2396 21.151 12.5181C21.151 13.1466 21.6605 13.6562 22.289 13.6562C22.771 13.6562 23.1778 13.3541 23.3436 12.931C24.0817 13.2588 24.8731 13.455 25.6925 13.5523C25.693 13.5877 25.7031 13.6206 25.7031 13.6562C25.7031 17.4214 22.6402 20.4843 18.875 20.4843C15.1097 20.4843 12.0469 17.4214 12.0469 13.6562C12.0467 13.6206 12.0567 13.5877 12.0572 13.5523Z" fill="#FDD1B0"/>
<path d="M22.85 26.5511C21.3652 25.8243 20.0139 24.8275 20.0139 23.8983C20.0139 23.2693 19.5049 22.7603 18.8759 22.7603C18.2468 22.7603 17.7378 23.2693 17.7378 23.8983C17.7378 24.8196 16.3953 25.8132 14.915 26.5411C15.5619 24.853 16.7821 22.7603 18.8759 22.7603C20.9963 22.7603 22.2144 24.8618 22.85 26.5511Z" fill="#D79999"/>
<path d="M8.97067 19.2485C8.00599 17.5404 7.49484 15.6055 7.49484 13.6562C7.49484 7.3815 12.6003 2.276 18.875 2.276C25.1497 2.276 30.2551 7.3816 30.2551 13.6562C30.2551 15.6055 29.7439 17.5403 28.7793 19.2485C28.5348 19.6841 28.6014 20.2298 28.9461 20.5922C30.1623 21.8737 31.1894 23.3669 32.0478 24.9898C29.2662 23.2962 26.1881 22.1083 23.6374 21.3799C26.2323 19.7742 27.9791 16.9256 27.9791 13.6562C27.9791 8.63627 23.896 4.5521 18.875 4.5521C13.854 4.5521 9.77084 8.63627 9.77084 13.6562C9.77084 16.9255 11.5178 19.7742 14.1125 21.3799C11.5618 22.1083 8.48364 23.2963 5.70215 24.9898C6.56057 23.3669 7.58766 21.8737 8.80392 20.5922C9.14842 20.2298 9.2151 19.6841 8.97067 19.2485Z" fill="#E56881"/>
<path d="M28.8529 52.3487H8.89762C5.57415 48.9072 3.50193 44.0407 3.04199 38.6925H34.7087C34.2486 44.0407 32.1764 48.9072 28.8529 52.3487Z" fill="#E06880"/>
<path d="M18.8766 18.8484C19.7294 18.8484 20.4208 18.488 20.4208 18.0436C20.4208 17.5992 17.3325 17.5992 17.3325 18.0436C17.3325 18.488 18.024 18.8484 18.8766 18.8484Z" fill="#DE7494"/>
<path d="M20.3569 7.00037C22.6015 7.5002 24.4199 9.10619 25.2328 11.2161C22.8755 10.6407 21.0649 8.64786 20.3569 7.00037Z" fill="#8D6E63"/>
<path d="M12.5171 11.2162C13.3301 9.10632 15.1484 7.50033 17.3929 7.00049C16.6851 8.64798 14.8742 10.6408 12.5171 11.2162Z" fill="#8D6E63"/>
<path opacity="0.1" d="M27.9793 13.6563C27.9793 15.5123 27.402 17.2224 26.4404 18.6569C27.375 20.0705 28.1597 21.6221 28.7622 23.2837C29.8703 23.7872 30.9807 24.3399 32.048 24.9897C31.1896 23.3669 30.1625 21.8737 28.9462 20.5921C28.6017 20.2298 28.535 19.6842 28.7795 19.2485C29.7441 17.5404 30.2553 15.6055 30.2553 13.6562C30.2553 9.34635 27.8185 5.63346 24.2769 3.70239C24.9114 4.86626 25.3465 6.13842 25.5413 7.50169C27.0412 9.1255 27.9793 11.2766 27.9793 13.6563Z" fill="black"/>
</svg>
