<svg width="165" height="213" viewBox="0 0 165 213" fill="none" xmlns="http://www.w3.org/2000/svg">
<g filter="url(#filter0_d)">
<path d="M129.161 98.2482C125.856 91.858 121.198 86.1409 115.604 81.5849C121.045 74.3986 124.016 65.5981 124.016 56.5317C124.016 33.6397 105.392 15.0156 82.4996 15.0156C59.6077 15.0156 40.9836 33.6397 40.9836 56.5317C40.9836 65.5981 43.9541 74.3986 49.3948 81.5849C43.8008 86.1409 39.1429 91.858 35.8381 98.2482C32.0187 105.633 30 113.96 30 122.329C30 131.661 32.4813 140.827 37.175 148.835C41.729 156.604 48.2448 163.116 56.0184 167.666C56.3924 167.885 56.8181 168 57.2517 168H107.748C108.182 168 108.607 167.885 108.982 167.666C116.755 163.116 123.271 156.604 127.825 148.835C132.519 140.827 135 131.661 135 122.329C134.999 113.96 132.981 105.633 129.161 98.2482Z" fill="url(#paint0_linear)"/>
</g>
<path opacity="0.5" d="M129.161 98.2482C125.856 91.858 121.198 86.1409 115.604 81.5849C121.045 74.3986 124.016 65.5981 124.016 56.5317C124.016 33.6397 105.392 15.0156 82.4996 15.0156C59.6077 15.0156 40.9836 33.6397 40.9836 56.5317C40.9836 65.5981 43.9541 74.3986 49.3948 81.5849C43.8008 86.1409 39.1429 91.858 35.8381 98.2482C32.0187 105.633 30 113.96 30 122.329C30 131.661 32.4813 140.827 37.175 148.835C41.729 156.604 48.2448 163.116 56.0184 167.666C56.3924 167.885 56.8181 168 57.2517 168H107.748C108.182 168 108.607 167.885 108.982 167.666C116.755 163.116 123.271 156.604 127.825 148.835C132.519 140.827 135 131.661 135 122.329C134.999 113.96 132.981 105.633 129.161 98.2482ZM107.077 163.117H57.9222C43.6937 154.523 34.8825 138.955 34.8825 122.329C34.8825 107.253 42.143 92.9077 54.3046 83.9559C54.8518 83.5532 55.2066 82.9403 55.2831 82.2656C55.3596 81.5905 55.1516 80.9138 54.7086 80.3985C49.0062 73.7652 45.8658 65.2892 45.8658 56.5317C45.8661 36.3319 62.2999 19.8981 82.4996 19.8981C102.699 19.8981 119.133 36.3319 119.133 56.5317C119.133 65.2889 115.993 73.7648 110.29 80.3985C109.847 80.9138 109.639 81.5905 109.716 82.2656C109.793 82.9406 110.147 83.5532 110.694 83.9559C122.856 92.9074 130.116 107.252 130.116 122.329C130.117 138.955 121.306 154.523 107.077 163.117Z" fill="#DC143C"/>
<path opacity="0.5" d="M115.605 81.5848C121.198 86.1408 125.856 91.8579 129.161 98.248C132.981 105.633 134.999 113.96 135 122.328C135 131.661 132.519 140.826 127.825 148.835C123.271 156.604 116.755 163.116 108.982 167.665C108.607 167.885 108.182 168 107.748 168H57.2519C56.8183 168 56.3926 167.885 56.0186 167.665L57.9224 163.117H107.077C121.306 154.523 130.117 138.955 130.117 122.328C130.117 107.252 122.856 92.9073 110.694 83.9557C110.147 83.5531 109.793 82.9405 109.716 82.2654C109.64 81.5903 109.848 80.9136 110.291 80.3984C115.993 73.7647 119.133 65.2887 119.133 56.5315C119.133 51.8223 118.24 47.3178 116.614 43.1785L119.133 37.0103C122.248 42.8325 124.016 49.4795 124.016 56.5315C124.016 65.5979 121.045 74.3984 115.605 81.5848Z" fill="#FF1E4B"/>
<defs>
<filter id="filter0_d" x="0" y="0.015625" width="165" height="212.984" filterUnits="userSpaceOnUse" color-interpolation-filters="sRGB">
<feFlood flood-opacity="0" result="BackgroundImageFix"/>
<feColorMatrix in="SourceAlpha" type="matrix" values="0 0 0 0 0 0 0 0 0 0 0 0 0 0 0 0 0 0 127 0"/>
<feOffset dy="15"/>
<feGaussianBlur stdDeviation="15"/>
<feColorMatrix type="matrix" values="0 0 0 0 0 0 0 0 0 0 0 0 0 0 0 0 0 0 0.3 0"/>
<feBlend mode="normal" in2="BackgroundImageFix" result="effect1_dropShadow"/>
<feBlend mode="normal" in="SourceGraphic" in2="effect1_dropShadow" result="shape"/>
</filter>
<linearGradient id="paint0_linear" x1="44.2554" y1="40.0494" x2="122.138" y2="162.089" gradientUnits="userSpaceOnUse">
<stop stop-color="white"/>
<stop offset="1" stop-color="#FFEBEB"/>
</linearGradient>
</defs>
</svg>
