<svg width="166" height="214" viewBox="0 0 166 214" fill="none" xmlns="http://www.w3.org/2000/svg">
<g filter="url(#filter0_d)">
<path d="M129.82 98.7852C126.492 92.3526 121.804 86.5975 116.173 82.0113C121.65 74.7772 124.64 65.9183 124.64 56.7917C124.64 33.7477 105.892 15 82.8482 15C59.8042 15 41.0565 33.7477 41.0565 56.7917C41.0565 65.9183 44.0468 74.7772 49.5236 82.0113C43.8924 86.5975 39.2036 92.3526 35.8769 98.7852C32.0321 106.219 30 114.601 30 123.025C30 132.42 32.4977 141.646 37.2226 149.708C41.8069 157.529 48.366 164.084 56.1911 168.663C56.5676 168.884 56.9962 169 57.4326 169H108.264C108.701 169 109.129 168.884 109.506 168.663C117.331 164.083 123.89 157.529 128.474 149.708C133.199 141.646 135.697 132.42 135.697 123.025C135.696 114.601 133.664 106.219 129.82 98.7852Z" fill="url(#paint0_linear)"/>
</g>
<path opacity="0.5" d="M129.82 98.7852C126.492 92.3526 121.804 86.5975 116.173 82.0113C121.65 74.7772 124.64 65.9183 124.64 56.7917C124.64 33.7477 105.892 15 82.8482 15C59.8042 15 41.0565 33.7477 41.0565 56.7917C41.0565 65.9183 44.0468 74.7772 49.5236 82.0113C43.8924 86.5975 39.2036 92.3526 35.8769 98.7852C32.0321 106.219 30 114.601 30 123.025C30 132.42 32.4977 141.646 37.2226 149.708C41.8069 157.529 48.366 164.084 56.1911 168.663C56.5676 168.884 56.9962 169 57.4326 169H108.264C108.701 169 109.129 168.884 109.506 168.663C117.331 164.083 123.89 157.529 128.474 149.708C133.199 141.646 135.697 132.42 135.697 123.025C135.696 114.601 133.664 106.219 129.82 98.7852ZM107.589 164.085H58.1076C43.7846 155.434 34.9149 139.763 34.9149 123.025C34.9149 107.85 42.2237 93.4093 54.466 84.398C55.0168 83.9927 55.374 83.3757 55.451 82.6964C55.528 82.0169 55.3186 81.3357 54.8726 80.817C49.1324 74.1396 45.9711 65.6073 45.9711 56.7917C45.9714 36.4578 62.5143 19.9149 82.8482 19.9149C103.182 19.9149 119.725 36.4578 119.725 56.7917C119.725 65.607 116.564 74.1393 110.823 80.817C110.378 81.3357 110.168 82.0169 110.245 82.6964C110.322 83.376 110.679 83.9927 111.23 84.398C123.472 93.4089 130.781 107.849 130.781 123.025C130.782 139.763 121.912 155.434 107.589 164.085Z" fill="#00288D"/>
<path opacity="0.5" d="M116.173 82.0111C121.804 86.5974 126.493 92.3524 129.82 98.785C133.665 106.219 135.697 114.601 135.697 123.025C135.697 132.42 133.2 141.646 128.475 149.708C123.89 157.528 117.331 164.083 109.506 168.663C109.129 168.884 108.701 169 108.265 169H57.4329C56.9965 169 56.5679 168.884 56.1914 168.663L58.1079 164.085H107.589C121.912 155.433 130.782 139.762 130.781 123.025C130.781 107.849 123.473 93.4088 111.23 84.3978C110.68 83.9925 110.323 83.3758 110.245 82.6963C110.168 82.0167 110.378 81.3355 110.824 80.8168C116.564 74.1391 119.725 65.6068 119.725 56.7915C119.725 52.051 118.826 47.5166 117.19 43.3498L119.725 37.1406C122.861 43.0016 124.64 49.6927 124.64 56.7915C124.64 65.9181 121.65 74.7771 116.173 82.0111Z" fill="#2B59CE"/>
<defs>
<filter id="filter0_d" x="0" y="0" width="165.697" height="214" filterUnits="userSpaceOnUse" color-interpolation-filters="sRGB">
<feFlood flood-opacity="0" result="BackgroundImageFix"/>
<feColorMatrix in="SourceAlpha" type="matrix" values="0 0 0 0 0 0 0 0 0 0 0 0 0 0 0 0 0 0 127 0"/>
<feOffset dy="15"/>
<feGaussianBlur stdDeviation="15"/>
<feColorMatrix type="matrix" values="0 0 0 0 0 0 0 0 0 0 0 0 0 0 0 0 0 0 0.3 0"/>
<feBlend mode="normal" in2="BackgroundImageFix" result="effect1_dropShadow"/>
<feBlend mode="normal" in="SourceGraphic" in2="effect1_dropShadow" result="shape"/>
</filter>
<linearGradient id="paint0_linear" x1="45.4" y1="45.45" x2="125.2" y2="153.6" gradientUnits="userSpaceOnUse">
<stop stop-color="white"/>
<stop offset="1" stop-color="#ECEFFF"/>
</linearGradient>
</defs>
</svg>
